HussarBd.ufo
<glyph name="exclam" format="1">
  <advance width="308"/>
  <unicode hex="0021"/>
  <outline>
    <contour>
      <point x="87.5" y="235" type="line"/>
      <point x="65.5" y="825" type="line"/>
      <point x="242.5" y="825" type="line"/>
      <point x="219.5" y="235" type="line"/>
    </contour>
    <contour>
      <point x="71" y="88" type="curve" smooth="yes"/>
      <point x="71" y="136"/>
      <point x="110" y="176"/>
      <point x="156" y="176" type="curve" smooth="yes"/>
      <point x="202" y="176"/>
      <point x="241" y="136"/>
      <point x="241" y="88" type="curve" smooth="yes"/>
      <point x="241" y="40"/>
      <point x="202" y="0"/>
      <point x="156" y="0" type="curve" smooth="yes"/>
      <point x="110" y="0"/>
      <point x="71" y="40"/>
    </contour>
  </outline>
</glyph>
<glyph name="numbersign" format="1">
  <advance width="764"/>
  <unicode hex="0023"/>
  <outline>
    <contour>
      <point x="417" y="340" type="line"/>
      <point x="455" y="486" type="line"/>
      <point x="347" y="486" type="line"/>
      <point x="309" y="340" type="line"/>
    </contour>
    <contour>
      <point x="277" y="219" type="line"/>
      <point x="220" y="0" type="line"/>
      <point x="96" y="0" type="line"/>
      <point x="153" y="219" type="line"/>
      <point x="51" y="219" type="line"/>
      <point x="83" y="340" type="line"/>
      <point x="185" y="340" type="line"/>
      <point x="223" y="486" type="line"/>
      <point x="116" y="486" type="line"/>
      <point x="148" y="607" type="line"/>
      <point x="255" y="607" type="line"/>
      <point x="312" y="825" type="line"/>
      <point x="436" y="825" type="line"/>
      <point x="379" y="607" type="line"/>
      <point x="487" y="607" type="line"/>
      <point x="544" y="825" type="line"/>
      <point x="668" y="825" type="line"/>
      <point x="611" y="607" type="line"/>
      <point x="713" y="607" type="line"/>
      <point x="681" y="486" type="line"/>
      <point x="579" y="486" type="line"/>
      <point x="541" y="340" type="line"/>
      <point x="648" y="340" type="line"/>
      <point x="616" y="219" type="line"/>
      <point x="509" y="219" type="line"/>
      <point x="452" y="0" type="line"/>
      <point x="328" y="0" type="line"/>
      <point x="385" y="219" type="line"/>
    </contour>
  </outline>
</glyph>
<glyph name="dollar" format="1">
  <advance width="723"/>
  <unicode hex="0024"/>
  <outline>
    <contour>
      <point x="466" y="240" type="curve" smooth="yes"/>
      <point x="466" y="352.801"/>
      <point x="123" y="399"/>
      <point x="123" y="588" type="curve" smooth="yes"/>
      <point x="123" y="720"/>
      <point x="222" y="810"/>
      <point x="334" y="834" type="curve"/>
      <point x="334" y="932" type="line"/>
      <point x="454" y="890" type="line"/>
      <point x="454" y="836" type="line"/>
      <point x="570" y="820"/>
      <point x="648" y="762"/>
      <point x="648" y="762" type="curve"/>
      <point x="572" y="612" type="line"/>
      <point x="572" y="612"/>
      <point x="490" y="669"/>
      <point x="405" y="669" type="curve" smooth="yes"/>
      <point x="341" y="669"/>
      <point x="307" y="640"/>
      <point x="307" y="595" type="curve" smooth="yes"/>
      <point x="307" y="479.617"/>
      <point x="672" y="467"/>
      <point x="672" y="251" type="curve" smooth="yes"/>
      <point x="672" y="93"/>
      <point x="575" y="18"/>
      <point x="454" y="-6" type="curve"/>
      <point x="454" y="-109" type="line"/>
      <point x="334" y="-78" type="line"/>
      <point x="334" y="-14" type="line"/>
      <point x="157" y="-5"/>
      <point x="51" y="94"/>
      <point x="51" y="94" type="curve"/>
      <point x="145" y="252" type="line"/>
      <point x="145" y="252"/>
      <point x="255" y="159"/>
      <point x="347" y="159" type="curve" smooth="yes"/>
      <point x="388" y="159"/>
      <point x="466" y="163"/>
    </contour>
  </outline>
</glyph>
<glyph name="percent" format="1">
  <advance width="981"/>
  <unicode hex="0025"/>
  <outline>
    <contour>
      <point x="169.668" y="643.27" type="curve" smooth="yes"/>
      <point x="169.668" y="596.957"/>
      <point x="210.281" y="556.344"/>
      <point x="258.73" y="556.344" type="curve" smooth="yes"/>
      <point x="307.182" y="556.344"/>
      <point x="347.082" y="596.957"/>
      <point x="347.082" y="643.27" type="curve" smooth="yes"/>
      <point x="347.082" y="689.582"/>
      <point x="307.182" y="730.906"/>
      <point x="258.73" y="730.906" type="curve" smooth="yes"/>
      <point x="210.281" y="730.906"/>
      <point x="169.668" y="689.582"/>
    </contour>
    <contour>
      <point x="51" y="643.25" type="curve" smooth="yes"/>
      <point x="51" y="752"/>
      <point x="145.5" y="847.25"/>
      <point x="259.5" y="847.25" type="curve" smooth="yes"/>
      <point x="373.5" y="847.25"/>
      <point x="465.75" y="752"/>
      <point x="465.75" y="643.25" type="curve" smooth="yes"/>
      <point x="465.75" y="534.5"/>
      <point x="373.5" y="440"/>
      <point x="259.5" y="440" type="curve" smooth="yes"/>
      <point x="145.5" y="440"/>
      <point x="51" y="534.5"/>
    </contour>
    <contour>
      <point x="634.668" y="188.27" type="curve" smooth="yes"/>
      <point x="634.668" y="141.957"/>
      <point x="675.281" y="101.344"/>
      <point x="723.73" y="101.344" type="curve" smooth="yes"/>
      <point x="772.182" y="101.344"/>
      <point x="812.082" y="141.957"/>
      <point x="812.082" y="188.27" type="curve" smooth="yes"/>
      <point x="812.082" y="234.582"/>
      <point x="772.182" y="275.906"/>
      <point x="723.73" y="275.906" type="curve" smooth="yes"/>
      <point x="675.281" y="275.906"/>
      <point x="634.668" y="234.582"/>
    </contour>
    <contour>
      <point x="516" y="188.25" type="curve" smooth="yes"/>
      <point x="516" y="297"/>
      <point x="610.5" y="392.25"/>
      <point x="724.5" y="392.25" type="curve" smooth="yes"/>
      <point x="838.5" y="392.25"/>
      <point x="930.75" y="297"/>
      <point x="930.75" y="188.25" type="curve" smooth="yes"/>
      <point x="930.75" y="79.5"/>
      <point x="838.5" y="-15"/>
      <point x="724.5" y="-15" type="curve" smooth="yes"/>
      <point x="610.5" y="-15"/>
      <point x="516" y="79.5"/>
    </contour>
    <contour>
      <point x="792.5" y="825" type="line"/>
      <point x="312.5" y="0" type="line"/>
      <point x="194.5" y="0" type="line"/>
      <point x="674.5" y="825" type="line"/>
    </contour>
  </outline>
</glyph>
<glyph name="ampersand" format="1">
  <advance width="972"/>
  <unicode hex="0026"/>
  <outline>
    <contour>
      <point x="483" y="210" type="curve"/>
      <point x="352" y="339" type="line"/>
      <point x="352" y="339"/>
      <point x="266" y="308"/>
      <point x="266" y="232" type="curve" smooth="yes"/>
      <point x="266" y="184"/>
      <point x="315" y="163"/>
      <point x="359" y="163" type="curve" smooth="yes"/>
      <point x="427" y="163"/>
      <point x="483" y="210"/>
    </contour>
    <contour>
      <point x="434" y="707" type="curve" smooth="yes"/>
      <point x="383" y="707"/>
      <point x="362" y="669"/>
      <point x="362" y="625" type="curve" smooth="yes"/>
      <point x="362" y="577"/>
      <point x="422" y="524"/>
      <point x="422" y="524" type="curve"/>
      <point x="464" y="547"/>
      <point x="514" y="581"/>
      <point x="514" y="625" type="curve" smooth="yes"/>
      <point x="514" y="669"/>
      <point x="495" y="707"/>
    </contour>
    <contour>
      <point x="517" y="413" type="curve"/>
      <point x="734" y="198"/>
      <point x="790" y="288"/>
      <point x="863" y="298" type="curve"/>
      <point x="863" y="298"/>
      <point x="838" y="265"/>
      <point x="746" y="185" type="curve"/>
      <point x="924" y="0" type="line"/>
      <point x="687" y="0" type="line"/>
      <point x="616" y="76" type="line"/>
      <point x="544" y="25"/>
      <point x="467" y="-15"/>
      <point x="340" y="-15" type="curve" smooth="yes"/>
      <point x="218" y="-15"/>
      <point x="53" y="34"/>
      <point x="53" y="217" type="curve" smooth="yes"/>
      <point x="53" y="354"/>
      <point x="282" y="414"/>
      <point x="253" y="451" type="curve"/>
      <point x="253" y="451"/>
      <point x="171" y="560"/>
      <point x="171" y="625" type="curve" smooth="yes"/>
      <point x="171" y="753"/>
      <point x="263" y="840"/>
      <point x="434" y="840" type="curve" smooth="yes"/>
      <point x="599" y="840"/>
      <point x="678.18" y="727.997"/>
      <point x="679" y="625" type="curve" smooth="yes"/>
      <point x="679.968" y="503.594"/>
      <point x="487.836" y="451.468"/>
    </contour>
  </outline>
</glyph>
<glyph name="quotesingle" format="1">
  <advance width="257"/>
  <unicode hex="0027"/>
  <outline>
    <contour>
      <point x="62.2002" y="860" type="line"/>
      <point x="194.8" y="860" type="line"/>
      <point x="174.91" y="581" type="line"/>
      <point x="82.0898" y="581" type="line"/>
    </contour>
  </outline>
</glyph>
<glyph name="parenleft" format="1">
  <advance width="409"/>
  <unicode hex="0028"/>
  <outline>
    <contour>
      <point x="342.5" y="-211" type="curve"/>
      <point x="227.5" y="-260" type="line"/>
      <point x="227.5" y="-260"/>
      <point x="52.5" y="-49"/>
      <point x="52.5" y="297" type="curve" smooth="yes"/>
      <point x="52.5" y="653"/>
      <point x="241.5" y="875"/>
      <point x="241.5" y="875" type="curve"/>
      <point x="356.5" y="826" type="line"/>
      <point x="356.5" y="826"/>
      <point x="215.5" y="655"/>
      <point x="215.5" y="297" type="curve" smooth="yes"/>
      <point x="215.5" y="-41"/>
      <point x="342.5" y="-211"/>
    </contour>
  </outline>
</glyph>
<glyph name="parenright" format="1">
  <advance width="410"/>
  <unicode hex="0029"/>
  <outline>
    <contour>
      <point x="182" y="-260" type="curve"/>
      <point x="67" y="-211" type="line"/>
      <point x="67" y="-211"/>
      <point x="194" y="-41"/>
      <point x="194" y="297" type="curve" smooth="yes"/>
      <point x="194" y="655"/>
      <point x="53" y="826"/>
      <point x="53" y="826" type="curve"/>
      <point x="168" y="875" type="line"/>
      <point x="168" y="875"/>
      <point x="357" y="653"/>
      <point x="357" y="297" type="curve" smooth="yes"/>
      <point x="357" y="-49"/>
      <point x="182" y="-260"/>
    </contour>
  </outline>
</glyph>
<glyph name="asterisk" format="1">
  <advance width="476"/>
  <unicode hex="002A"/>
  <outline>
    <contour>
      <point x="396" y="778" type="line"/>
      <point x="422" y="698" type="line"/>
      <point x="308" y="657" type="line"/>
      <point x="374" y="558" type="line"/>
      <point x="308" y="513" type="line"/>
      <point x="238" y="604" type="line"/>
      <point x="168" y="513" type="line"/>
      <point x="102" y="558" type="line"/>
      <point x="168" y="657" type="line"/>
      <point x="54" y="698" type="line"/>
      <point x="80" y="778" type="line"/>
      <point x="194" y="743" type="line"/>
      <point x="195" y="860" type="line"/>
      <point x="281" y="860" type="line"/>
      <point x="282" y="743" type="line"/>
    </contour>
  </outline>
</glyph>
<glyph name="plus" format="1">
  <advance width="636"/>
  <unicode hex="002B"/>
  <outline>
    <contour>
      <point x="394.5" y="158" type="line"/>
      <point x="241.5" y="158" type="line"/>
      <point x="241.5" y="338" type="line"/>
      <point x="61.5" y="338" type="line"/>
      <point x="61.5" y="491" type="line"/>
      <point x="241.5" y="491" type="line"/>
      <point x="241.5" y="671" type="line"/>
      <point x="394.5" y="671" type="line"/>
      <point x="394.5" y="491" type="line"/>
      <point x="574.5" y="491" type="line"/>
      <point x="574.5" y="338" type="line"/>
      <point x="394.5" y="338" type="line"/>
    </contour>
  </outline>
</glyph>
<glyph name="comma" format="1">
  <advance width="295"/>
  <unicode hex="002C"/>
  <outline>
    <contour>
      <point x="147.125" y="165.75" type="curve" smooth="yes"/>
      <point x="195.125" y="165.75"/>
      <point x="233.375" y="127.5"/>
      <point x="233.375" y="79.5" type="curve" smooth="yes"/>
      <point x="233.375" y="-11.25"/>
      <point x="168.875" y="-84.75"/>
      <point x="107.375" y="-135.75" type="curve"/>
      <point x="69.125" y="-104.25" type="line"/>
      <point x="69.125" y="-104.25"/>
      <point x="114.125" y="-61.5"/>
      <point x="126.125" y="0.75" type="curve"/>
      <point x="89.375" y="9.75"/>
      <point x="61.625" y="39.75"/>
      <point x="61.625" y="79.5" type="curve" smooth="yes"/>
      <point x="61.625" y="127.5"/>
      <point x="99.875" y="165.75"/>
    </contour>
  </outline>
</glyph>
<glyph name="period" format="1">
  <advance width="294"/>
  <unicode hex="002E"/>
  <outline>
    <contour>
      <point x="62" y="88" type="curve" smooth="yes"/>
      <point x="62" y="136"/>
      <point x="101" y="176"/>
      <point x="147" y="176" type="curve" smooth="yes"/>
      <point x="193" y="176"/>
      <point x="232" y="136"/>
      <point x="232" y="88" type="curve" smooth="yes"/>
      <point x="232" y="40"/>
      <point x="193" y="0"/>
      <point x="147" y="0" type="curve" smooth="yes"/>
      <point x="101" y="0"/>
      <point x="62" y="40"/>
    </contour>
  </outline>
</glyph>
<glyph name="zero" format="1">
  <advance width="792"/>
  <unicode hex="0030"/>
  <outline>
    <contour>
      <point x="250.5" y="412" type="curve" smooth="yes"/>
      <point x="250.5" y="234"/>
      <point x="305.5" y="150"/>
      <point x="396.5" y="150" type="curve" smooth="yes"/>
      <point x="486.5" y="150"/>
      <point x="541.5" y="234"/>
      <point x="541.5" y="412" type="curve" smooth="yes"/>
      <point x="541.5" y="579"/>
      <point x="486.5" y="675"/>
      <point x="396.5" y="675" type="curve" smooth="yes"/>
      <point x="305.5" y="675"/>
      <point x="250.5" y="578"/>
    </contour>
    <contour>
      <point x="60.5" y="412" type="curve" smooth="yes"/>
      <point x="60.5" y="698"/>
      <point x="219.5" y="840"/>
      <point x="396.5" y="840" type="curve" smooth="yes"/>
      <point x="573.5" y="840"/>
      <point x="731.5" y="698"/>
      <point x="731.5" y="412" type="curve" smooth="yes"/>
      <point x="731.5" y="106"/>
      <point x="573.5" y="-15"/>
      <point x="396.5" y="-15" type="curve" smooth="yes"/>
      <point x="219.5" y="-15"/>
      <point x="60.5" y="106"/>
    </contour>
  </outline>
</glyph>
<glyph name="one" format="1">
  <advance width="457"/>
  <unicode hex="0031"/>
  <outline>
    <contour>
      <point x="66.5" y="487" type="line"/>
      <point x="66.5" y="673" type="line"/>
      <point x="301.5" y="825" type="line"/>
      <point x="390.5" y="825" type="line"/>
      <point x="390.5" y="0" type="line"/>
      <point x="202.5" y="0" type="line"/>
      <point x="202.5" y="575" type="line"/>
    </contour>
  </outline>
</glyph>
<glyph name="two" format="1">
  <advance width="755"/>
  <unicode hex="0032"/>
  <outline>
    <contour>
      <point x="364" y="681" type="curve" smooth="yes"/>
      <point x="274" y="681"/>
      <point x="217" y="524"/>
      <point x="217" y="524" type="curve"/>
      <point x="60" y="600" type="line"/>
      <point x="60" y="600"/>
      <point x="140" y="840"/>
      <point x="364" y="840" type="curve" smooth="yes"/>
      <point x="647" y="840"/>
      <point x="684" y="654"/>
      <point x="684" y="550" type="curve" smooth="yes"/>
      <point x="684" y="357"/>
      <point x="393" y="165"/>
      <point x="393" y="165" type="curve"/>
      <point x="699" y="165" type="line"/>
      <point x="699" y="0" type="line"/>
      <point x="56" y="0" type="line"/>
      <point x="56" y="47" type="line"/>
      <point x="56" y="47"/>
      <point x="481" y="398"/>
      <point x="481" y="550" type="curve" smooth="yes"/>
      <point x="481" y="580"/>
      <point x="474" y="681"/>
    </contour>
  </outline>
</glyph>
<glyph name="four" format="1">
  <advance width="782"/>
  <unicode hex="0034"/>
  <outline>
    <contour>
      <point x="455" y="574" type="line"/>
      <point x="415" y="574" type="line"/>
      <point x="306" y="339" type="line"/>
      <point x="455" y="339" type="line"/>
    </contour>
    <contour>
      <point x="631" y="825" type="line"/>
      <point x="631" y="339" type="line"/>
      <point x="727" y="339" type="line"/>
      <point x="727" y="174" type="line"/>
      <point x="631" y="174" type="line"/>
      <point x="631" y="0" type="line"/>
      <point x="455" y="0" type="line"/>
      <point x="455" y="174" type="line"/>
      <point x="55" y="174" type="line"/>
      <point x="55" y="230" type="line"/>
      <point x="384" y="825" type="line"/>
    </contour>
  </outline>
</glyph>
<glyph name="five" format="1">
  <advance width="706"/>
  <unicode hex="0035"/>
  <outline>
    <contour>
      <point x="347" y="142" type="curve" smooth="yes"/>
      <point x="510.651" y="142"/>
      <point x="551" y="407"/>
      <point x="251" y="407" type="curve" smooth="yes"/>
      <point x="182" y="407"/>
      <point x="135" y="392"/>
      <point x="110" y="381" type="curve"/>
      <point x="179" y="825" type="line"/>
      <point x="600" y="825" type="line"/>
      <point x="600" y="660" type="line"/>
      <point x="340" y="660" type="line"/>
      <point x="322" y="545" type="line"/>
      <point x="506" y="545"/>
      <point x="653" y="485"/>
      <point x="653" y="256" type="curve" smooth="yes"/>
      <point x="653" y="98"/>
      <point x="524" y="-15"/>
      <point x="347" y="-15" type="curve" smooth="yes"/>
      <point x="171" y="-15"/>
      <point x="84" y="80"/>
      <point x="53" y="164" type="curve"/>
      <point x="202" y="236" type="line"/>
      <point x="217" y="185"/>
      <point x="261" y="142"/>
    </contour>
  </outline>
</glyph>
<glyph name="six" format="1">
  <advance width="748"/>
  <unicode hex="0036"/>
  <outline>
    <contour>
      <point x="251.5" y="265" type="curve" smooth="yes"/>
      <point x="251.5" y="193"/>
      <point x="303.5" y="140"/>
      <point x="376.5" y="140" type="curve" smooth="yes"/>
      <point x="449.5" y="140"/>
      <point x="503.5" y="193"/>
      <point x="503.5" y="265" type="curve" smooth="yes"/>
      <point x="503.5" y="339"/>
      <point x="447.5" y="393"/>
      <point x="376.5" y="393" type="curve" smooth="yes"/>
      <point x="307.5" y="393"/>
      <point x="251.5" y="339"/>
    </contour>
    <contour>
      <point x="380.5" y="825" type="curve"/>
      <point x="597.5" y="825" type="line"/>
      <point x="369.5" y="542" type="line"/>
      <point x="369.5" y="542"/>
      <point x="390.5" y="554"/>
      <point x="428.5" y="554" type="curve" smooth="yes"/>
      <point x="541.5" y="554"/>
      <point x="691.5" y="457"/>
      <point x="691.5" y="265" type="curve" smooth="yes"/>
      <point x="691.5" y="70"/>
      <point x="534.5" y="-15"/>
      <point x="385.5" y="-15" type="curve" smooth="yes"/>
      <point x="200.5" y="-15"/>
      <point x="56.5" y="107"/>
      <point x="56.5" y="265" type="curve" smooth="yes"/>
      <point x="56.5" y="410"/>
      <point x="261.5" y="665"/>
    </contour>
  </outline>
</glyph>
<glyph name="seven" format="1">
  <advance width="760"/>
  <unicode hex="0037"/>
  <outline>
    <contour>
      <point x="709" y="825" type="line"/>
      <point x="709" y="770" type="line"/>
      <point x="523.08" y="513.333"/>
      <point x="360.606" y="256.667"/>
      <point x="273" y="0" type="curve"/>
      <point x="51" y="0" type="line"/>
      <point x="153.99" y="226.588"/>
      <point x="236.666" y="458.829"/>
      <point x="431" y="660" type="curve"/>
      <point x="76" y="660" type="line"/>
      <point x="76" y="825" type="line"/>
    </contour>
  </outline>
</glyph>
<glyph name="nine" format="1">
  <advance width="749"/>
  <unicode hex="0039"/>
  <outline>
    <contour>
      <point x="497" y="560" type="curve" smooth="yes"/>
      <point x="497" y="632"/>
      <point x="445" y="685"/>
      <point x="372" y="685" type="curve" smooth="yes"/>
      <point x="299" y="685"/>
      <point x="245" y="632"/>
      <point x="245" y="560" type="curve" smooth="yes"/>
      <point x="245" y="486"/>
      <point x="301" y="432"/>
      <point x="372" y="432" type="curve" smooth="yes"/>
      <point x="441" y="432"/>
      <point x="497" y="486"/>
    </contour>
    <contour>
      <point x="368" y="0" type="curve"/>
      <point x="151" y="0" type="line"/>
      <point x="379" y="283" type="line"/>
      <point x="379" y="283"/>
      <point x="358" y="271"/>
      <point x="320" y="271" type="curve" smooth="yes"/>
      <point x="207" y="271"/>
      <point x="57" y="368"/>
      <point x="57" y="560" type="curve" smooth="yes"/>
      <point x="57" y="755"/>
      <point x="214" y="840"/>
      <point x="363" y="840" type="curve" smooth="yes"/>
      <point x="548" y="840"/>
      <point x="692" y="718"/>
      <point x="692" y="560" type="curve" smooth="yes"/>
      <point x="692" y="415"/>
      <point x="487" y="160"/>
    </contour>
  </outline>
</glyph>
<glyph name="colon" format="1">
  <advance width="301"/>
  <unicode hex="003A"/>
  <outline>
    <contour>
      <point x="65.5" y="88" type="curve" smooth="yes"/>
      <point x="65.5" y="136"/>
      <point x="104.5" y="176"/>
      <point x="150.5" y="176" type="curve" smooth="yes"/>
      <point x="196.5" y="176"/>
      <point x="235.5" y="136"/>
      <point x="235.5" y="88" type="curve" smooth="yes"/>
      <point x="235.5" y="40"/>
      <point x="196.5" y="0"/>
      <point x="150.5" y="0" type="curve" smooth="yes"/>
      <point x="104.5" y="0"/>
      <point x="65.5" y="40"/>
    </contour>
    <contour>
      <point x="65.5" y="386" type="curve" smooth="yes"/>
      <point x="65.5" y="434"/>
      <point x="104.5" y="474"/>
      <point x="150.5" y="474" type="curve" smooth="yes"/>
      <point x="196.5" y="474"/>
      <point x="235.5" y="434"/>
      <point x="235.5" y="386" type="curve" smooth="yes"/>
      <point x="235.5" y="338"/>
      <point x="196.5" y="298"/>
      <point x="150.5" y="298" type="curve" smooth="yes"/>
      <point x="104.5" y="298"/>
      <point x="65.5" y="338"/>
    </contour>
  </outline>
</glyph>
<glyph name="semicolon" format="1">
  <advance width="302"/>
  <unicode hex="003B"/>
  <outline>
    <contour>
      <point x="64.5625" y="386" type="curve" smooth="yes"/>
      <point x="64.5625" y="434"/>
      <point x="103.562" y="474"/>
      <point x="149.562" y="474" type="curve" smooth="yes"/>
      <point x="195.562" y="474"/>
      <point x="234.562" y="434"/>
      <point x="234.562" y="386" type="curve" smooth="yes"/>
      <point x="234.562" y="338"/>
      <point x="195.562" y="298"/>
      <point x="149.562" y="298" type="curve" smooth="yes"/>
      <point x="103.562" y="298"/>
      <point x="64.5625" y="338"/>
    </contour>
    <contour>
      <point x="151.188" y="165.75" type="curve" smooth="yes"/>
      <point x="199.188" y="165.75"/>
      <point x="237.438" y="127.5"/>
      <point x="237.438" y="79.5" type="curve" smooth="yes"/>
      <point x="237.438" y="-11.25"/>
      <point x="172.938" y="-84.75"/>
      <point x="111.438" y="-135.75" type="curve"/>
      <point x="73.1875" y="-104.25" type="line"/>
      <point x="73.1875" y="-104.25"/>
      <point x="118.188" y="-61.5"/>
      <point x="130.188" y="0.75" type="curve"/>
      <point x="93.4375" y="9.75"/>
      <point x="65.6875" y="39.75"/>
      <point x="65.6875" y="79.5" type="curve" smooth="yes"/>
      <point x="65.6875" y="127.5"/>
      <point x="103.938" y="165.75"/>
    </contour>
  </outline>
</glyph>
<glyph name="less" format="1">
  <advance width="672"/>
  <unicode hex="003C"/>
  <outline>
    <contour>
      <point x="62.5" y="475" type="line"/>
      <point x="609.5" y="697" type="line"/>
      <point x="609.5" y="555" type="line"/>
      <point x="251.5" y="415" type="line"/>
      <point x="609.5" y="277" type="line"/>
      <point x="609.5" y="135" type="line"/>
      <point x="62.5" y="357" type="line"/>
    </contour>
  </outline>
</glyph>
<glyph name="equal" format="1">
  <advance width="652"/>
  <unicode hex="003D"/>
  <outline>
    <contour>
      <point x="69.5" y="371" type="line"/>
      <point x="582.5" y="371" type="line"/>
      <point x="582.5" y="218" type="line"/>
      <point x="69.5" y="218" type="line"/>
    </contour>
    <contour>
      <point x="69.5" y="611" type="line"/>
      <point x="582.5" y="611" type="line"/>
      <point x="582.5" y="458" type="line"/>
      <point x="69.5" y="458" type="line"/>
    </contour>
  </outline>
</glyph>
<glyph name="greater" format="1">
  <advance width="674"/>
  <unicode hex="003E"/>
  <outline>
    <contour>
      <point x="63.5" y="277" type="line"/>
      <point x="421.5" y="415" type="line"/>
      <point x="63.5" y="555" type="line"/>
      <point x="63.5" y="697" type="line"/>
      <point x="610.5" y="475" type="line"/>
      <point x="610.5" y="357" type="line"/>
      <point x="63.5" y="135" type="line"/>
    </contour>
  </outline>
</glyph>
<glyph name="at" format="1">
  <advance width="994"/>
  <unicode hex="0040"/>
  <outline>
    <contour>
      <point x="408" y="405" type="curve" smooth="yes"/>
      <point x="408" y="359"/>
      <point x="444.3" y="325"/>
      <point x="497.1" y="325" type="curve" smooth="yes"/>
      <point x="546.6" y="325"/>
      <point x="584" y="359"/>
      <point x="584" y="405" type="curve" smooth="yes"/>
      <point x="584" y="452"/>
      <point x="544.4" y="487"/>
      <point x="497.1" y="487" type="curve" smooth="yes"/>
      <point x="447.6" y="487"/>
      <point x="408" y="452"/>
    </contour>
    <contour>
      <point x="761" y="356" type="curve" smooth="yes"/>
      <point x="804" y="356"/>
      <point x="816" y="368"/>
      <point x="816" y="442" type="curve" smooth="yes"/>
      <point x="816" y="599"/>
      <point x="683" y="709"/>
      <point x="509" y="709" type="curve" smooth="yes"/>
      <point x="339" y="709"/>
      <point x="205" y="576"/>
      <point x="205" y="413" type="curve" smooth="yes"/>
      <point x="205" y="250"/>
      <point x="342" y="127"/>
      <point x="509" y="127" type="curve" smooth="yes"/>
      <point x="641" y="127"/>
      <point x="696" y="195"/>
      <point x="696" y="195" type="curve"/>
      <point x="812" y="118" type="line"/>
      <point x="812" y="118"/>
      <point x="725" y="-15"/>
      <point x="509" y="-15" type="curve" smooth="yes"/>
      <point x="265" y="-15"/>
      <point x="59" y="159"/>
      <point x="59" y="413" type="curve" smooth="yes"/>
      <point x="59" y="667"/>
      <point x="265" y="840"/>
      <point x="509" y="840" type="curve" smooth="yes"/>
      <point x="743" y="840"/>
      <point x="935" y="678"/>
      <point x="935" y="442" type="curve" smooth="yes"/>
      <point x="935" y="286"/>
      <point x="830" y="223"/>
      <point x="732" y="223" type="curve" smooth="yes"/>
      <point x="678" y="223"/>
      <point x="626" y="241"/>
      <point x="593" y="269" type="curve"/>
      <point x="568" y="222"/>
      <point x="511" y="202"/>
      <point x="458" y="202" type="curve" smooth="yes"/>
      <point x="348" y="202"/>
      <point x="269" y="291"/>
      <point x="269" y="403" type="curve" smooth="yes"/>
      <point x="269" y="516"/>
      <point x="348" y="606"/>
      <point x="458" y="606" type="curve" smooth="yes"/>
      <point x="767" y="606"/>
      <point x="692.525" y="356"/>
    </contour>
  </outline>
</glyph>
<glyph name="A" format="1">
  <advance width="931"/>
  <unicode hex="0041"/>
  <outline>
    <contour>
      <point x="551.5" y="825" type="line"/>
      <point x="885.5" y="0" type="line"/>
      <point x="683.5" y="0" type="line"/>
      <point x="621.5" y="165" type="line"/>
      <point x="307.5" y="165" type="line"/>
      <point x="247.5" y="0" type="line"/>
      <point x="45.5" y="0" type="line"/>
      <point x="377.5" y="825" type="line"/>
    </contour>
    <contour>
      <point x="557.5" y="330" type="line"/>
      <point x="463.5" y="570" type="line"/>
      <point x="371.5" y="330" type="line"/>
    </contour>
  </outline>
</glyph>
<glyph name="E" format="1">
  <advance width="613"/>
  <unicode hex="0045"/>
  <outline>
    <contour>
      <point x="542.5" y="825" type="line"/>
      <point x="542.5" y="660" type="line"/>
      <point x="258.5" y="660" type="line"/>
      <point x="258.5" y="496" type="line"/>
      <point x="530.5" y="496" type="line"/>
      <point x="530.5" y="331" type="line"/>
      <point x="258.5" y="331" type="line"/>
      <point x="258.5" y="165" type="line"/>
      <point x="542.5" y="165" type="line"/>
      <point x="542.5" y="0" type="line"/>
      <point x="70.5" y="0" type="line"/>
      <point x="70.5" y="825" type="line"/>
    </contour>
  </outline>
</glyph>
<glyph name="F" format="1">
  <advance width="608"/>
  <unicode hex="0046"/>
  <outline>
    <contour>
      <point x="543" y="825" type="line"/>
      <point x="543" y="660" type="line"/>
      <point x="253" y="660" type="line"/>
      <point x="253" y="496" type="line"/>
      <point x="521" y="496" type="line"/>
      <point x="521" y="331" type="line"/>
      <point x="253" y="331" type="line"/>
      <point x="253" y="0" type="line"/>
      <point x="65" y="0" type="line"/>
      <point x="65" y="825" type="line"/>
    </contour>
  </outline>
</glyph>
<glyph name="H" format="1">
  <advance width="744"/>
  <unicode hex="0048"/>
  <outline>
    <contour>
      <point x="669" y="825" type="line"/>
      <point x="669" y="0" type="line"/>
      <point x="481" y="0" type="line"/>
      <point x="481" y="318" type="line"/>
      <point x="263" y="318" type="line"/>
      <point x="263" y="0" type="line"/>
      <point x="75" y="0" type="line"/>
      <point x="75" y="825" type="line"/>
      <point x="263" y="825" type="line"/>
      <point x="263" y="506" type="line"/>
      <point x="481" y="506" type="line"/>
      <point x="481" y="825" type="line"/>
    </contour>
  </outline>
</glyph>
<glyph name="J" format="1">
  <advance width="597"/>
  <unicode hex="004A"/>
  <outline>
    <contour>
      <point x="537.5" y="825" type="line"/>
      <point x="537.5" y="233" type="line" smooth="yes"/>
      <point x="537.5" y="71"/>
      <point x="445.5" y="-15"/>
      <point x="280.5" y="-15" type="curve" smooth="yes"/>
      <point x="162.5" y="-15"/>
      <point x="59.5" y="-5"/>
      <point x="59.5" y="-5" type="curve"/>
      <point x="119.5" y="175" type="line"/>
      <point x="119.5" y="175"/>
      <point x="206.5" y="165"/>
      <point x="254.5" y="165" type="curve" smooth="yes"/>
      <point x="308.5" y="165"/>
      <point x="349.5" y="198"/>
      <point x="349.5" y="281" type="curve" smooth="yes"/>
      <point x="349.5" y="825" type="line"/>
    </contour>
  </outline>
</glyph>
<glyph name="K" format="1">
  <advance width="869"/>
  <unicode hex="004B"/>
  <outline>
    <contour>
      <point x="810.5" y="0" type="line"/>
      <point x="550.5" y="0" type="line"/>
      <point x="246.5" y="419" type="line"/>
      <point x="246.5" y="0" type="line"/>
      <point x="58.5" y="0" type="line"/>
      <point x="58.5" y="825" type="line"/>
      <point x="246.5" y="825" type="line"/>
      <point x="246.5" y="419" type="line"/>
      <point x="530.5" y="825" type="line"/>
      <point x="758.5" y="825" type="line"/>
      <point x="460.5" y="419" type="line"/>
    </contour>
  </outline>
</glyph>
<glyph name="L" format="1">
  <advance width="604"/>
  <unicode hex="004C"/>
  <outline>
    <contour>
      <point x="254" y="825" type="line"/>
      <point x="254" y="165" type="line"/>
      <point x="538" y="165" type="line"/>
      <point x="538" y="0" type="line"/>
      <point x="66" y="0" type="line"/>
      <point x="66" y="825" type="line"/>
    </contour>
  </outline>
</glyph>
<glyph name="M" format="1">
  <advance width="1044"/>
  <unicode hex="004D"/>
  <outline>
    <contour>
      <point x="570.5" y="5" type="line"/>
      <point x="472.5" y="5" type="line"/>
      <point x="262.5" y="523" type="line"/>
      <point x="259.5" y="0" type="line"/>
      <point x="72.5" y="0" type="line"/>
      <point x="72.5" y="825" type="line"/>
      <point x="338.5" y="825" type="line"/>
      <point x="522.5" y="349" type="line"/>
      <point x="704.5" y="825" type="line"/>
      <point x="971.5" y="825" type="line"/>
      <point x="971.5" y="0" type="line"/>
      <point x="784.5" y="0" type="line"/>
      <point x="782.5" y="523" type="line"/>
    </contour>
  </outline>
</glyph>
<glyph name="O" format="1">
  <advance width="951"/>
  <unicode hex="004F"/>
  <outline>
    <contour>
      <point x="247" y="413" type="curve" smooth="yes"/>
      <point x="247" y="285"/>
      <point x="348" y="177"/>
      <point x="476" y="177" type="curve" smooth="yes"/>
      <point x="604" y="177"/>
      <point x="704" y="285"/>
      <point x="704" y="413" type="curve" smooth="yes"/>
      <point x="704" y="541"/>
      <point x="604" y="648"/>
      <point x="476" y="648" type="curve" smooth="yes"/>
      <point x="348" y="648"/>
      <point x="247" y="541"/>
    </contour>
    <contour>
      <point x="60" y="413" type="curve" smooth="yes"/>
      <point x="60" y="645"/>
      <point x="244" y="840"/>
      <point x="476" y="840" type="curve" smooth="yes"/>
      <point x="708" y="840"/>
      <point x="891" y="645"/>
      <point x="891" y="413" type="curve" smooth="yes"/>
      <point x="891" y="181"/>
      <point x="708" y="-15"/>
      <point x="476" y="-15" type="curve" smooth="yes"/>
      <point x="244" y="-15"/>
      <point x="60" y="181"/>
    </contour>
  </outline>
</glyph>
<glyph name="Q" format="1">
  <advance width="1002"/>
  <unicode hex="0051"/>
  <outline>
    <contour>
      <point x="50" y="413" type="curve" smooth="yes"/>
      <point x="50" y="645"/>
      <point x="234" y="840"/>
      <point x="466" y="840" type="curve" smooth="yes"/>
      <point x="698" y="840"/>
      <point x="882" y="645"/>
      <point x="882" y="413" type="curve" smooth="yes"/>
      <point x="882" y="318"/>
      <point x="851" y="229"/>
      <point x="799" y="157" type="curve"/>
      <point x="952" y="0" type="line"/>
      <point x="726" y="0" type="line"/>
      <point x="680" y="46" type="line"/>
      <point x="618" y="7"/>
      <point x="545" y="-15"/>
      <point x="466" y="-15" type="curve" smooth="yes"/>
      <point x="234" y="-15"/>
      <point x="50" y="181"/>
    </contour>
    <contour>
      <point x="237" y="413" type="curve" smooth="yes"/>
      <point x="237" y="285"/>
      <point x="338" y="177"/>
      <point x="466" y="177" type="curve" smooth="yes"/>
      <point x="491" y="177"/>
      <point x="514" y="182"/>
      <point x="536" y="189" type="curve"/>
      <point x="442" y="282" type="line"/>
      <point x="568" y="394" type="line"/>
      <point x="664" y="295" type="line"/>
      <point x="684" y="330"/>
      <point x="695" y="371"/>
      <point x="695" y="413" type="curve" smooth="yes"/>
      <point x="695" y="541"/>
      <point x="594" y="648"/>
      <point x="466" y="648" type="curve" smooth="yes"/>
      <point x="338" y="648"/>
      <point x="237" y="541"/>
    </contour>
  </outline>
</glyph>
<glyph name="T" format="1">
  <advance width="682"/>
  <unicode hex="0054"/>
  <outline>
    <contour>
      <point x="51" y="660" type="line"/>
      <point x="51" y="825" type="line"/>
      <point x="631" y="825" type="line"/>
      <point x="631" y="660" type="line"/>
      <point x="435" y="660" type="line"/>
      <point x="435" y="0" type="line"/>
      <point x="247" y="0" type="line"/>
      <point x="247" y="660" type="line"/>
    </contour>
  </outline>
</glyph>
<glyph name="V" format="1">
  <advance width="927"/>
  <unicode hex="0056"/>
  <outline>
    <contour>
      <point x="389.5" y="0" type="line"/>
      <point x="43.5" y="825" type="line"/>
      <point x="255.5" y="825" type="line"/>
      <point x="463.5" y="283" type="line"/>
      <point x="671.5" y="825" type="line"/>
      <point x="883.5" y="825" type="line"/>
      <point x="537.5" y="0" type="line"/>
    </contour>
  </outline>
</glyph>
<glyph name="W" format="1">
  <advance width="1239"/>
  <unicode hex="0057"/>
  <outline>
    <contour>
      <point x="751.5" y="0" type="line"/>
      <point x="619.5" y="463" type="line"/>
      <point x="487.5" y="0" type="line"/>
      <point x="279.5" y="0" type="line"/>
      <point x="43.5" y="825" type="line"/>
      <point x="253.5" y="825" type="line"/>
      <point x="393.5" y="259" type="line"/>
      <point x="399.5" y="259" type="line"/>
      <point x="549.5" y="825" type="line"/>
      <point x="691.5" y="825" type="line"/>
      <point x="841.5" y="259" type="line"/>
      <point x="845.5" y="259" type="line"/>
      <point x="987.5" y="825" type="line"/>
      <point x="1195.5" y="825" type="line"/>
      <point x="959.5" y="0" type="line"/>
    </contour>
  </outline>
</glyph>
<glyph name="X" format="1">
  <advance width="958"/>
  <unicode hex="0058"/>
  <outline>
    <contour>
      <point x="912" y="825" type="line"/>
      <point x="590" y="418" type="line"/>
      <point x="912" y="0" type="line"/>
      <point x="669" y="0" type="line"/>
      <point x="474" y="262" type="line"/>
      <point x="279" y="0" type="line"/>
      <point x="46" y="0" type="line"/>
      <point x="358" y="418" type="line"/>
      <point x="46" y="825" type="line"/>
      <point x="279" y="825" type="line"/>
      <point x="474" y="581" type="line"/>
      <point x="669" y="825" type="line"/>
    </contour>
  </outline>
</glyph>
<glyph name="Y" format="1">
  <advance width="889"/>
  <unicode hex="0059"/>
  <outline>
    <contour>
      <point x="625.5" y="825" type="line"/>
      <point x="846.5" y="825" type="line"/>
      <point x="551.5" y="319" type="line"/>
      <point x="551.5" y="0" type="line"/>
      <point x="336.5" y="0" type="line"/>
      <point x="336.5" y="319" type="line"/>
      <point x="42.5" y="825" type="line"/>
      <point x="263.5" y="825" type="line"/>
      <point x="445.5" y="501" type="line"/>
    </contour>
  </outline>
</glyph>
<glyph name="bracketleft" format="1">
  <advance width="448"/>
  <unicode hex="005B"/>
  <outline>
    <contour>
      <point x="63" y="860" type="line"/>
      <point x="385" y="860" type="line"/>
      <point x="385" y="743" type="line"/>
      <point x="216" y="743" type="line"/>
      <point x="216" y="-143" type="line"/>
      <point x="385" y="-143" type="line"/>
      <point x="385" y="-260" type="line"/>
      <point x="63" y="-260" type="line"/>
    </contour>
  </outline>
</glyph>
<glyph name="backslash" format="1">
  <advance width="653"/>
  <unicode hex="005C"/>
  <outline>
    <contour>
      <point x="44" y="860" type="line"/>
      <point x="197" y="860" type="line"/>
      <point x="609" y="-120" type="line"/>
      <point x="456" y="-120" type="line"/>
    </contour>
  </outline>
</glyph>
<glyph name="bracketright" format="1">
  <advance width="449"/>
  <unicode hex="005D"/>
  <outline>
    <contour>
      <point x="63.5" y="-143" type="line"/>
      <point x="232.5" y="-143" type="line"/>
      <point x="232.5" y="743" type="line"/>
      <point x="63.5" y="743" type="line"/>
      <point x="63.5" y="860" type="line"/>
      <point x="385.5" y="860" type="line"/>
      <point x="385.5" y="-260" type="line"/>
      <point x="63.5" y="-260" type="line"/>
    </contour>
  </outline>
</glyph>
<glyph name="asciicircum" format="1">
  <advance width="617"/>
  <unicode hex="005E"/>
  <outline>
    <contour>
      <point x="400.5" y="605" type="line"/>
      <point x="308.5" y="714" type="line"/>
      <point x="216.5" y="605" type="line"/>
      <point x="55.5" y="605" type="line"/>
      <point x="262.5" y="840" type="line"/>
      <point x="354.5" y="840" type="line"/>
      <point x="561.5" y="605" type="line"/>
    </contour>
  </outline>
</glyph>
<glyph name="underscore" format="1">
  <advance width="663"/>
  <unicode hex="005F"/>
  <outline>
    <contour>
      <point x="75" y="-15" type="line"/>
      <point x="588" y="-15" type="line"/>
      <point x="588" y="-100" type="line"/>
      <point x="75" y="-100" type="line"/>
    </contour>
  </outline>
</glyph>
<glyph name="grave" format="1">
  <advance width="406"/>
  <unicode hex="0060"/>
  <outline>
    <contour>
      <point x="147" y="840" type="line"/>
      <point x="350" y="664" type="line"/>
      <point x="294" y="587" type="line"/>
      <point x="56" y="725" type="line"/>
    </contour>
  </outline>
</glyph>
<glyph name="a" format="1">
  <advance width="735"/>
  <unicode hex="0061"/>
  <outline>
    <contour>
      <point x="255.5" y="256" type="curve" smooth="yes"/>
      <point x="255.5" y="186"/>
      <point x="303.5" y="136"/>
      <point x="375.5" y="136" type="curve" smooth="yes"/>
      <point x="444.5" y="136"/>
      <point x="494.5" y="186"/>
      <point x="494.5" y="256" type="curve" smooth="yes"/>
      <point x="494.5" y="327"/>
      <point x="441.5" y="377"/>
      <point x="375.5" y="377" type="curve" smooth="yes"/>
      <point x="308.5" y="377"/>
      <point x="255.5" y="327"/>
    </contour>
    <contour>
      <point x="667.5" y="454" type="curve" smooth="yes"/>
      <point x="667.5" y="0" type="line"/>
      <point x="492.5" y="0" type="line"/>
      <point x="492.5" y="58" type="line"/>
      <point x="454.5" y="16"/>
      <point x="392.5" y="-15"/>
      <point x="322.5" y="-15" type="curve" smooth="yes"/>
      <point x="172.5" y="-15"/>
      <point x="67.5" y="106"/>
      <point x="67.5" y="256" type="curve" smooth="yes"/>
      <point x="67.5" y="406"/>
      <point x="172.5" y="528"/>
      <point x="322.5" y="528" type="curve" smooth="yes"/>
      <point x="391.5" y="528"/>
      <point x="667" y="541"/>
    </contour>
  </outline>
</glyph>
<glyph name="d" format="1">
  <advance width="742"/>
  <unicode hex="0064"/>
  <outline>
    <contour>
      <point x="257" y="256" type="curve" smooth="yes"/>
      <point x="257" y="186"/>
      <point x="305" y="136"/>
      <point x="377" y="136" type="curve" smooth="yes"/>
      <point x="437.416" y="136"/>
      <point x="483.265" y="174.333"/>
      <point x="493.738" y="230.86" type="curve"/>
      <point x="493.598" y="281.562" type="line"/>
      <point x="482.559" y="338.709"/>
      <point x="434.757" y="377"/>
      <point x="377" y="377" type="curve" smooth="yes"/>
      <point x="310" y="377"/>
      <point x="257" y="327"/>
    </contour>
    <contour>
      <point x="669" y="0" type="line"/>
      <point x="494" y="0" type="line"/>
      <point x="494" y="58" type="line"/>
      <point x="456" y="16"/>
      <point x="394" y="-15"/>
      <point x="324" y="-15" type="curve" smooth="yes"/>
      <point x="174" y="-15"/>
      <point x="69" y="106"/>
      <point x="69" y="256" type="curve" smooth="yes"/>
      <point x="69" y="406"/>
      <point x="174" y="528"/>
      <point x="324" y="528" type="curve" smooth="yes"/>
      <point x="354.203" y="528"/>
      <point x="423.971" y="530.491"/>
      <point x="492.923" y="525.995" type="curve"/>
      <point x="492" y="860" type="line"/>
      <point x="669" y="860" type="line"/>
    </contour>
  </outline>
</glyph>
<glyph name="f" format="1">
  <advance width="516"/>
  <unicode hex="0066"/>
  <outline>
    <contour>
      <point x="121.5" y="585" type="line"/>
      <point x="122" y="777"/>
      <point x="182.5" y="875"/>
      <point x="322.5" y="875" type="curve" smooth="yes"/>
      <point x="412.5" y="875"/>
      <point x="468.5" y="829"/>
      <point x="468.5" y="829" type="curve"/>
      <point x="406.5" y="704" type="line"/>
      <point x="406.5" y="704"/>
      <point x="382.5" y="718"/>
      <point x="353.5" y="718" type="curve" smooth="yes"/>
      <point x="298.5" y="718"/>
      <point x="298.5" y="653"/>
      <point x="298.5" y="585" type="curve"/>
      <point x="416.5" y="585" type="line"/>
      <point x="416.5" y="450" type="line"/>
      <point x="298.5" y="450" type="line"/>
      <point x="298.5" y="0" type="line"/>
      <point x="121.5" y="0" type="line"/>
      <point x="121.5" y="450" type="line"/>
      <point x="47.5" y="450" type="line"/>
      <point x="47.5" y="585" type="line"/>
    </contour>
  </outline>
</glyph>
<glyph name="g" format="1">
  <advance width="688"/>
  <unicode hex="0067"/>
  <outline>
    <contour>
      <point x="102" y="89.999" type="curve" smooth="yes"/>
      <point x="102" y="142.201"/>
      <point x="147" y="154.999"/>
      <point x="100" y="224.999" type="curve"/>
      <point x="100" y="224.999"/>
      <point x="57" y="283.999"/>
      <point x="57" y="352.999" type="curve" smooth="yes"/>
      <point x="57" y="480.999"/>
      <point x="156.007" y="552.592"/>
      <point x="308" y="553.999" type="curve" smooth="yes"/>
      <point x="416" y="554.999"/>
      <point x="435" y="526.999"/>
      <point x="517" y="508.999" type="curve"/>
      <point x="568.849" y="503.543"/>
      <point x="575.336" y="522.286"/>
      <point x="595" y="534" type="curve"/>
      <point x="633" y="433.999" type="line"/>
      <point x="614" y="397.999"/>
      <point x="552" y="410.999"/>
      <point x="552" y="410.999" type="curve"/>
      <point x="558" y="382.999"/>
      <point x="561.362" y="354.866"/>
      <point x="559" y="333.999" type="curve" smooth="yes"/>
      <point x="553" y="280.999"/>
      <point x="508" y="163.999"/>
      <point x="359" y="157.999" type="curve" smooth="yes"/>
      <point x="276" y="156.999"/>
      <point x="268" y="157.999"/>
      <point x="268" y="141.999" type="curve" smooth="yes"/>
      <point x="268" y="125.999"/>
      <point x="297" y="123.999"/>
      <point x="346" y="123.999" type="curve" smooth="yes"/>
      <point x="542" y="123.999"/>
      <point x="599" y="50.999"/>
      <point x="599" y="-42.001" type="curve" smooth="yes"/>
      <point x="599" y="-155.001"/>
      <point x="496" y="-227.001"/>
      <point x="303" y="-230.001" type="curve" smooth="yes"/>
      <point x="103" y="-233.001"/>
      <point x="73" y="-107.001"/>
      <point x="55" y="3.99902" type="curve"/>
      <point x="147" y="-141.001"/>
      <point x="445" y="-132.001"/>
      <point x="438" y="-51.001" type="curve" smooth="yes"/>
      <point x="434.419" y="-9.5625"/>
      <point x="374" y="-8.00098"/>
      <point x="269" y="-8.00098" type="curve" smooth="yes"/>
      <point x="179" y="-8.00098"/>
      <point x="102" y="29"/>
    </contour>
    <contour>
      <point x="210.5" y="343" type="curve" smooth="yes"/>
      <point x="213.8" y="293"/>
      <point x="257.711" y="258.67"/>
      <point x="309.5" y="264" type="curve" smooth="yes"/>
      <point x="367.8" y="270"/>
      <point x="400.8" y="315"/>
      <point x="397.5" y="365" type="curve" smooth="yes"/>
      <point x="394.2" y="415"/>
      <point x="353.5" y="450"/>
      <point x="298.5" y="444" type="curve" smooth="yes"/>
      <point x="246.752" y="438.354"/>
      <point x="207.2" y="393"/>
    </contour>
  </outline>
</glyph>
<glyph name="h" format="1">
  <advance width="695"/>
  <unicode hex="0068"/>
  <outline>
    <contour>
      <point x="249" y="860" type="line"/>
      <point x="249" y="459" type="line"/>
      <point x="289" y="499"/>
      <point x="342" y="528"/>
      <point x="398" y="528" type="curve" smooth="yes"/>
      <point x="492" y="528"/>
      <point x="623" y="481"/>
      <point x="623" y="338" type="curve" smooth="yes"/>
      <point x="623" y="0" type="line"/>
      <point x="446" y="0" type="line"/>
      <point x="446" y="290" type="line" smooth="yes"/>
      <point x="446" y="341"/>
      <point x="411" y="390"/>
      <point x="354" y="390" type="curve" smooth="yes"/>
      <point x="301" y="390"/>
      <point x="249" y="341"/>
      <point x="249" y="290" type="curve" smooth="yes"/>
      <point x="249" y="0" type="line"/>
      <point x="72" y="0" type="line"/>
      <point x="72" y="860" type="line"/>
    </contour>
  </outline>
</glyph>
<glyph name="i" format="1">
  <advance width="321"/>
  <unicode hex="0069"/>
  <outline>
    <contour>
      <point x="76" y="691" type="curve" smooth="yes"/>
      <point x="76" y="739"/>
      <point x="115" y="779"/>
      <point x="161" y="779" type="curve" smooth="yes"/>
      <point x="207" y="779"/>
      <point x="246" y="739"/>
      <point x="246" y="691" type="curve" smooth="yes"/>
      <point x="246" y="643"/>
      <point x="207" y="603"/>
      <point x="161" y="603" type="curve" smooth="yes"/>
      <point x="115" y="603"/>
      <point x="76" y="643"/>
    </contour>
    <contour>
      <point x="70.5" y="0" type="line"/>
      <point x="70.5" y="526" type="line"/>
      <point x="250.5" y="526" type="line"/>
      <point x="250.5" y="0" type="line"/>
    </contour>
  </outline>
</glyph>
<glyph name="k" format="1">
  <advance width="728"/>
  <unicode hex="006B"/>
  <outline>
    <contour>
      <point x="645" y="513" type="line"/>
      <point x="401" y="268" type="line"/>
      <point x="669" y="0" type="line"/>
      <point x="441" y="0" type="line"/>
      <point x="236" y="205" type="line"/>
      <point x="236" y="0" type="line"/>
      <point x="59" y="0" type="line"/>
      <point x="59" y="860" type="line"/>
      <point x="236" y="860" type="line"/>
      <point x="236" y="334" type="line"/>
      <point x="415" y="513" type="line"/>
    </contour>
  </outline>
</glyph>
<glyph name="l" format="1">
  <advance width="406"/>
  <unicode hex="006C"/>
  <outline>
    <contour>
      <point x="311" y="0" type="curve" smooth="yes"/>
      <point x="181" y="0"/>
      <point x="107.614" y="86"/>
      <point x="107.614" y="225" type="curve" smooth="yes"/>
      <point x="105.614" y="825" type="line"/>
      <point x="281.614" y="825" type="line"/>
      <point x="285.614" y="234" type="line" smooth="yes"/>
      <point x="285.643" y="169.396"/>
      <point x="357.877" y="163.864"/>
      <point x="368.614" y="163" type="curve" smooth="yes"/>
      <point x="399.072" y="160.549"/>
      <point x="341.597" y="0"/>
    </contour>
  </outline>
</glyph>
<glyph name="m" format="1">
  <advance width="1082"/>
  <unicode hex="006D"/>
  <outline>
    <contour>
      <point x="255.5" y="0" type="line"/>
      <point x="71.5" y="0" type="line"/>
      <point x="71.5" y="520" type="line"/>
      <point x="211.5" y="520" type="line"/>
      <point x="211.5" y="491" type="line"/>
      <point x="245.5" y="514"/>
      <point x="291.5" y="528"/>
      <point x="356.5" y="528" type="curve" smooth="yes"/>
      <point x="437.5" y="528"/>
      <point x="495.5" y="526"/>
      <point x="544.5" y="461" type="curve"/>
      <point x="603.5" y="526"/>
      <point x="651.5" y="528"/>
      <point x="732.5" y="528" type="curve" smooth="yes"/>
      <point x="924.5" y="528"/>
      <point x="1010.5" y="459"/>
      <point x="1010.5" y="287" type="curve" smooth="yes"/>
      <point x="1010.5" y="0" type="line"/>
      <point x="833.5" y="0" type="line"/>
      <point x="833.5" y="244" type="line" smooth="yes"/>
      <point x="833.5" y="345"/>
      <point x="806.5" y="384"/>
      <point x="732.5" y="384" type="curve" smooth="yes"/>
      <point x="671.5" y="384"/>
      <point x="642.5" y="358"/>
      <point x="634.5" y="291" type="curve"/>
      <point x="634.5" y="0" type="line"/>
      <point x="454.5" y="0" type="line"/>
      <point x="454.5" y="291" type="line"/>
      <point x="446.5" y="358"/>
      <point x="417.5" y="384"/>
      <point x="356.5" y="384" type="curve" smooth="yes"/>
      <point x="282.5" y="384"/>
      <point x="255.5" y="345"/>
      <point x="255.5" y="244" type="curve" smooth="yes"/>
    </contour>
  </outline>
</glyph>
<glyph name="o" format="1">
  <advance width="675"/>
  <unicode hex="006F"/>
  <outline>
    <contour>
      <point x="219.225" y="256.025" type="curve" smooth="yes"/>
      <point x="219.225" y="194.275"/>
      <point x="273.375" y="140.125"/>
      <point x="337.975" y="140.125" type="curve" smooth="yes"/>
      <point x="402.575" y="140.125"/>
      <point x="455.775" y="194.275"/>
      <point x="455.775" y="256.025" type="curve" smooth="yes"/>
      <point x="455.775" y="317.775"/>
      <point x="402.575" y="372.875"/>
      <point x="337.975" y="372.875" type="curve" smooth="yes"/>
      <point x="273.375" y="372.875"/>
      <point x="219.225" y="317.775"/>
    </contour>
    <contour>
      <point x="61" y="256" type="curve" smooth="yes"/>
      <point x="61" y="401"/>
      <point x="187" y="528"/>
      <point x="339" y="528" type="curve" smooth="yes"/>
      <point x="491" y="528"/>
      <point x="614" y="401"/>
      <point x="614" y="256" type="curve" smooth="yes"/>
      <point x="614" y="111"/>
      <point x="491" y="-15"/>
      <point x="339" y="-15" type="curve" smooth="yes"/>
      <point x="187" y="-15"/>
      <point x="61" y="111"/>
    </contour>
  </outline>
</glyph>
<glyph name="p" format="1">
  <advance width="736"/>
  <unicode hex="0070"/>
  <outline>
    <contour>
      <point x="68" y="-260" type="line"/>
      <point x="68" y="454" type="line" smooth="yes"/>
      <point x="68.0605" y="541"/>
      <point x="344" y="528"/>
      <point x="413" y="528" type="curve" smooth="yes"/>
      <point x="563" y="528"/>
      <point x="668" y="407"/>
      <point x="668" y="257" type="curve" smooth="yes"/>
      <point x="668" y="107"/>
      <point x="563" y="-15"/>
      <point x="413" y="-15" type="curve" smooth="yes"/>
      <point x="382.797" y="-15"/>
      <point x="313.029" y="-17.4912"/>
      <point x="244.077" y="-12.9951" type="curve"/>
      <point x="245" y="-260" type="line"/>
    </contour>
    <contour>
      <point x="480" y="257" type="curve" smooth="yes"/>
      <point x="480" y="327"/>
      <point x="432" y="377"/>
      <point x="360" y="377" type="curve" smooth="yes"/>
      <point x="299.584" y="377"/>
      <point x="253.735" y="338.667"/>
      <point x="243.262" y="282.14" type="curve"/>
      <point x="243.402" y="231.438" type="line"/>
      <point x="254.441" y="174.291"/>
      <point x="302.243" y="136"/>
      <point x="360" y="136" type="curve" smooth="yes"/>
      <point x="427" y="136"/>
      <point x="480" y="186"/>
    </contour>
  </outline>
</glyph>
<glyph name="q" format="1">
  <advance width="736"/>
  <unicode hex="0071"/>
  <outline>
    <contour>
      <point x="668" y="-260" type="line"/>
      <point x="491" y="-260" type="line"/>
      <point x="491.923" y="-12.9951" type="line"/>
      <point x="422.971" y="-17.4912"/>
      <point x="353.203" y="-15"/>
      <point x="323" y="-15" type="curve" smooth="yes"/>
      <point x="173" y="-15"/>
      <point x="68" y="107"/>
      <point x="68" y="257" type="curve" smooth="yes"/>
      <point x="68" y="407"/>
      <point x="173" y="528"/>
      <point x="323" y="528" type="curve" smooth="yes"/>
      <point x="392" y="528"/>
      <point x="667.939" y="541"/>
      <point x="668" y="454" type="curve" smooth="yes"/>
    </contour>
    <contour>
      <point x="256" y="257" type="curve" smooth="yes"/>
      <point x="256" y="186"/>
      <point x="309" y="136"/>
      <point x="376" y="136" type="curve" smooth="yes"/>
      <point x="433.757" y="136"/>
      <point x="481.559" y="174.291"/>
      <point x="492.598" y="231.438" type="curve"/>
      <point x="492.738" y="282.14" type="line"/>
      <point x="482.265" y="338.667"/>
      <point x="436.416" y="377"/>
      <point x="376" y="377" type="curve" smooth="yes"/>
      <point x="304" y="377"/>
      <point x="256" y="327"/>
    </contour>
  </outline>
</glyph>
<glyph name="r" format="1">
  <advance width="573"/>
  <unicode hex="0072"/>
  <outline>
    <contour>
      <point x="239.5" y="513" type="line"/>
      <point x="239.5" y="439" type="line"/>
      <point x="239.5" y="439"/>
      <point x="297.5" y="528"/>
      <point x="398.5" y="528" type="curve" smooth="yes"/>
      <point x="464.5" y="528"/>
      <point x="510.5" y="496"/>
      <point x="510.5" y="496" type="curve"/>
      <point x="436.5" y="346" type="line"/>
      <point x="436.5" y="346"/>
      <point x="403.5" y="374"/>
      <point x="344.5" y="374" type="curve" smooth="yes"/>
      <point x="252.5" y="374"/>
      <point x="239.5" y="283"/>
      <point x="239.5" y="270" type="curve" smooth="yes"/>
      <point x="239.5" y="0" type="line"/>
      <point x="62.5" y="0" type="line"/>
      <point x="62.5" y="513" type="line"/>
    </contour>
  </outline>
</glyph>
<glyph name="t" format="1">
  <advance width="487"/>
  <unicode hex="0074"/>
  <outline>
    <contour>
      <point x="128" y="513" type="line"/>
      <point x="128" y="704" type="line"/>
      <point x="305" y="704" type="line"/>
      <point x="305" y="513" type="line"/>
      <point x="413" y="513" type="line"/>
      <point x="413" y="378" type="line"/>
      <point x="305" y="378" type="line"/>
      <point x="305" y="215" type="line" smooth="yes"/>
      <point x="305" y="167"/>
      <point x="317" y="144"/>
      <point x="345" y="144" type="curve" smooth="yes"/>
      <point x="368" y="144"/>
      <point x="389" y="160"/>
      <point x="389" y="160" type="curve"/>
      <point x="433" y="17" type="line"/>
      <point x="433" y="17"/>
      <point x="376" y="-15"/>
      <point x="303" y="-15" type="curve" smooth="yes"/>
      <point x="162" y="-15"/>
      <point x="128" y="90"/>
      <point x="128" y="181" type="curve" smooth="yes"/>
      <point x="128" y="378" type="line"/>
      <point x="54" y="378" type="line"/>
      <point x="54" y="513" type="line"/>
    </contour>
  </outline>
</glyph>
<glyph name="u" format="1">
  <advance width="694"/>
  <unicode hex="0075"/>
  <outline>
    <contour>
      <point x="246" y="513" type="line"/>
      <point x="246" y="269" type="line" smooth="yes"/>
      <point x="246" y="168"/>
      <point x="273" y="129"/>
      <point x="347" y="129" type="curve" smooth="yes"/>
      <point x="421" y="129"/>
      <point x="448" y="168"/>
      <point x="448" y="269" type="curve" smooth="yes"/>
      <point x="448" y="513" type="line"/>
      <point x="625" y="513" type="line"/>
      <point x="625" y="226" type="line" smooth="yes"/>
      <point x="625" y="54"/>
      <point x="539" y="-15"/>
      <point x="347" y="-15" type="curve" smooth="yes"/>
      <point x="155" y="-15"/>
      <point x="69" y="54"/>
      <point x="69" y="226" type="curve" smooth="yes"/>
      <point x="69" y="513" type="line"/>
    </contour>
  </outline>
</glyph>
<glyph name="w" format="1">
  <advance width="1123"/>
  <unicode hex="0077"/>
  <outline>
    <contour>
      <point x="443.5" y="0" type="line"/>
      <point x="323.5" y="0" type="line"/>
      <point x="48.5" y="513" type="line"/>
      <point x="252.5" y="513" type="line"/>
      <point x="377.5" y="236" type="line"/>
      <point x="500.5" y="513" type="line"/>
      <point x="622.5" y="513" type="line"/>
      <point x="745.5" y="236" type="line"/>
      <point x="870.5" y="513" type="line"/>
      <point x="1074.5" y="513" type="line"/>
      <point x="799.5" y="0" type="line"/>
      <point x="679.5" y="0" type="line"/>
      <point x="561.5" y="265" type="line"/>
    </contour>
  </outline>
</glyph>
<glyph name="x" format="1">
  <advance width="744"/>
  <unicode hex="0078"/>
  <outline>
    <contour>
      <point x="699" y="0" type="line"/>
      <point x="485" y="0" type="line"/>
      <point x="372" y="145" type="line"/>
      <point x="259" y="0" type="line"/>
      <point x="45" y="0" type="line"/>
      <point x="264" y="268" type="line"/>
      <point x="76" y="513" type="line"/>
      <point x="283" y="513" type="line"/>
      <point x="372" y="394" type="line"/>
      <point x="461" y="513" type="line"/>
      <point x="668" y="513" type="line"/>
      <point x="480" y="268" type="line"/>
    </contour>
  </outline>
</glyph>
<glyph name="z" format="1">
  <advance width="648"/>
  <unicode hex="007A"/>
  <outline>
    <contour>
      <point x="599.5" y="513" type="line"/>
      <point x="345.5" y="135" type="line"/>
      <point x="579.5" y="135" type="line"/>
      <point x="579.5" y="0" type="line"/>
      <point x="48.5" y="0" type="line"/>
      <point x="302.5" y="378" type="line"/>
      <point x="90.5" y="378" type="line"/>
      <point x="90.5" y="513" type="line"/>
    </contour>
  </outline>
</glyph>
<glyph name="braceleft" format="1">
  <advance width="432"/>
  <unicode hex="007B"/>
  <outline>
    <contour>
      <point x="123" y="188" type="curve" smooth="yes"/>
      <point x="123" y="234"/>
      <point x="96" y="253"/>
      <point x="53" y="253" type="curve"/>
      <point x="53" y="347" type="line"/>
      <point x="96" y="347"/>
      <point x="123" y="366"/>
      <point x="123" y="412" type="curve" smooth="yes"/>
      <point x="123" y="774"/>
      <point x="106" y="860"/>
      <point x="379" y="860" type="curve"/>
      <point x="379" y="732" type="line"/>
      <point x="263" y="732"/>
      <point x="276" y="694"/>
      <point x="276" y="407" type="curve" smooth="yes"/>
      <point x="276" y="350"/>
      <point x="249" y="318"/>
      <point x="215" y="300" type="curve"/>
      <point x="249" y="282"/>
      <point x="276" y="249"/>
      <point x="276" y="193" type="curve" smooth="yes"/>
      <point x="276" y="-94"/>
      <point x="263" y="-132"/>
      <point x="379" y="-132" type="curve"/>
      <point x="379" y="-260" type="line"/>
      <point x="106" y="-260"/>
      <point x="123" y="-174"/>
    </contour>
  </outline>
</glyph>
<glyph name="braceright" format="1">
  <advance width="432"/>
  <unicode hex="007D"/>
  <outline>
    <contour>
      <point x="309" y="188" type="curve" smooth="yes"/>
      <point x="309" y="-174"/>
      <point x="326" y="-260"/>
      <point x="53" y="-260" type="curve"/>
      <point x="53" y="-132" type="line"/>
      <point x="169" y="-132"/>
      <point x="156" y="-94"/>
      <point x="156" y="193" type="curve" smooth="yes"/>
      <point x="156" y="249"/>
      <point x="183" y="282"/>
      <point x="217" y="300" type="curve"/>
      <point x="183" y="318"/>
      <point x="156" y="350"/>
      <point x="156" y="407" type="curve" smooth="yes"/>
      <point x="156" y="694"/>
      <point x="169" y="732"/>
      <point x="53" y="732" type="curve"/>
      <point x="53" y="860" type="line"/>
      <point x="326" y="860"/>
      <point x="309" y="774"/>
      <point x="309" y="412" type="curve" smooth="yes"/>
      <point x="309" y="366"/>
      <point x="336" y="347"/>
      <point x="379" y="347" type="curve"/>
      <point x="379" y="253" type="line"/>
      <point x="336" y="253"/>
      <point x="309" y="234"/>
    </contour>
  </outline>
</glyph>
<glyph name="asciitilde" format="1">
  <advance width="691"/>
  <unicode hex="007E"/>
  <outline>
    <contour>
      <point x="455.5" y="303" type="curve" smooth="yes"/>
      <point x="352.253" y="303"/>
      <point x="297.5" y="388"/>
      <point x="235.5" y="388" type="curve" smooth="yes"/>
      <point x="177.5" y="388"/>
      <point x="151.5" y="310"/>
      <point x="151.5" y="310" type="curve"/>
      <point x="58.5" y="391" type="line"/>
      <point x="58.5" y="391"/>
      <point x="123.5" y="528"/>
      <point x="235.5" y="528" type="curve" smooth="yes"/>
      <point x="302.5" y="528"/>
      <point x="410.723" y="443"/>
      <point x="455.5" y="443" type="curve" smooth="yes"/>
      <point x="513.5" y="443"/>
      <point x="539.5" y="521"/>
      <point x="539.5" y="521" type="curve"/>
      <point x="632.5" y="440" type="line"/>
      <point x="632.5" y="440"/>
      <point x="567.5" y="303"/>
    </contour>
  </outline>
</glyph>
<glyph name="exclamdown" format="1">
  <advance width="303"/>
  <unicode hex="00A1"/>
  <outline>
    <contour>
      <point x="63" y="-260" type="line"/>
      <point x="87" y="330" type="line"/>
      <point x="216" y="330" type="line"/>
      <point x="240" y="-260" type="line"/>
    </contour>
    <contour>
      <point x="69" y="468" type="curve" smooth="yes"/>
      <point x="69" y="516"/>
      <point x="108" y="556"/>
      <point x="154" y="556" type="curve" smooth="yes"/>
      <point x="200" y="556"/>
      <point x="239" y="516"/>
      <point x="239" y="468" type="curve" smooth="yes"/>
      <point x="239" y="420"/>
      <point x="200" y="380"/>
      <point x="154" y="380" type="curve" smooth="yes"/>
      <point x="108" y="380"/>
      <point x="69" y="420"/>
    </contour>
  </outline>
</glyph>
<glyph name="cent" format="1">
  <advance width="568"/>
  <unicode hex="00A2"/>
  <outline>
    <contour>
      <point x="281" y="-129" type="line"/>
      <point x="281" y="-8" type="line"/>
      <point x="158" y="18"/>
      <point x="56" y="125"/>
      <point x="56" y="255" type="curve" smooth="yes"/>
      <point x="56" y="375"/>
      <point x="141" y="477"/>
      <point x="251" y="513" type="curve"/>
      <point x="251" y="636" type="line"/>
      <point x="359" y="636" type="line"/>
      <point x="359" y="527" type="line"/>
      <point x="460" y="522"/>
      <point x="512" y="480"/>
      <point x="512" y="480" type="curve"/>
      <point x="452" y="359" type="line"/>
      <point x="452" y="359"/>
      <point x="419" y="383"/>
      <point x="366" y="383" type="curve" smooth="yes"/>
      <point x="299" y="383"/>
      <point x="244" y="327"/>
      <point x="244" y="257" type="curve" smooth="yes"/>
      <point x="244" y="186"/>
      <point x="299" y="130"/>
      <point x="366" y="130" type="curve" smooth="yes"/>
      <point x="419" y="130"/>
      <point x="452" y="154"/>
      <point x="452" y="154" type="curve"/>
      <point x="512" y="31" type="line"/>
      <point x="512" y="31"/>
      <point x="469" y="-1"/>
      <point x="389" y="-12" type="curve"/>
      <point x="389" y="-129" type="line"/>
    </contour>
  </outline>
</glyph>
<glyph name="sterling" format="1">
  <advance width="763"/>
  <unicode hex="00A3"/>
  <outline>
    <contour>
      <point x="359.5" y="164" type="curve" smooth="yes"/>
      <point x="373.71" y="148.25"/>
      <point x="431.5" y="129"/>
      <point x="505.5" y="129" type="curve" smooth="yes"/>
      <point x="562.5" y="129"/>
      <point x="572.5" y="201"/>
      <point x="572.5" y="201" type="curve"/>
      <point x="709.5" y="133" type="line"/>
      <point x="709.5" y="133"/>
      <point x="686.5" y="-15"/>
      <point x="526.5" y="-15" type="curve" smooth="yes"/>
      <point x="402.5" y="-15"/>
      <point x="309.5" y="43"/>
      <point x="215.5" y="43" type="curve" smooth="yes"/>
      <point x="174.5" y="43"/>
      <point x="168.5" y="0"/>
      <point x="168.5" y="0" type="curve"/>
      <point x="53.5" y="0" type="line"/>
      <point x="53.5" y="54"/>
      <point x="109.5" y="178"/>
      <point x="199.5" y="178" type="curve" smooth="yes"/>
      <point x="237.333" y="178"/>
      <point x="207.5" y="259"/>
      <point x="191.5" y="289" type="curve"/>
      <point x="53.5" y="289" type="line"/>
      <point x="53.5" y="387" type="line"/>
      <point x="155.5" y="387" type="line"/>
      <point x="127.5" y="431"/>
      <point x="103.5" y="483"/>
      <point x="103.5" y="558" type="curve" smooth="yes"/>
      <point x="103.5" y="714"/>
      <point x="199.5" y="841"/>
      <point x="384.5" y="841" type="curve" smooth="yes"/>
      <point x="618.5" y="841"/>
      <point x="658.5" y="651"/>
      <point x="658.5" y="651" type="curve"/>
      <point x="500.5" y="574" type="line"/>
      <point x="500.5" y="574"/>
      <point x="481.5" y="689"/>
      <point x="384.5" y="689" type="curve" smooth="yes"/>
      <point x="322.5" y="689"/>
      <point x="289.5" y="634"/>
      <point x="289.5" y="558" type="curve" smooth="yes"/>
      <point x="289.5" y="476"/>
      <point x="315.5" y="436"/>
      <point x="337.5" y="387" type="curve"/>
      <point x="510.5" y="387" type="line"/>
      <point x="510.5" y="289" type="line"/>
      <point x="356.5" y="289" type="line"/>
      <point x="334.574" y="239.446"/>
      <point x="339.763" y="185.876"/>
    </contour>
  </outline>
</glyph>
<glyph name="currency" format="1">
  <advance width="888"/>
  <unicode hex="00A4"/>
  <outline>
    <contour>
      <point x="268.975" y="412.151" type="curve" smooth="yes"/>
      <point x="268.975" y="310.151"/>
      <point x="323.375" y="203.052"/>
      <point x="450.025" y="203.052" type="curve" smooth="yes"/>
      <point x="577.525" y="203.052"/>
      <point x="630.225" y="307.602"/>
      <point x="630.225" y="412.151" type="curve" smooth="yes"/>
      <point x="630.225" y="516.701"/>
      <point x="574.125" y="621.251"/>
      <point x="450.025" y="621.251" type="curve" smooth="yes"/>
      <point x="326.775" y="621.251"/>
      <point x="268.975" y="516.701"/>
    </contour>
    <contour>
      <point x="837.539" y="121.141" type="line"/>
      <point x="752.867" y="24.1387" type="line"/>
      <point x="656.264" y="113.757" type="line"/>
      <point x="599.055" y="72.3662"/>
      <point x="528.328" y="48.3516"/>
      <point x="450.027" y="48.3516" type="curve" smooth="yes"/>
      <point x="375.229" y="48.3516"/>
      <point x="308.391" y="69.0254"/>
      <point x="253.5" y="105.07" type="curve"/>
      <point x="168.611" y="13.5645" type="line"/>
      <point x="71.6094" y="98.2363" type="line"/>
      <point x="161.49" y="195.124" type="line"/>
      <point x="119.941" y="255.222"/>
      <point x="96.4258" y="329.995"/>
      <point x="96.4258" y="412.15" type="curve" smooth="yes"/>
      <point x="96.4258" y="482.611"/>
      <point x="115.434" y="547.541"/>
      <point x="148.223" y="602.409" type="curve"/>
      <point x="49.9844" y="693.544" type="line"/>
      <point x="134.656" y="790.547" type="line"/>
      <point x="233.021" y="699.296" type="line"/>
      <point x="293.236" y="747.061"/>
      <point x="368.766" y="775.102"/>
      <point x="450.025" y="775.102" type="curve" smooth="yes"/>
      <point x="526.52" y="775.102"/>
      <point x="597.367" y="750.686"/>
      <point x="655.195" y="708.611" type="curve"/>
      <point x="741.014" y="801.119" type="line"/>
      <point x="838.016" y="716.446" type="line"/>
      <point x="743.844" y="614.935" type="line"/>
      <point x="781.07" y="557.534"/>
      <point x="802.775" y="488.052"/>
      <point x="802.775" y="412.151" type="curve" smooth="yes"/>
      <point x="802.775" y="335.509"/>
      <point x="781.596" y="265.291"/>
      <point x="744.535" y="207.419" type="curve"/>
    </contour>
  </outline>
</glyph>
<glyph name="yen" format="1">
  <advance width="895"/>
  <unicode hex="00A5"/>
  <outline>
    <contour>
      <point x="629" y="825" type="line"/>
      <point x="849" y="825" type="line"/>
      <point x="618" y="428" type="line"/>
      <point x="700" y="428" type="line"/>
      <point x="700" y="298" type="line"/>
      <point x="555" y="298" type="line"/>
      <point x="555" y="237" type="line"/>
      <point x="700" y="237" type="line"/>
      <point x="700" y="107" type="line"/>
      <point x="555" y="107" type="line"/>
      <point x="555" y="0" type="line"/>
      <point x="340" y="0" type="line"/>
      <point x="340" y="107" type="line"/>
      <point x="201" y="107" type="line"/>
      <point x="201" y="237" type="line"/>
      <point x="340" y="237" type="line"/>
      <point x="340" y="298" type="line"/>
      <point x="201" y="298" type="line"/>
      <point x="201" y="428" type="line"/>
      <point x="277" y="428" type="line"/>
      <point x="46" y="825" type="line"/>
      <point x="266" y="825" type="line"/>
      <point x="448" y="501" type="line"/>
    </contour>
  </outline>
</glyph>
<glyph name="brokenbar" format="1">
  <advance width="297"/>
  <unicode hex="00A6"/>
  <outline>
    <contour>
      <point x="72" y="0" type="line"/>
      <point x="72" y="332" type="line"/>
      <point x="225" y="332" type="line"/>
      <point x="225" y="0" type="line"/>
    </contour>
    <contour>
      <point x="72" y="528" type="line"/>
      <point x="72" y="860" type="line"/>
      <point x="225" y="860" type="line"/>
      <point x="225" y="528" type="line"/>
    </contour>
  </outline>
</glyph>
<glyph name="section" format="1">
  <advance width="699"/>
  <unicode hex="00A7"/>
  <outline>
    <contour>
      <point x="391" y="176" type="curve" smooth="yes"/>
      <point x="433.289" y="153.986"/>
      <point x="481" y="219"/>
      <point x="480" y="260" type="curve"/>
      <point x="471" y="312"/>
      <point x="360.651" y="364.131"/>
      <point x="307" y="389" type="curve" smooth="yes"/>
      <point x="258.852" y="411.318"/>
      <point x="210" y="352"/>
      <point x="219" y="305" type="curve"/>
      <point x="222" y="256"/>
      <point x="318" y="214"/>
    </contour>
    <contour>
      <point x="320" y="-275" type="curve" smooth="yes"/>
      <point x="87" y="-275"/>
      <point x="55" y="-84"/>
      <point x="55" y="-84" type="curve"/>
      <point x="215" y="-50" type="line"/>
      <point x="215" y="-50"/>
      <point x="238" y="-127"/>
      <point x="320" y="-127" type="curve" smooth="yes"/>
      <point x="381" y="-127"/>
      <point x="402" y="-101"/>
      <point x="402" y="-72" type="curve" smooth="yes"/>
      <point x="402" y="-31"/>
      <point x="339" y="-2"/>
      <point x="252" y="38" type="curve" smooth="yes"/>
      <point x="131" y="95"/>
      <point x="55" y="162"/>
      <point x="55" y="276" type="curve"/>
      <point x="59" y="351"/>
      <point x="106" y="419"/>
      <point x="189" y="456" type="curve"/>
      <point x="129" y="499"/>
      <point x="100" y="549"/>
      <point x="100" y="631" type="curve" smooth="yes"/>
      <point x="100" y="739"/>
      <point x="178" y="840"/>
      <point x="358" y="840" type="curve" smooth="yes"/>
      <point x="571" y="840"/>
      <point x="599" y="661"/>
      <point x="599" y="661" type="curve"/>
      <point x="439" y="627" type="line"/>
      <point x="439" y="627"/>
      <point x="434" y="692"/>
      <point x="358" y="692" type="curve" smooth="yes"/>
      <point x="316" y="692"/>
      <point x="295" y="668"/>
      <point x="295" y="637" type="curve" smooth="yes"/>
      <point x="295" y="597"/>
      <point x="360" y="567"/>
      <point x="447" y="527" type="curve" smooth="yes"/>
      <point x="568" y="470"/>
      <point x="644" y="403"/>
      <point x="644" y="289" type="curve"/>
      <point x="640" y="214"/>
      <point x="593" y="146"/>
      <point x="510" y="109" type="curve"/>
      <point x="569" y="65"/>
      <point x="599" y="15"/>
      <point x="599" y="-66" type="curve" smooth="yes"/>
      <point x="599" y="-152"/>
      <point x="540" y="-275"/>
    </contour>
  </outline>
</glyph>
<glyph name="copyright" format="1">
  <advance width="973"/>
  <unicode hex="00A9"/>
  <outline>
    <contour>
      <point x="526" y="516" type="curve" smooth="yes"/>
      <point x="472" y="516"/>
      <point x="428" y="471"/>
      <point x="428" y="415" type="curve" smooth="yes"/>
      <point x="428" y="357"/>
      <point x="472" y="313"/>
      <point x="526" y="313" type="curve" smooth="yes"/>
      <point x="564" y="313"/>
      <point x="587" y="326"/>
      <point x="592" y="329" type="curve"/>
      <point x="607" y="297"/>
      <point x="621" y="271"/>
      <point x="636" y="239" type="curve"/>
      <point x="636" y="239"/>
      <point x="582" y="206"/>
      <point x="505" y="206" type="curve" smooth="yes"/>
      <point x="392" y="206"/>
      <point x="287" y="298"/>
      <point x="287" y="413" type="curve" smooth="yes"/>
      <point x="287" y="530"/>
      <point x="392" y="624"/>
      <point x="505" y="624" type="curve" smooth="yes"/>
      <point x="590" y="624"/>
      <point x="633" y="592"/>
      <point x="636" y="589" type="curve"/>
      <point x="593" y="500" type="line"/>
      <point x="593" y="500"/>
      <point x="559" y="516"/>
    </contour>
    <contour>
      <point x="173" y="412" type="curve" smooth="yes"/>
      <point x="173" y="240"/>
      <point x="314" y="99"/>
      <point x="486" y="99" type="curve" smooth="yes"/>
      <point x="659" y="99"/>
      <point x="800" y="240"/>
      <point x="800" y="412" type="curve" smooth="yes"/>
      <point x="800" y="585"/>
      <point x="659" y="726"/>
      <point x="486" y="726" type="curve" smooth="yes"/>
      <point x="314" y="726"/>
      <point x="173" y="585"/>
    </contour>
    <contour>
      <point x="59" y="412" type="curve" smooth="yes"/>
      <point x="59" y="648"/>
      <point x="251" y="840"/>
      <point x="486" y="840" type="curve" smooth="yes"/>
      <point x="722" y="840"/>
      <point x="914" y="648"/>
      <point x="914" y="412" type="curve" smooth="yes"/>
      <point x="914" y="177"/>
      <point x="722" y="-15"/>
      <point x="486" y="-15" type="curve" smooth="yes"/>
      <point x="251" y="-15"/>
      <point x="59" y="177"/>
    </contour>
  </outline>
</glyph>
<glyph name="ordfeminine" format="1">
  <advance width="500"/>
  <unicode hex="00AA"/>
  <outline>
    <contour>
      <point x="181" y="671" type="curve" smooth="yes"/>
      <point x="181" y="628"/>
      <point x="211" y="597"/>
      <point x="255" y="597" type="curve" smooth="yes"/>
      <point x="298" y="597"/>
      <point x="329" y="628"/>
      <point x="329" y="671" type="curve" smooth="yes"/>
      <point x="329" y="715"/>
      <point x="296" y="746"/>
      <point x="255" y="746" type="curve" smooth="yes"/>
      <point x="214" y="746"/>
      <point x="181" y="715"/>
    </contour>
    <contour>
      <point x="328" y="513" type="line"/>
      <point x="328" y="549" type="line"/>
      <point x="304" y="523"/>
      <point x="266" y="504"/>
      <point x="222" y="504" type="curve" smooth="yes"/>
      <point x="129" y="504"/>
      <point x="64" y="579"/>
      <point x="64" y="671" type="curve" smooth="yes"/>
      <point x="64" y="764"/>
      <point x="129" y="840"/>
      <point x="222" y="840" type="curve" smooth="yes"/>
      <point x="265" y="840"/>
      <point x="300" y="825"/>
      <point x="327" y="800" type="curve"/>
      <point x="327" y="830" type="line"/>
      <point x="436" y="830" type="line"/>
      <point x="436" y="513" type="line"/>
    </contour>
  </outline>
</glyph>
<glyph name="guillemotleft" format="1">
  <advance width="649"/>
  <unicode hex="00AB"/>
  <outline>
    <contour>
      <point x="500.5" y="28" type="line"/>
      <point x="305.5" y="278" type="line"/>
      <point x="500.5" y="528" type="line"/>
      <point x="593.5" y="455" type="line"/>
      <point x="455.5" y="278" type="line"/>
      <point x="593.5" y="101" type="line"/>
    </contour>
    <contour>
      <point x="250.5" y="28" type="line"/>
      <point x="55.5" y="278" type="line"/>
      <point x="250.5" y="528" type="line"/>
      <point x="343.5" y="455" type="line"/>
      <point x="205.5" y="278" type="line"/>
      <point x="343.5" y="101" type="line"/>
    </contour>
  </outline>
</glyph>
<glyph name="uni00AD" format="1">
  <advance width="392"/>
  <unicode hex="00AD"/>
  <outline>
    <contour>
      <point x="67.2002" y="385" type="line"/>
      <point x="324.8" y="385" type="line"/>
      <point x="324.8" y="232" type="line"/>
      <point x="67.2002" y="232" type="line"/>
    </contour>
  </outline>
</glyph>
<glyph name="registered" format="1">
  <advance width="567"/>
  <unicode hex="00AE"/>
  <outline>
    <contour>
      <point x="261.5" y="628" type="line"/>
      <point x="267.5" y="628" type="line" smooth="yes"/>
      <point x="284.5" y="628"/>
      <point x="304.5" y="630"/>
      <point x="304.5" y="655" type="curve" smooth="yes"/>
      <point x="304.5" y="681"/>
      <point x="284.5" y="683"/>
      <point x="267.5" y="683" type="curve" smooth="yes"/>
      <point x="261.5" y="683" type="line"/>
    </contour>
    <contour>
      <point x="214.5" y="720" type="line"/>
      <point x="287.5" y="720" type="line" smooth="yes"/>
      <point x="326.5" y="720"/>
      <point x="355.5" y="699"/>
      <point x="355.5" y="659" type="curve" smooth="yes"/>
      <point x="355.5" y="627"/>
      <point x="338.5" y="608"/>
      <point x="313.5" y="599" type="curve"/>
      <point x="386.5" y="513" type="line"/>
      <point x="324.5" y="513" type="line"/>
      <point x="261.5" y="595" type="line"/>
      <point x="261.5" y="513" type="line"/>
      <point x="214.5" y="513" type="line"/>
    </contour>
    <contour>
      <point x="119.5" y="615" type="curve" smooth="yes"/>
      <point x="119.5" y="525"/>
      <point x="193.5" y="452"/>
      <point x="282.5" y="452" type="curve" smooth="yes"/>
      <point x="374.5" y="452"/>
      <point x="447.5" y="525"/>
      <point x="447.5" y="615" type="curve" smooth="yes"/>
      <point x="447.5" y="706"/>
      <point x="374.5" y="780"/>
      <point x="282.5" y="780" type="curve" smooth="yes"/>
      <point x="193.5" y="780"/>
      <point x="119.5" y="706"/>
    </contour>
    <contour>
      <point x="59.5" y="615" type="curve" smooth="yes"/>
      <point x="59.5" y="739"/>
      <point x="160.5" y="840"/>
      <point x="282.5" y="840" type="curve" smooth="yes"/>
      <point x="407.5" y="840"/>
      <point x="507.5" y="739"/>
      <point x="507.5" y="615" type="curve" smooth="yes"/>
      <point x="507.5" y="492"/>
      <point x="407.5" y="392"/>
      <point x="282.5" y="392" type="curve" smooth="yes"/>
      <point x="160.5" y="392"/>
      <point x="59.5" y="492"/>
    </contour>
  </outline>
</glyph>
<glyph name="macron" format="1">
  <advance width="539"/>
  <unicode hex="00AF"/>
  <outline>
    <contour>
      <point x="65.5" y="754" type="line"/>
      <point x="473.5" y="754" type="line"/>
      <point x="473.5" y="634" type="line"/>
      <point x="65.5" y="634" type="line"/>
    </contour>
  </outline>
</glyph>
<glyph name="degree" format="1">
  <advance width="352"/>
  <unicode hex="00B0"/>
  <outline>
    <contour>
      <point x="133" y="772" type="curve" smooth="yes"/>
      <point x="133" y="747"/>
      <point x="150" y="726"/>
      <point x="176" y="726" type="curve" smooth="yes"/>
      <point x="201" y="726"/>
      <point x="220" y="747"/>
      <point x="220" y="772" type="curve" smooth="yes"/>
      <point x="220" y="798"/>
      <point x="201" y="817"/>
      <point x="176" y="817" type="curve" smooth="yes"/>
      <point x="152" y="817"/>
      <point x="133" y="798"/>
    </contour>
    <contour>
      <point x="60" y="772" type="curve" smooth="yes"/>
      <point x="60" y="833"/>
      <point x="111" y="875"/>
      <point x="176" y="875" type="curve" smooth="yes"/>
      <point x="241" y="875"/>
      <point x="292" y="833"/>
      <point x="292" y="772" type="curve" smooth="yes"/>
      <point x="292" y="712"/>
      <point x="244" y="669"/>
      <point x="176" y="669" type="curve" smooth="yes"/>
      <point x="107" y="669"/>
      <point x="60" y="712"/>
    </contour>
  </outline>
</glyph>
<glyph name="plusminus" format="1">
  <advance width="645"/>
  <unicode hex="00B1"/>
  <outline>
    <contour>
      <point x="66" y="153" type="line"/>
      <point x="579" y="153" type="line"/>
      <point x="579" y="0" type="line"/>
      <point x="66" y="0" type="line"/>
    </contour>
    <contour>
      <point x="399" y="208" type="line"/>
      <point x="246" y="208" type="line"/>
      <point x="246" y="363" type="line"/>
      <point x="66" y="363" type="line"/>
      <point x="66" y="516" type="line"/>
      <point x="246" y="516" type="line"/>
      <point x="246" y="671" type="line"/>
      <point x="399" y="671" type="line"/>
      <point x="399" y="516" type="line"/>
      <point x="579" y="516" type="line"/>
      <point x="579" y="363" type="line"/>
      <point x="399" y="363" type="line"/>
    </contour>
  </outline>
</glyph>
<glyph name="uni00B2" format="1">
  <advance width="373"/>
  <unicode hex="00B2"/>
  <outline>
    <contour>
      <point x="181" y="778" type="curve" smooth="yes"/>
      <point x="146" y="778"/>
      <point x="124" y="717"/>
      <point x="124" y="717" type="curve"/>
      <point x="63" y="747" type="line"/>
      <point x="63" y="747"/>
      <point x="94" y="840"/>
      <point x="181" y="840" type="curve" smooth="yes"/>
      <point x="292" y="840"/>
      <point x="306" y="768"/>
      <point x="306" y="727" type="curve" smooth="yes"/>
      <point x="306" y="652"/>
      <point x="193" y="577"/>
      <point x="193" y="577" type="curve"/>
      <point x="312" y="577" type="line"/>
      <point x="312" y="513" type="line"/>
      <point x="61" y="513" type="line"/>
      <point x="61" y="531" type="line"/>
      <point x="61" y="531"/>
      <point x="227" y="668"/>
      <point x="227" y="727" type="curve" smooth="yes"/>
      <point x="227" y="739"/>
      <point x="224" y="778"/>
    </contour>
  </outline>
</glyph>
<glyph name="uni00B3" format="1">
  <advance width="350"/>
  <unicode hex="00B3"/>
  <outline>
    <contour>
      <point x="73.9004" y="769.12" type="line"/>
      <point x="73.9004" y="769.12"/>
      <point x="89.8604" y="837.9"/>
      <point x="177.641" y="837.9" type="curve" smooth="yes"/>
      <point x="237.3" y="837.9"/>
      <point x="280.62" y="799.9"/>
      <point x="280.62" y="746.7" type="curve" smooth="yes"/>
      <point x="280.62" y="720.86"/>
      <point x="269.98" y="701.101"/>
      <point x="252.88" y="687.8" type="curve"/>
      <point x="277.2" y="672.98"/>
      <point x="292.78" y="649.04"/>
      <point x="292.78" y="615.98" type="curve" smooth="yes"/>
      <point x="292.78" y="555.94"/>
      <point x="243.76" y="513"/>
      <point x="176.5" y="513" type="curve" smooth="yes"/>
      <point x="79.9805" y="513"/>
      <point x="58.7002" y="590.141"/>
      <point x="58.7002" y="590.141" type="curve"/>
      <point x="124.82" y="622.44" type="line"/>
      <point x="124.82" y="622.44"/>
      <point x="129" y="574.561"/>
      <point x="176.12" y="574.561" type="curve" smooth="yes"/>
      <point x="242.439" y="574.561"/>
      <point x="260.101" y="662.72"/>
      <point x="162.44" y="659.681" type="curve"/>
      <point x="162.44" y="706.42" type="line"/>
      <point x="241.101" y="706.42"/>
      <point x="223.253" y="780.521"/>
      <point x="176.88" y="780.521" type="curve" smooth="yes"/>
      <point x="137.36" y="780.521"/>
      <point x="130.141" y="741.76"/>
      <point x="130.141" y="741.76" type="curve"/>
    </contour>
  </outline>
</glyph>
<glyph name="acute" format="1">
  <advance width="405"/>
  <unicode hex="00B4"/>
  <outline>
    <contour>
      <point x="55.5" y="664" type="line"/>
      <point x="258.5" y="840" type="line"/>
      <point x="349.5" y="725" type="line"/>
      <point x="111.5" y="587" type="line"/>
    </contour>
  </outline>
</glyph>
<glyph name="mu" format="1">
  <advance width="696"/>
  <unicode hex="00B5"/>
  <outline>
    <contour>
      <point x="247" y="269" type="line" smooth="yes"/>
      <point x="247" y="168"/>
      <point x="274" y="129"/>
      <point x="348" y="129" type="curve" smooth="yes"/>
      <point x="422" y="129"/>
      <point x="449" y="168"/>
      <point x="449" y="269" type="curve" smooth="yes"/>
      <point x="449" y="513" type="line"/>
      <point x="626" y="513" type="line"/>
      <point x="626" y="226" type="line" smooth="yes"/>
      <point x="626" y="54"/>
      <point x="540" y="-15"/>
      <point x="348" y="-15" type="curve" smooth="yes"/>
      <point x="310.296" y="-15"/>
      <point x="276.68" y="-12.3389"/>
      <point x="247" y="-6.75977" type="curve"/>
      <point x="247" y="-133" type="line"/>
      <point x="70" y="-133" type="line"/>
      <point x="70" y="513" type="line"/>
      <point x="247" y="513" type="line"/>
    </contour>
  </outline>
</glyph>
<glyph name="paragraph" format="1">
  <advance width="757"/>
  <unicode hex="00B6"/>
  <outline>
    <contour>
      <point x="588" y="0" type="line"/>
      <point x="588" y="721" type="line"/>
      <point x="527" y="721" type="line"/>
      <point x="527" y="0" type="line"/>
      <point x="424" y="0" type="line"/>
      <point x="424" y="306" type="line"/>
      <point x="328" y="306" type="line" smooth="yes"/>
      <point x="167" y="306"/>
      <point x="66" y="431"/>
      <point x="66" y="571" type="curve" smooth="yes"/>
      <point x="66" y="712"/>
      <point x="167" y="825"/>
      <point x="328" y="825" type="curve" smooth="yes"/>
      <point x="691" y="825" type="line"/>
      <point x="691" y="0" type="line"/>
    </contour>
  </outline>
</glyph>
<glyph name="periodcentered" format="1">
  <advance width="299"/>
  <unicode hex="00B7"/>
  <outline>
    <contour>
      <point x="64.5" y="339" type="curve" smooth="yes"/>
      <point x="64.5" y="387"/>
      <point x="103.5" y="427"/>
      <point x="149.5" y="427" type="curve" smooth="yes"/>
      <point x="195.5" y="427"/>
      <point x="234.5" y="387"/>
      <point x="234.5" y="339" type="curve" smooth="yes"/>
      <point x="234.5" y="291"/>
      <point x="195.5" y="251"/>
      <point x="149.5" y="251" type="curve" smooth="yes"/>
      <point x="103.5" y="251"/>
      <point x="64.5" y="291"/>
    </contour>
  </outline>
</glyph>
<glyph name="cedilla" format="1">
  <advance width="570"/>
  <unicode hex="00B8"/>
  <outline>
    <contour>
      <point x="125.5" y="-157" type="line"/>
      <point x="125.5" y="-157"/>
      <point x="161.5" y="-204"/>
      <point x="207.5" y="-204" type="curve" smooth="yes"/>
      <point x="303.206" y="-204"/>
      <point x="291.5" y="-120"/>
      <point x="195.5" y="-120" type="curve" smooth="yes"/>
      <point x="159.5" y="-120"/>
      <point x="144.5" y="-129"/>
      <point x="144.5" y="-129" type="curve"/>
      <point x="182.5" y="26" type="line"/>
      <point x="252.5" y="4" type="line"/>
      <point x="230.5" y="-63" type="line"/>
      <point x="285.5" y="-63"/>
      <point x="359.5" y="-96"/>
      <point x="359.5" y="-165" type="curve" smooth="yes"/>
      <point x="359.5" y="-228"/>
      <point x="318.5" y="-294"/>
      <point x="207.5" y="-294" type="curve" smooth="yes"/>
      <point x="117.5" y="-294"/>
      <point x="53.5" y="-211"/>
      <point x="53.5" y="-211" type="curve"/>
    </contour>
  </outline>
</glyph>
<glyph name="uni00B9" format="1">
  <advance width="247"/>
  <unicode hex="00B9"/>
  <outline>
    <contour>
      <point x="62.5" y="697" type="line"/>
      <point x="62.5" y="768" type="line"/>
      <point x="150.5" y="825" type="line"/>
      <point x="184.5" y="825" type="line"/>
      <point x="184.5" y="513" type="line"/>
      <point x="113.5" y="513" type="line"/>
      <point x="113.5" y="730" type="line"/>
    </contour>
  </outline>
</glyph>
<glyph name="ordmasculine" format="1">
  <advance width="500"/>
  <unicode hex="00BA"/>
  <outline>
    <contour>
      <point x="176.5" y="671" type="curve" smooth="yes"/>
      <point x="176.5" y="628"/>
      <point x="205.5" y="597"/>
      <point x="250.5" y="597" type="curve" smooth="yes"/>
      <point x="293.5" y="597"/>
      <point x="324.5" y="628"/>
      <point x="324.5" y="671" type="curve" smooth="yes"/>
      <point x="324.5" y="715"/>
      <point x="291.5" y="746"/>
      <point x="250.5" y="746" type="curve" smooth="yes"/>
      <point x="209.5" y="746"/>
      <point x="176.5" y="715"/>
    </contour>
    <contour>
      <point x="59.5" y="671" type="curve" smooth="yes"/>
      <point x="59.5" y="770"/>
      <point x="144.5" y="840"/>
      <point x="251.5" y="840" type="curve" smooth="yes"/>
      <point x="356.5" y="840"/>
      <point x="440.5" y="770"/>
      <point x="440.5" y="671" type="curve" smooth="yes"/>
      <point x="440.5" y="574"/>
      <point x="360.5" y="504"/>
      <point x="251.5" y="504" type="curve" smooth="yes"/>
      <point x="136.5" y="504"/>
      <point x="59.5" y="574"/>
    </contour>
  </outline>
</glyph>
<glyph name="onequarter" format="1">
  <advance width="819"/>
  <unicode hex="00BC"/>
  <outline>
    <contour>
      <point x="611" y="334" type="line"/>
      <point x="610" y="334" type="line"/>
      <point x="525" y="197" type="line"/>
      <point x="611" y="197" type="line"/>
    </contour>
    <contour>
      <point x="714" y="197" type="line"/>
      <point x="769" y="197" type="line"/>
      <point x="769" y="101" type="line"/>
      <point x="714" y="101" type="line"/>
      <point x="714" y="0" type="line"/>
      <point x="611" y="0" type="line"/>
      <point x="611" y="101" type="line"/>
      <point x="375" y="101" type="line"/>
      <point x="375" y="134" type="line"/>
      <point x="606" y="480" type="line"/>
      <point x="714" y="480" type="line"/>
    </contour>
    <contour>
      <point x="690" y="825" type="line"/>
      <point x="210" y="0" type="line"/>
      <point x="92" y="0" type="line"/>
      <point x="572" y="825" type="line"/>
    </contour>
    <contour>
      <point x="51" y="628" type="line"/>
      <point x="51" y="737" type="line"/>
      <point x="187" y="825" type="line"/>
      <point x="239" y="825" type="line"/>
      <point x="239" y="345" type="line"/>
      <point x="130" y="345" type="line"/>
      <point x="130" y="680" type="line"/>
    </contour>
  </outline>
</glyph>
<glyph name="onehalf" format="1">
  <advance width="888"/>
  <unicode hex="00BD"/>
  <outline>
    <contour>
      <point x="644" y="391" type="curve" smooth="yes"/>
      <point x="593" y="391"/>
      <point x="560" y="301"/>
      <point x="560" y="301" type="curve"/>
      <point x="470" y="344" type="line"/>
      <point x="470" y="344"/>
      <point x="516" y="482"/>
      <point x="644" y="482" type="curve" smooth="yes"/>
      <point x="807" y="482"/>
      <point x="828" y="375"/>
      <point x="828" y="316" type="curve" smooth="yes"/>
      <point x="828" y="205"/>
      <point x="661" y="95"/>
      <point x="661" y="95" type="curve"/>
      <point x="837" y="95" type="line"/>
      <point x="837" y="0" type="line"/>
      <point x="468" y="0" type="line"/>
      <point x="468" y="27" type="line"/>
      <point x="468" y="27"/>
      <point x="712" y="228"/>
      <point x="712" y="316" type="curve" smooth="yes"/>
      <point x="712" y="333"/>
      <point x="708" y="391"/>
    </contour>
    <contour>
      <point x="690" y="825" type="line"/>
      <point x="210" y="0" type="line"/>
      <point x="92" y="0" type="line"/>
      <point x="572" y="825" type="line"/>
    </contour>
    <contour>
      <point x="51" y="628" type="line"/>
      <point x="51" y="737" type="line"/>
      <point x="187" y="825" type="line"/>
      <point x="239" y="825" type="line"/>
      <point x="239" y="345" type="line"/>
      <point x="130" y="345" type="line"/>
      <point x="130" y="680" type="line"/>
    </contour>
  </outline>
</glyph>
<glyph name="threequarters" format="1">
  <advance width="920"/>
  <unicode hex="00BE"/>
  <outline>
    <contour>
      <point x="70.5996" y="722.81" type="line"/>
      <point x="70.5996" y="722.81"/>
      <point x="94.3281" y="825.074"/>
      <point x="224.844" y="825.074" type="curve" smooth="yes"/>
      <point x="313.549" y="825.074"/>
      <point x="377.959" y="768.574"/>
      <point x="377.959" y="689.475" type="curve" smooth="yes"/>
      <point x="377.959" y="651.055"/>
      <point x="362.139" y="621.675"/>
      <point x="336.715" y="601.899" type="curve"/>
      <point x="372.875" y="579.864"/>
      <point x="396.039" y="544.27"/>
      <point x="396.039" y="495.114" type="curve" smooth="yes"/>
      <point x="396.039" y="405.845"/>
      <point x="323.154" y="342"/>
      <point x="223.148" y="342" type="curve" smooth="yes"/>
      <point x="79.6387" y="342"/>
      <point x="48" y="456.694"/>
      <point x="48" y="456.694" type="curve"/>
      <point x="146.309" y="504.72" type="line"/>
      <point x="146.309" y="504.72"/>
      <point x="152.523" y="433.529"/>
      <point x="222.584" y="433.529" type="curve" smooth="yes"/>
      <point x="321.189" y="433.529"/>
      <point x="347.449" y="564.609"/>
      <point x="202.244" y="560.09" type="curve"/>
      <point x="202.244" y="629.585" type="line"/>
      <point x="319.199" y="629.585"/>
      <point x="292.664" y="739.76"/>
      <point x="223.715" y="739.76" type="curve" smooth="yes"/>
      <point x="164.953" y="739.76"/>
      <point x="154.219" y="682.13"/>
      <point x="154.219" y="682.13" type="curve"/>
    </contour>
    <contour>
      <point x="709.148" y="334" type="line"/>
      <point x="708.148" y="334" type="line"/>
      <point x="623.148" y="197" type="line"/>
      <point x="709.148" y="197" type="line"/>
    </contour>
    <contour>
      <point x="812.148" y="197" type="line"/>
      <point x="867.148" y="197" type="line"/>
      <point x="867.148" y="101" type="line"/>
      <point x="812.148" y="101" type="line"/>
      <point x="812.148" y="0" type="line"/>
      <point x="709.148" y="0" type="line"/>
      <point x="709.148" y="101" type="line"/>
      <point x="473.148" y="101" type="line"/>
      <point x="473.148" y="134" type="line"/>
      <point x="704.148" y="480" type="line"/>
      <point x="812.148" y="480" type="line"/>
    </contour>
    <contour>
      <point x="795.148" y="825" type="line"/>
      <point x="315.148" y="0" type="line"/>
      <point x="197.148" y="0" type="line"/>
      <point x="677.148" y="825" type="line"/>
    </contour>
  </outline>
</glyph>
<glyph name="questiondown" format="1">
  <advance width="672"/>
  <unicode hex="00BF"/>
  <outline>
    <contour>
      <point x="232" y="423" type="curve"/>
      <point x="269" y="450"/>
      <point x="266.401" y="462.353"/>
      <point x="267" y="555" type="curve"/>
      <point x="432" y="555" type="line"/>
      <point x="432" y="403"/>
      <point x="429" y="365"/>
      <point x="385" y="337" type="curve" smooth="yes"/>
      <point x="324" y="298"/>
      <point x="267" y="295"/>
      <point x="267" y="224" type="curve" smooth="yes"/>
      <point x="267" y="176"/>
      <point x="303" y="142"/>
      <point x="348" y="142" type="curve" smooth="yes"/>
      <point x="420" y="142"/>
      <point x="455" y="202"/>
      <point x="466" y="245" type="curve"/>
      <point x="613" y="174" type="line"/>
      <point x="613" y="169"/>
      <point x="570" y="-15"/>
      <point x="347" y="-15" type="curve" smooth="yes"/>
      <point x="197" y="-15"/>
      <point x="63" y="83"/>
      <point x="63" y="224" type="curve" smooth="yes"/>
      <point x="63" y="322"/>
      <point x="136" y="382"/>
    </contour>
    <contour>
      <point x="432" y="697" type="curve" smooth="yes"/>
      <point x="432" y="649"/>
      <point x="393" y="609"/>
      <point x="347" y="609" type="curve" smooth="yes"/>
      <point x="301" y="609"/>
      <point x="262" y="649"/>
      <point x="262" y="697" type="curve" smooth="yes"/>
      <point x="262" y="745"/>
      <point x="301" y="785"/>
      <point x="347" y="785" type="curve" smooth="yes"/>
      <point x="393" y="785"/>
      <point x="432" y="745"/>
    </contour>
  </outline>
</glyph>
<glyph name="Aacute" format="1">
  <advance width="930"/>
  <unicode hex="00C1"/>
  <outline>
    <contour>
      <point x="406" y="976" type="line"/>
      <point x="609" y="1152" type="line"/>
      <point x="700" y="1037" type="line"/>
      <point x="462" y="899" type="line"/>
    </contour>
    <contour>
      <point x="551" y="825" type="line"/>
      <point x="885" y="0" type="line"/>
      <point x="683" y="0" type="line"/>
      <point x="621" y="165" type="line"/>
      <point x="307" y="165" type="line"/>
      <point x="247" y="0" type="line"/>
      <point x="45" y="0" type="line"/>
      <point x="377" y="825" type="line"/>
    </contour>
    <contour>
      <point x="557" y="330" type="line"/>
      <point x="463" y="570" type="line"/>
      <point x="371" y="330" type="line"/>
    </contour>
  </outline>
</glyph>
<glyph name="Acircumflex" format="1">
  <advance width="930"/>
  <unicode hex="00C2"/>
  <outline>
    <contour>
      <point x="244" y="990" type="line"/>
      <point x="465" y="1152" type="line"/>
      <point x="686" y="990" type="line"/>
      <point x="618" y="899" type="line"/>
      <point x="465" y="1011" type="line"/>
      <point x="312" y="899" type="line"/>
    </contour>
    <contour>
      <point x="551" y="825" type="line"/>
      <point x="885" y="0" type="line"/>
      <point x="683" y="0" type="line"/>
      <point x="621" y="165" type="line"/>
      <point x="307" y="165" type="line"/>
      <point x="247" y="0" type="line"/>
      <point x="45" y="0" type="line"/>
      <point x="377" y="825" type="line"/>
    </contour>
    <contour>
      <point x="557" y="330" type="line"/>
      <point x="463" y="570" type="line"/>
      <point x="371" y="330" type="line"/>
    </contour>
  </outline>
</glyph>
<glyph name="Atilde" format="1">
  <advance width="930"/>
  <unicode hex="00C3"/>
  <outline>
    <contour>
      <point x="380" y="973" type="curve" smooth="yes"/>
      <point x="348" y="973"/>
      <point x="335" y="927"/>
      <point x="335" y="927" type="curve"/>
      <point x="234" y="927" type="line"/>
      <point x="234" y="927"/>
      <point x="260" y="1099"/>
      <point x="370" y="1099" type="curve" smooth="yes"/>
      <point x="409" y="1099"/>
      <point x="509" y="1053"/>
      <point x="550" y="1053" type="curve" smooth="yes"/>
      <point x="582" y="1053"/>
      <point x="595" y="1099"/>
      <point x="595" y="1099" type="curve"/>
      <point x="696" y="1099" type="line"/>
      <point x="696" y="1099"/>
      <point x="670" y="927"/>
      <point x="560" y="927" type="curve" smooth="yes"/>
      <point x="521" y="927"/>
      <point x="444.203" y="973"/>
    </contour>
    <contour>
      <point x="551" y="825" type="line"/>
      <point x="885" y="0" type="line"/>
      <point x="683" y="0" type="line"/>
      <point x="621" y="165" type="line"/>
      <point x="307" y="165" type="line"/>
      <point x="247" y="0" type="line"/>
      <point x="45" y="0" type="line"/>
      <point x="377" y="825" type="line"/>
    </contour>
    <contour>
      <point x="557" y="330" type="line"/>
      <point x="463" y="570" type="line"/>
      <point x="371" y="330" type="line"/>
    </contour>
  </outline>
</glyph>
<glyph name="Adieresis" format="1">
  <advance width="930"/>
  <unicode hex="00C4"/>
  <outline>
    <contour>
      <point x="583" y="1103" type="curve" smooth="yes"/>
      <point x="634" y="1103"/>
      <point x="675" y="1062"/>
      <point x="675" y="1011" type="curve" smooth="yes"/>
      <point x="675" y="960"/>
      <point x="634" y="919"/>
      <point x="583" y="919" type="curve" smooth="yes"/>
      <point x="532" y="919"/>
      <point x="491" y="960"/>
      <point x="491" y="1011" type="curve" smooth="yes"/>
      <point x="491" y="1062"/>
      <point x="532" y="1103"/>
    </contour>
    <contour>
      <point x="346" y="1103" type="curve" smooth="yes"/>
      <point x="397" y="1103"/>
      <point x="438" y="1062"/>
      <point x="438" y="1011" type="curve" smooth="yes"/>
      <point x="438" y="960"/>
      <point x="397" y="919"/>
      <point x="346" y="919" type="curve" smooth="yes"/>
      <point x="295" y="919"/>
      <point x="254" y="960"/>
      <point x="254" y="1011" type="curve" smooth="yes"/>
      <point x="254" y="1062"/>
      <point x="295" y="1103"/>
    </contour>
    <contour>
      <point x="551" y="825" type="line"/>
      <point x="885" y="0" type="line"/>
      <point x="683" y="0" type="line"/>
      <point x="621" y="165" type="line"/>
      <point x="307" y="165" type="line"/>
      <point x="247" y="0" type="line"/>
      <point x="45" y="0" type="line"/>
      <point x="377" y="825" type="line"/>
    </contour>
    <contour>
      <point x="557" y="330" type="line"/>
      <point x="463" y="570" type="line"/>
      <point x="371" y="330" type="line"/>
    </contour>
  </outline>
</glyph>
<glyph name="Aring" format="1">
  <advance width="930"/>
  <unicode hex="00C5"/>
  <outline>
    <contour>
      <point x="404" y="1045" type="curve" smooth="yes"/>
      <point x="404" y="1010"/>
      <point x="429" y="981"/>
      <point x="465" y="981" type="curve" smooth="yes"/>
      <point x="500" y="981"/>
      <point x="526" y="1010"/>
      <point x="526" y="1045" type="curve" smooth="yes"/>
      <point x="526" y="1079"/>
      <point x="499" y="1107"/>
      <point x="465" y="1107" type="curve" smooth="yes"/>
      <point x="432" y="1107"/>
      <point x="404" y="1079"/>
    </contour>
    <contour>
      <point x="304" y="1045" type="curve" smooth="yes"/>
      <point x="304" y="1128"/>
      <point x="375" y="1187"/>
      <point x="465" y="1187" type="curve" smooth="yes"/>
      <point x="556" y="1187"/>
      <point x="626" y="1128"/>
      <point x="626" y="1045" type="curve" smooth="yes"/>
      <point x="626" y="961"/>
      <point x="559" y="902"/>
      <point x="465" y="902" type="curve" smooth="yes"/>
      <point x="369" y="902"/>
      <point x="304" y="961"/>
    </contour>
    <contour>
      <point x="551" y="825" type="line"/>
      <point x="885" y="0" type="line"/>
      <point x="683" y="0" type="line"/>
      <point x="621" y="165" type="line"/>
      <point x="307" y="165" type="line"/>
      <point x="247" y="0" type="line"/>
      <point x="45" y="0" type="line"/>
      <point x="377" y="825" type="line"/>
    </contour>
    <contour>
      <point x="557" y="330" type="line"/>
      <point x="463" y="570" type="line"/>
      <point x="371" y="330" type="line"/>
    </contour>
  </outline>
</glyph>
<glyph name="AE" format="1">
  <advance width="1282"/>
  <unicode hex="00C6"/>
  <outline>
    <contour>
      <point x="636.625" y="635" type="line"/>
      <point x="477.875" y="330" type="line"/>
      <point x="636.625" y="330" type="line"/>
    </contour>
    <contour>
      <point x="395.375" y="165" type="line"/>
      <point x="307.875" y="0" type="line"/>
      <point x="55.375" y="0" type="line"/>
      <point x="526.625" y="825" type="line"/>
      <point x="1226.62" y="825" type="line"/>
      <point x="1226.62" y="660" type="line"/>
      <point x="871.625" y="660" type="line"/>
      <point x="871.625" y="496" type="line"/>
      <point x="1211.62" y="496" type="line"/>
      <point x="1211.62" y="331" type="line"/>
      <point x="871.625" y="331" type="line"/>
      <point x="871.625" y="165" type="line"/>
      <point x="1226.62" y="165" type="line"/>
      <point x="1226.62" y="0" type="line"/>
      <point x="636.625" y="0" type="line"/>
      <point x="636.625" y="165" type="line"/>
    </contour>
  </outline>
</glyph>
<glyph name="Ccedilla" format="1">
  <advance width="798"/>
  <unicode hex="00C7"/>
  <outline>
    <contour>
      <point x="501" y="-15" type="curve" smooth="yes"/>
      <point x="481" y="-15"/>
      <point x="461" y="-14"/>
      <point x="441" y="-11" type="curve"/>
      <point x="424" y="-63" type="line"/>
      <point x="479" y="-63"/>
      <point x="553" y="-96"/>
      <point x="553" y="-165" type="curve" smooth="yes"/>
      <point x="553" y="-228"/>
      <point x="512" y="-294"/>
      <point x="401" y="-294" type="curve" smooth="yes"/>
      <point x="311" y="-294"/>
      <point x="247" y="-211"/>
      <point x="247" y="-211" type="curve"/>
      <point x="319" y="-157" type="line"/>
      <point x="319" y="-157"/>
      <point x="355" y="-204"/>
      <point x="401" y="-204" type="curve" smooth="yes"/>
      <point x="496.706" y="-204"/>
      <point x="485" y="-120"/>
      <point x="389" y="-120" type="curve" smooth="yes"/>
      <point x="353" y="-120"/>
      <point x="338" y="-129"/>
      <point x="338" y="-129" type="curve"/>
      <point x="369" y="5" type="line"/>
      <point x="193" y="60"/>
      <point x="54" y="220"/>
      <point x="54" y="411" type="curve" smooth="yes"/>
      <point x="54" y="648"/>
      <point x="267" y="840"/>
      <point x="501" y="840" type="curve" smooth="yes"/>
      <point x="680" y="840"/>
      <point x="739" y="800"/>
      <point x="739" y="800" type="curve"/>
      <point x="699" y="615" type="line"/>
      <point x="699" y="615"/>
      <point x="626" y="655"/>
      <point x="530" y="655" type="curve" smooth="yes"/>
      <point x="341" y="655"/>
      <point x="258" y="523"/>
      <point x="258" y="413" type="curve" smooth="yes"/>
      <point x="258" y="302"/>
      <point x="341" y="170"/>
      <point x="530" y="170" type="curve" smooth="yes"/>
      <point x="626" y="170"/>
      <point x="699" y="210"/>
      <point x="699" y="210" type="curve"/>
      <point x="739" y="25" type="line"/>
      <point x="739" y="25"/>
      <point x="680" y="-15"/>
    </contour>
  </outline>
</glyph>
<glyph name="Egrave" format="1">
  <advance width="613"/>
  <unicode hex="00C8"/>
  <outline>
    <contour>
      <point x="545.5" y="825" type="line"/>
      <point x="545.5" y="660" type="line"/>
      <point x="261.5" y="660" type="line"/>
      <point x="261.5" y="496" type="line"/>
      <point x="533.5" y="496" type="line"/>
      <point x="533.5" y="331" type="line"/>
      <point x="261.5" y="331" type="line"/>
      <point x="261.5" y="165" type="line"/>
      <point x="545.5" y="165" type="line"/>
      <point x="545.5" y="0" type="line"/>
      <point x="73.5" y="0" type="line"/>
      <point x="73.5" y="825" type="line"/>
    </contour>
    <contour>
      <point x="158.5" y="1152" type="line"/>
      <point x="361.5" y="976" type="line"/>
      <point x="305.5" y="899" type="line"/>
      <point x="67.5" y="1037" type="line"/>
    </contour>
  </outline>
</glyph>
<glyph name="Eacute" format="1">
  <advance width="612"/>
  <unicode hex="00C9"/>
  <outline>
    <contour>
      <point x="542" y="825" type="line"/>
      <point x="542" y="660" type="line"/>
      <point x="258" y="660" type="line"/>
      <point x="258" y="496" type="line"/>
      <point x="530" y="496" type="line"/>
      <point x="530" y="331" type="line"/>
      <point x="258" y="331" type="line"/>
      <point x="258" y="165" type="line"/>
      <point x="542" y="165" type="line"/>
      <point x="542" y="0" type="line"/>
      <point x="70" y="0" type="line"/>
      <point x="70" y="825" type="line"/>
    </contour>
    <contour>
      <point x="182" y="976" type="line"/>
      <point x="385" y="1152" type="line"/>
      <point x="476" y="1037" type="line"/>
      <point x="238" y="899" type="line"/>
    </contour>
  </outline>
</glyph>
<glyph name="Ecircumflex" format="1">
  <advance width="612"/>
  <unicode hex="00CA"/>
  <outline>
    <contour>
      <point x="542" y="825" type="line"/>
      <point x="542" y="660" type="line"/>
      <point x="258" y="660" type="line"/>
      <point x="258" y="496" type="line"/>
      <point x="530" y="496" type="line"/>
      <point x="530" y="331" type="line"/>
      <point x="258" y="331" type="line"/>
      <point x="258" y="165" type="line"/>
      <point x="542" y="165" type="line"/>
      <point x="542" y="0" type="line"/>
      <point x="70" y="0" type="line"/>
      <point x="70" y="825" type="line"/>
    </contour>
    <contour>
      <point x="79" y="990" type="line"/>
      <point x="300" y="1152" type="line"/>
      <point x="521" y="990" type="line"/>
      <point x="453" y="899" type="line"/>
      <point x="300" y="1011" type="line"/>
      <point x="147" y="899" type="line"/>
    </contour>
  </outline>
</glyph>
<glyph name="Edieresis" format="1">
  <advance width="612"/>
  <unicode hex="00CB"/>
  <outline>
    <contour>
      <point x="542" y="825" type="line"/>
      <point x="542" y="660" type="line"/>
      <point x="258" y="660" type="line"/>
      <point x="258" y="496" type="line"/>
      <point x="530" y="496" type="line"/>
      <point x="530" y="331" type="line"/>
      <point x="258" y="331" type="line"/>
      <point x="258" y="165" type="line"/>
      <point x="542" y="165" type="line"/>
      <point x="542" y="0" type="line"/>
      <point x="70" y="0" type="line"/>
      <point x="70" y="825" type="line"/>
    </contour>
    <contour>
      <point x="418" y="1103" type="curve" smooth="yes"/>
      <point x="469" y="1103"/>
      <point x="510" y="1062"/>
      <point x="510" y="1011" type="curve" smooth="yes"/>
      <point x="510" y="960"/>
      <point x="469" y="919"/>
      <point x="418" y="919" type="curve" smooth="yes"/>
      <point x="367" y="919"/>
      <point x="326" y="960"/>
      <point x="326" y="1011" type="curve" smooth="yes"/>
      <point x="326" y="1062"/>
      <point x="367" y="1103"/>
    </contour>
    <contour>
      <point x="181" y="1103" type="curve" smooth="yes"/>
      <point x="232" y="1103"/>
      <point x="273" y="1062"/>
      <point x="273" y="1011" type="curve" smooth="yes"/>
      <point x="273" y="960"/>
      <point x="232" y="919"/>
      <point x="181" y="919" type="curve" smooth="yes"/>
      <point x="130" y="919"/>
      <point x="89" y="960"/>
      <point x="89" y="1011" type="curve" smooth="yes"/>
      <point x="89" y="1062"/>
      <point x="130" y="1103"/>
    </contour>
  </outline>
</glyph>
<glyph name="Igrave" format="1">
  <advance width="444"/>
  <unicode hex="00CC"/>
  <outline>
    <contour>
      <point x="387" y="825" type="line"/>
      <point x="387" y="0" type="line"/>
      <point x="199" y="0" type="line"/>
      <point x="199" y="825" type="line"/>
    </contour>
    <contour>
      <point x="148" y="1152" type="line"/>
      <point x="351" y="976" type="line"/>
      <point x="295" y="899" type="line"/>
      <point x="57" y="1037" type="line"/>
    </contour>
  </outline>
</glyph>
<glyph name="Icircumflex" format="1">
  <advance width="518"/>
  <unicode hex="00CE"/>
  <outline>
    <contour>
      <point x="353" y="825" type="line"/>
      <point x="353" y="0" type="line"/>
      <point x="165" y="0" type="line"/>
      <point x="165" y="825" type="line"/>
    </contour>
    <contour>
      <point x="38" y="990" type="line"/>
      <point x="259" y="1152" type="line"/>
      <point x="480" y="990" type="line"/>
      <point x="412" y="899" type="line"/>
      <point x="259" y="1011" type="line"/>
      <point x="106" y="899" type="line"/>
    </contour>
  </outline>
</glyph>
<glyph name="Idieresis" format="1">
  <advance width="498"/>
  <unicode hex="00CF"/>
  <outline>
    <contour>
      <point x="342.5" y="825" type="line"/>
      <point x="342.5" y="0" type="line"/>
      <point x="154.5" y="0" type="line"/>
      <point x="154.5" y="825" type="line"/>
    </contour>
    <contour>
      <point x="367.5" y="1103" type="curve" smooth="yes"/>
      <point x="418.5" y="1103"/>
      <point x="459.5" y="1062"/>
      <point x="459.5" y="1011" type="curve" smooth="yes"/>
      <point x="459.5" y="960"/>
      <point x="418.5" y="919"/>
      <point x="367.5" y="919" type="curve" smooth="yes"/>
      <point x="316.5" y="919"/>
      <point x="275.5" y="960"/>
      <point x="275.5" y="1011" type="curve" smooth="yes"/>
      <point x="275.5" y="1062"/>
      <point x="316.5" y="1103"/>
    </contour>
    <contour>
      <point x="130.5" y="1103" type="curve" smooth="yes"/>
      <point x="181.5" y="1103"/>
      <point x="222.5" y="1062"/>
      <point x="222.5" y="1011" type="curve" smooth="yes"/>
      <point x="222.5" y="960"/>
      <point x="181.5" y="919"/>
      <point x="130.5" y="919" type="curve" smooth="yes"/>
      <point x="79.5" y="919"/>
      <point x="38.5" y="960"/>
      <point x="38.5" y="1011" type="curve" smooth="yes"/>
      <point x="38.5" y="1062"/>
      <point x="79.5" y="1103"/>
    </contour>
  </outline>
</glyph>
<glyph name="Ntilde" format="1">
  <advance width="856"/>
  <unicode hex="00D1"/>
  <outline>
    <contour>
      <point x="343" y="973" type="curve" smooth="yes"/>
      <point x="311" y="973"/>
      <point x="298" y="927"/>
      <point x="298" y="927" type="curve"/>
      <point x="197" y="927" type="line"/>
      <point x="197" y="927"/>
      <point x="223" y="1099"/>
      <point x="333" y="1099" type="curve" smooth="yes"/>
      <point x="372" y="1099"/>
      <point x="472" y="1053"/>
      <point x="513" y="1053" type="curve" smooth="yes"/>
      <point x="545" y="1053"/>
      <point x="558" y="1099"/>
      <point x="558" y="1099" type="curve"/>
      <point x="659" y="1099" type="line"/>
      <point x="659" y="1099"/>
      <point x="633" y="927"/>
      <point x="523" y="927" type="curve" smooth="yes"/>
      <point x="484" y="927"/>
      <point x="407.203" y="973"/>
    </contour>
    <contour>
      <point x="75" y="0" type="line"/>
      <point x="75" y="825" type="line"/>
      <point x="591" y="400" type="line"/>
      <point x="593" y="825" type="line"/>
      <point x="781" y="825" type="line"/>
      <point x="781" y="0" type="line"/>
      <point x="263" y="424" type="line"/>
      <point x="263" y="0" type="line"/>
    </contour>
  </outline>
</glyph>
<glyph name="Otilde" format="1">
  <advance width="952"/>
  <unicode hex="00D5"/>
  <outline>
    <contour>
      <point x="390.5" y="973" type="curve" smooth="yes"/>
      <point x="358.5" y="973"/>
      <point x="345.5" y="927"/>
      <point x="345.5" y="927" type="curve"/>
      <point x="244.5" y="927" type="line"/>
      <point x="244.5" y="927"/>
      <point x="270.5" y="1099"/>
      <point x="380.5" y="1099" type="curve" smooth="yes"/>
      <point x="419.5" y="1099"/>
      <point x="519.5" y="1053"/>
      <point x="560.5" y="1053" type="curve" smooth="yes"/>
      <point x="592.5" y="1053"/>
      <point x="605.5" y="1099"/>
      <point x="605.5" y="1099" type="curve"/>
      <point x="706.5" y="1099" type="line"/>
      <point x="706.5" y="1099"/>
      <point x="680.5" y="927"/>
      <point x="570.5" y="927" type="curve" smooth="yes"/>
      <point x="531.5" y="927"/>
      <point x="454.703" y="973"/>
    </contour>
    <contour>
      <point x="263.5" y="413" type="curve" smooth="yes"/>
      <point x="263.5" y="290"/>
      <point x="322.5" y="167"/>
      <point x="476.5" y="167" type="curve" smooth="yes"/>
      <point x="626.5" y="167"/>
      <point x="688.5" y="290"/>
      <point x="688.5" y="413" type="curve" smooth="yes"/>
      <point x="688.5" y="536"/>
      <point x="622.5" y="659"/>
      <point x="476.5" y="659" type="curve" smooth="yes"/>
      <point x="331.5" y="659"/>
      <point x="263.5" y="536"/>
    </contour>
    <contour>
      <point x="60.5" y="413" type="curve" smooth="yes"/>
      <point x="60.5" y="654"/>
      <point x="249.5" y="840"/>
      <point x="476.5" y="840" type="curve" smooth="yes"/>
      <point x="705.5" y="840"/>
      <point x="891.5" y="654"/>
      <point x="891.5" y="413" type="curve" smooth="yes"/>
      <point x="891.5" y="172"/>
      <point x="713.5" y="-15"/>
      <point x="476.5" y="-15" type="curve" smooth="yes"/>
      <point x="232.5" y="-15"/>
      <point x="60.5" y="172"/>
    </contour>
  </outline>
</glyph>
<glyph name="multiply" format="1">
  <advance width="629"/>
  <unicode hex="00D7"/>
  <outline>
    <contour>
      <point x="575" y="262" type="line"/>
      <point x="468" y="154" type="line"/>
      <point x="315" y="307" type="line"/>
      <point x="162" y="154" type="line"/>
      <point x="54" y="263" type="line"/>
      <point x="206" y="415" type="line"/>
      <point x="54" y="568" type="line"/>
      <point x="162" y="675" type="line"/>
      <point x="314" y="523" type="line"/>
      <point x="467" y="675" type="line"/>
      <point x="575" y="567" type="line"/>
      <point x="422" y="414" type="line"/>
    </contour>
  </outline>
</glyph>
<glyph name="Ugrave" format="1">
  <advance width="785"/>
  <unicode hex="00D9"/>
  <outline>
    <contour>
      <point x="526.5" y="825" type="line"/>
      <point x="714.5" y="825" type="line"/>
      <point x="714.5" y="293" type="line" smooth="yes"/>
      <point x="714.5" y="89"/>
      <point x="602.5" y="-15"/>
      <point x="392.5" y="-15" type="curve" smooth="yes"/>
      <point x="182.5" y="-15"/>
      <point x="70.5" y="89"/>
      <point x="70.5" y="293" type="curve" smooth="yes"/>
      <point x="70.5" y="825" type="line"/>
      <point x="258.5" y="825" type="line"/>
      <point x="258.5" y="348" type="line" smooth="yes"/>
      <point x="258.5" y="210"/>
      <point x="300.5" y="170"/>
      <point x="392.5" y="170" type="curve" smooth="yes"/>
      <point x="484.5" y="170"/>
      <point x="526.5" y="210"/>
      <point x="526.5" y="348" type="curve" smooth="yes"/>
    </contour>
    <contour>
      <point x="247.5" y="1152" type="line"/>
      <point x="450.5" y="976" type="line"/>
      <point x="394.5" y="899" type="line"/>
      <point x="156.5" y="1037" type="line"/>
    </contour>
  </outline>
</glyph>
<glyph name="Ucircumflex" format="1">
  <advance width="785"/>
  <unicode hex="00DB"/>
  <outline>
    <contour>
      <point x="526.5" y="825" type="line"/>
      <point x="714.5" y="825" type="line"/>
      <point x="714.5" y="293" type="line" smooth="yes"/>
      <point x="714.5" y="89"/>
      <point x="602.5" y="-15"/>
      <point x="392.5" y="-15" type="curve" smooth="yes"/>
      <point x="182.5" y="-15"/>
      <point x="70.5" y="89"/>
      <point x="70.5" y="293" type="curve" smooth="yes"/>
      <point x="70.5" y="825" type="line"/>
      <point x="258.5" y="825" type="line"/>
      <point x="258.5" y="348" type="line" smooth="yes"/>
      <point x="258.5" y="210"/>
      <point x="300.5" y="170"/>
      <point x="392.5" y="170" type="curve" smooth="yes"/>
      <point x="484.5" y="170"/>
      <point x="526.5" y="210"/>
      <point x="526.5" y="348" type="curve" smooth="yes"/>
    </contour>
    <contour>
      <point x="171.5" y="990" type="line"/>
      <point x="392.5" y="1152" type="line"/>
      <point x="613.5" y="990" type="line"/>
      <point x="545.5" y="899" type="line"/>
      <point x="392.5" y="1011" type="line"/>
      <point x="239.5" y="899" type="line"/>
    </contour>
  </outline>
</glyph>
<glyph name="Udieresis" format="1">
  <advance width="785"/>
  <unicode hex="00DC"/>
  <outline>
    <contour>
      <point x="526.5" y="825" type="line"/>
      <point x="714.5" y="825" type="line"/>
      <point x="714.5" y="293" type="line" smooth="yes"/>
      <point x="714.5" y="89"/>
      <point x="602.5" y="-15"/>
      <point x="392.5" y="-15" type="curve" smooth="yes"/>
      <point x="182.5" y="-15"/>
      <point x="70.5" y="89"/>
      <point x="70.5" y="293" type="curve" smooth="yes"/>
      <point x="70.5" y="825" type="line"/>
      <point x="258.5" y="825" type="line"/>
      <point x="258.5" y="348" type="line" smooth="yes"/>
      <point x="258.5" y="210"/>
      <point x="300.5" y="170"/>
      <point x="392.5" y="170" type="curve" smooth="yes"/>
      <point x="484.5" y="170"/>
      <point x="526.5" y="210"/>
      <point x="526.5" y="348" type="curve" smooth="yes"/>
    </contour>
    <contour>
      <point x="510.5" y="1103" type="curve" smooth="yes"/>
      <point x="561.5" y="1103"/>
      <point x="602.5" y="1062"/>
      <point x="602.5" y="1011" type="curve" smooth="yes"/>
      <point x="602.5" y="960"/>
      <point x="561.5" y="919"/>
      <point x="510.5" y="919" type="curve" smooth="yes"/>
      <point x="459.5" y="919"/>
      <point x="418.5" y="960"/>
      <point x="418.5" y="1011" type="curve" smooth="yes"/>
      <point x="418.5" y="1062"/>
      <point x="459.5" y="1103"/>
    </contour>
    <contour>
      <point x="273.5" y="1103" type="curve" smooth="yes"/>
      <point x="324.5" y="1103"/>
      <point x="365.5" y="1062"/>
      <point x="365.5" y="1011" type="curve" smooth="yes"/>
      <point x="365.5" y="960"/>
      <point x="324.5" y="919"/>
      <point x="273.5" y="919" type="curve" smooth="yes"/>
      <point x="222.5" y="919"/>
      <point x="181.5" y="960"/>
      <point x="181.5" y="1011" type="curve" smooth="yes"/>
      <point x="181.5" y="1062"/>
      <point x="222.5" y="1103"/>
    </contour>
  </outline>
</glyph>
<glyph name="Yacute" format="1">
  <advance width="879"/>
  <unicode hex="00DD"/>
  <outline>
    <contour>
      <point x="41.5" y="825" type="line"/>
      <point x="267.5" y="825" type="line"/>
      <point x="439.5" y="561" type="line"/>
      <point x="611.5" y="825" type="line"/>
      <point x="837.5" y="825" type="line"/>
      <point x="533.5" y="370" type="line"/>
      <point x="533.5" y="0" type="line"/>
      <point x="345.5" y="0" type="line"/>
      <point x="345.5" y="370" type="line"/>
    </contour>
    <contour>
      <point x="322.5" y="976" type="line"/>
      <point x="525.5" y="1152" type="line"/>
      <point x="616.5" y="1037" type="line"/>
      <point x="378.5" y="899" type="line"/>
    </contour>
  </outline>
</glyph>
<glyph name="Thorn" format="1">
  <advance width="718"/>
  <unicode hex="00DE"/>
  <outline>
    <contour>
      <point x="255.5" y="303" type="line"/>
      <point x="308.5" y="303" type="line" smooth="yes"/>
      <point x="382.5" y="303"/>
      <point x="447.5" y="329"/>
      <point x="447.5" y="412" type="curve" smooth="yes"/>
      <point x="447.5" y="496"/>
      <point x="382.5" y="522"/>
      <point x="308.5" y="522" type="curve" smooth="yes"/>
      <point x="255.5" y="522" type="line"/>
    </contour>
    <contour>
      <point x="255.5" y="825" type="line"/>
      <point x="255.5" y="672" type="line"/>
      <point x="368.5" y="672" type="line" smooth="yes"/>
      <point x="529.5" y="672"/>
      <point x="650.5" y="589"/>
      <point x="650.5" y="418" type="curve" smooth="yes"/>
      <point x="650.5" y="248"/>
      <point x="529.5" y="153"/>
      <point x="368.5" y="153" type="curve" smooth="yes"/>
      <point x="255.5" y="153" type="line"/>
      <point x="255.5" y="0" type="line"/>
      <point x="67.5" y="0" type="line"/>
      <point x="67.5" y="825" type="line"/>
    </contour>
  </outline>
</glyph>
<glyph name="germandbls" format="1">
  <advance width="678"/>
  <unicode hex="00DF"/>
  <outline>
    <contour>
      <point x="587" y="638" type="curve"/>
      <point x="587" y="535"/>
      <point x="541" y="484"/>
      <point x="479" y="444" type="curve"/>
      <point x="572" y="398"/>
      <point x="612" y="315"/>
      <point x="612" y="232" type="curve" smooth="yes"/>
      <point x="612" y="-7"/>
      <point x="278" y="0"/>
      <point x="278" y="0" type="curve"/>
      <point x="278" y="142" type="line"/>
      <point x="267" y="167"/>
      <point x="434" y="131"/>
      <point x="434" y="244" type="curve" smooth="yes"/>
      <point x="434" y="341"/>
      <point x="336" y="363"/>
      <point x="297" y="392" type="curve"/>
      <point x="297" y="509" type="line" smooth="yes"/>
      <point x="297" y="568"/>
      <point x="409" y="543"/>
      <point x="409" y="626" type="curve" smooth="yes"/>
      <point x="408" y="718"/>
      <point x="344" y="733"/>
      <point x="278" y="724" type="curve" smooth="yes"/>
      <point x="241.286" y="718.993"/>
      <point x="235" y="653"/>
      <point x="235" y="584" type="curve" smooth="yes"/>
      <point x="235" y="0" type="line"/>
      <point x="67" y="0" type="line"/>
      <point x="66" y="650" type="line" smooth="yes"/>
      <point x="65.4893" y="981.903"/>
      <point x="611.8" y="929.126"/>
    </contour>
  </outline>
</glyph>
<glyph name="atilde" format="1">
  <advance width="733"/>
  <unicode hex="00E3"/>
  <outline>
    <contour>
      <point x="255.5" y="256" type="curve" smooth="yes"/>
      <point x="255.5" y="186"/>
      <point x="303.5" y="136"/>
      <point x="375.5" y="136" type="curve" smooth="yes"/>
      <point x="444.5" y="136"/>
      <point x="494.5" y="186"/>
      <point x="494.5" y="256" type="curve" smooth="yes"/>
      <point x="494.5" y="327"/>
      <point x="441.5" y="377"/>
      <point x="375.5" y="377" type="curve" smooth="yes"/>
      <point x="308.5" y="377"/>
      <point x="255.5" y="327"/>
    </contour>
    <contour>
      <point x="667.5" y="454" type="curve" smooth="yes"/>
      <point x="667.5" y="0" type="line"/>
      <point x="492.5" y="0" type="line"/>
      <point x="492.5" y="58" type="line"/>
      <point x="454.5" y="16"/>
      <point x="392.5" y="-15"/>
      <point x="322.5" y="-15" type="curve" smooth="yes"/>
      <point x="172.5" y="-15"/>
      <point x="67.5" y="106"/>
      <point x="67.5" y="256" type="curve" smooth="yes"/>
      <point x="67.5" y="406"/>
      <point x="172.5" y="528"/>
      <point x="322.5" y="528" type="curve" smooth="yes"/>
      <point x="391.5" y="528"/>
      <point x="667" y="541"/>
    </contour>
    <contour>
      <point x="299.5" y="661" type="curve" smooth="yes"/>
      <point x="267.5" y="661"/>
      <point x="254.5" y="615"/>
      <point x="254.5" y="615" type="curve"/>
      <point x="153.5" y="615" type="line"/>
      <point x="153.5" y="615"/>
      <point x="179.5" y="787"/>
      <point x="289.5" y="787" type="curve" smooth="yes"/>
      <point x="328.5" y="787"/>
      <point x="428.5" y="741"/>
      <point x="469.5" y="741" type="curve" smooth="yes"/>
      <point x="501.5" y="741"/>
      <point x="514.5" y="787"/>
      <point x="514.5" y="787" type="curve"/>
      <point x="615.5" y="787" type="line"/>
      <point x="615.5" y="787"/>
      <point x="589.5" y="615"/>
      <point x="479.5" y="615" type="curve" smooth="yes"/>
      <point x="440.5" y="615"/>
      <point x="363.703" y="661"/>
    </contour>
  </outline>
</glyph>
<glyph name="ccedilla" format="1">
  <advance width="570"/>
  <unicode hex="00E7"/>
  <outline>
    <contour>
      <point x="513" y="31" type="line"/>
      <point x="513" y="31"/>
      <point x="455" y="-15"/>
      <point x="341" y="-15" type="curve" smooth="yes"/>
      <point x="335" y="-15"/>
      <point x="329" y="-15"/>
      <point x="323" y="-14" type="curve"/>
      <point x="307" y="-63" type="line"/>
      <point x="362" y="-63"/>
      <point x="436" y="-96"/>
      <point x="436" y="-165" type="curve" smooth="yes"/>
      <point x="436" y="-228"/>
      <point x="395" y="-294"/>
      <point x="284" y="-294" type="curve" smooth="yes"/>
      <point x="194" y="-294"/>
      <point x="130" y="-211"/>
      <point x="130" y="-211" type="curve"/>
      <point x="202" y="-157" type="line"/>
      <point x="202" y="-157"/>
      <point x="238" y="-204"/>
      <point x="284" y="-204" type="curve" smooth="yes"/>
      <point x="379.707" y="-204"/>
      <point x="368" y="-120"/>
      <point x="272" y="-120" type="curve" smooth="yes"/>
      <point x="236" y="-120"/>
      <point x="221" y="-129"/>
      <point x="221" y="-129" type="curve"/>
      <point x="250" y="0" type="line"/>
      <point x="142" y="36"/>
      <point x="57" y="136"/>
      <point x="57" y="255" type="curve" smooth="yes"/>
      <point x="57" y="406"/>
      <point x="192" y="528"/>
      <point x="341" y="528" type="curve" smooth="yes"/>
      <point x="455" y="528"/>
      <point x="513" y="480"/>
      <point x="513" y="480" type="curve"/>
      <point x="453" y="359" type="line"/>
      <point x="453" y="359"/>
      <point x="420" y="383"/>
      <point x="367" y="383" type="curve" smooth="yes"/>
      <point x="300" y="383"/>
      <point x="245" y="327"/>
      <point x="245" y="257" type="curve" smooth="yes"/>
      <point x="245" y="186"/>
      <point x="300" y="130"/>
      <point x="367" y="130" type="curve" smooth="yes"/>
      <point x="420" y="130"/>
      <point x="453" y="154"/>
      <point x="453" y="154" type="curve"/>
    </contour>
  </outline>
</glyph>
<glyph name="igrave" format="1">
  <advance width="440"/>
  <unicode hex="00EC"/>
  <outline>
    <contour>
      <point x="205" y="513" type="line"/>
      <point x="382" y="513" type="line"/>
      <point x="382" y="0" type="line"/>
      <point x="205" y="0" type="line"/>
    </contour>
    <contour>
      <point x="149" y="840" type="line"/>
      <point x="352" y="664" type="line"/>
      <point x="296" y="587" type="line"/>
      <point x="58" y="725" type="line"/>
    </contour>
  </outline>
</glyph>
<glyph name="iacute" format="1">
  <advance width="438"/>
  <unicode hex="00ED"/>
  <outline>
    <contour>
      <point x="57" y="513" type="line"/>
      <point x="234" y="513" type="line"/>
      <point x="234" y="0" type="line"/>
      <point x="57" y="0" type="line"/>
    </contour>
    <contour>
      <point x="87" y="664" type="line"/>
      <point x="290" y="840" type="line"/>
      <point x="381" y="725" type="line"/>
      <point x="143" y="587" type="line"/>
    </contour>
  </outline>
</glyph>
<glyph name="icircumflex" format="1">
  <advance width="529"/>
  <unicode hex="00EE"/>
  <outline>
    <contour>
      <point x="175.5" y="513" type="line"/>
      <point x="352.5" y="513" type="line"/>
      <point x="352.5" y="0" type="line"/>
      <point x="175.5" y="0" type="line"/>
    </contour>
    <contour>
      <point x="43.5" y="678" type="line"/>
      <point x="264.5" y="840" type="line"/>
      <point x="485.5" y="678" type="line"/>
      <point x="417.5" y="587" type="line"/>
      <point x="264.5" y="699" type="line"/>
      <point x="111.5" y="587" type="line"/>
    </contour>
  </outline>
</glyph>
<glyph name="idieresis" format="1">
  <advance width="516"/>
  <unicode hex="00EF"/>
  <outline>
    <contour>
      <point x="169.5" y="513" type="line"/>
      <point x="346.5" y="513" type="line"/>
      <point x="346.5" y="0" type="line"/>
      <point x="169.5" y="0" type="line"/>
    </contour>
    <contour>
      <point x="376.5" y="791" type="curve" smooth="yes"/>
      <point x="427.5" y="791"/>
      <point x="468.5" y="750"/>
      <point x="468.5" y="699" type="curve" smooth="yes"/>
      <point x="468.5" y="648"/>
      <point x="427.5" y="607"/>
      <point x="376.5" y="607" type="curve" smooth="yes"/>
      <point x="325.5" y="607"/>
      <point x="284.5" y="648"/>
      <point x="284.5" y="699" type="curve" smooth="yes"/>
      <point x="284.5" y="750"/>
      <point x="325.5" y="791"/>
    </contour>
    <contour>
      <point x="139.5" y="791" type="curve" smooth="yes"/>
      <point x="190.5" y="791"/>
      <point x="231.5" y="750"/>
      <point x="231.5" y="699" type="curve" smooth="yes"/>
      <point x="231.5" y="648"/>
      <point x="190.5" y="607"/>
      <point x="139.5" y="607" type="curve" smooth="yes"/>
      <point x="88.5" y="607"/>
      <point x="47.5" y="648"/>
      <point x="47.5" y="699" type="curve" smooth="yes"/>
      <point x="47.5" y="750"/>
      <point x="88.5" y="791"/>
    </contour>
  </outline>
</glyph>
<glyph name="eth" format="1">
  <advance width="736"/>
  <unicode hex="00F0"/>
  <outline>
    <contour>
      <point x="248.5" y="256" type="curve" smooth="yes"/>
      <point x="248.5" y="186"/>
      <point x="296.5" y="136"/>
      <point x="368.5" y="136" type="curve" smooth="yes"/>
      <point x="437.5" y="136"/>
      <point x="487.5" y="186"/>
      <point x="487.5" y="256" type="curve" smooth="yes"/>
      <point x="487.5" y="261" type="line" smooth="yes"/>
      <point x="484.5" y="329"/>
      <point x="432.5" y="377"/>
      <point x="368.5" y="377" type="curve" smooth="yes"/>
      <point x="301.5" y="377"/>
      <point x="248.5" y="327"/>
    </contour>
    <contour>
      <point x="60.5" y="256" type="curve" smooth="yes"/>
      <point x="60.5" y="424"/>
      <point x="208.5" y="528"/>
      <point x="318.5" y="528" type="curve" smooth="yes"/>
      <point x="332.5" y="528"/>
      <point x="379.5" y="528"/>
      <point x="408.5" y="512" type="curve"/>
      <point x="375.5" y="559"/>
      <point x="333.5" y="597"/>
      <point x="291.5" y="627" type="curve"/>
      <point x="208.5" y="545" type="line"/>
      <point x="131.5" y="622" type="line"/>
      <point x="193.5" y="684" type="line"/>
      <point x="130.5" y="714"/>
      <point x="82.5" y="725"/>
      <point x="82.5" y="725" type="curve"/>
      <point x="124.5" y="875" type="line"/>
      <point x="124.5" y="875"/>
      <point x="209.5" y="856"/>
      <point x="312.5" y="803" type="curve"/>
      <point x="385.5" y="875" type="line"/>
      <point x="461.5" y="797" type="line"/>
      <point x="409.5" y="745" type="line"/>
      <point x="543.5" y="651"/>
      <point x="675.5" y="498"/>
      <point x="675.5" y="256" type="curve" smooth="yes"/>
      <point x="675.5" y="98"/>
      <point x="546.5" y="-15"/>
      <point x="369.5" y="-15" type="curve" smooth="yes"/>
      <point x="184.5" y="-15"/>
      <point x="60.5" y="98"/>
    </contour>
  </outline>
</glyph>
<glyph name="ntilde" format="1">
  <advance width="692"/>
  <unicode hex="00F1"/>
  <outline>
    <contour>
      <point x="255.5" y="661" type="curve" smooth="yes"/>
      <point x="223.5" y="661"/>
      <point x="210.5" y="615"/>
      <point x="210.5" y="615" type="curve"/>
      <point x="109.5" y="615" type="line"/>
      <point x="109.5" y="615"/>
      <point x="135.5" y="787"/>
      <point x="245.5" y="787" type="curve" smooth="yes"/>
      <point x="284.5" y="787"/>
      <point x="384.5" y="741"/>
      <point x="425.5" y="741" type="curve" smooth="yes"/>
      <point x="457.5" y="741"/>
      <point x="470.5" y="787"/>
      <point x="470.5" y="787" type="curve"/>
      <point x="571.5" y="787" type="line"/>
      <point x="571.5" y="787"/>
      <point x="545.5" y="615"/>
      <point x="435.5" y="615" type="curve" smooth="yes"/>
      <point x="396.5" y="615"/>
      <point x="319.703" y="661"/>
    </contour>
    <contour>
      <point x="254.5" y="0" type="line"/>
      <point x="70.5" y="0" type="line"/>
      <point x="70.5" y="520" type="line"/>
      <point x="210.5" y="520" type="line"/>
      <point x="210.5" y="491" type="line"/>
      <point x="244.5" y="514"/>
      <point x="291.5" y="528"/>
      <point x="356.5" y="528" type="curve" smooth="yes"/>
      <point x="548.5" y="528"/>
      <point x="633.5" y="459"/>
      <point x="633.5" y="287" type="curve" smooth="yes"/>
      <point x="633.5" y="0" type="line"/>
      <point x="456.5" y="0" type="line"/>
      <point x="456.5" y="244" type="line" smooth="yes"/>
      <point x="456.5" y="345"/>
      <point x="430.5" y="384"/>
      <point x="356.5" y="384" type="curve" smooth="yes"/>
      <point x="282.5" y="384"/>
      <point x="254.5" y="345"/>
      <point x="254.5" y="244" type="curve" smooth="yes"/>
    </contour>
  </outline>
</glyph>
<glyph name="oacute" format="1">
  <advance width="735"/>
  <unicode hex="00F3"/>
  <outline>
    <contour>
      <point x="248" y="256" type="curve" smooth="yes"/>
      <point x="248" y="186"/>
      <point x="296" y="136"/>
      <point x="368" y="136" type="curve" smooth="yes"/>
      <point x="437" y="136"/>
      <point x="487" y="186"/>
      <point x="487" y="256" type="curve" smooth="yes"/>
      <point x="487" y="327"/>
      <point x="434" y="377"/>
      <point x="368" y="377" type="curve" smooth="yes"/>
      <point x="301" y="377"/>
      <point x="248" y="327"/>
    </contour>
    <contour>
      <point x="60" y="256" type="curve" smooth="yes"/>
      <point x="60" y="416"/>
      <point x="196" y="528"/>
      <point x="369" y="528" type="curve" smooth="yes"/>
      <point x="539" y="528"/>
      <point x="675" y="416"/>
      <point x="675" y="256" type="curve" smooth="yes"/>
      <point x="675" y="98"/>
      <point x="546" y="-15"/>
      <point x="369" y="-15" type="curve" smooth="yes"/>
      <point x="184" y="-15"/>
      <point x="60" y="98"/>
    </contour>
    <contour>
      <point x="269" y="664" type="line"/>
      <point x="472" y="840" type="line"/>
      <point x="563" y="725" type="line"/>
      <point x="325" y="587" type="line"/>
    </contour>
  </outline>
</glyph>
<glyph name="ocircumflex" format="1">
  <advance width="734"/>
  <unicode hex="00F4"/>
  <outline>
    <contour>
      <point x="247.5" y="256" type="curve" smooth="yes"/>
      <point x="247.5" y="186"/>
      <point x="295.5" y="136"/>
      <point x="367.5" y="136" type="curve" smooth="yes"/>
      <point x="436.5" y="136"/>
      <point x="486.5" y="186"/>
      <point x="486.5" y="256" type="curve" smooth="yes"/>
      <point x="486.5" y="327"/>
      <point x="433.5" y="377"/>
      <point x="367.5" y="377" type="curve" smooth="yes"/>
      <point x="300.5" y="377"/>
      <point x="247.5" y="327"/>
    </contour>
    <contour>
      <point x="59.5" y="256" type="curve" smooth="yes"/>
      <point x="59.5" y="416"/>
      <point x="195.5" y="528"/>
      <point x="368.5" y="528" type="curve" smooth="yes"/>
      <point x="538.5" y="528"/>
      <point x="674.5" y="416"/>
      <point x="674.5" y="256" type="curve" smooth="yes"/>
      <point x="674.5" y="98"/>
      <point x="545.5" y="-15"/>
      <point x="368.5" y="-15" type="curve" smooth="yes"/>
      <point x="183.5" y="-15"/>
      <point x="59.5" y="98"/>
    </contour>
    <contour>
      <point x="145.5" y="678" type="line"/>
      <point x="366.5" y="840" type="line"/>
      <point x="587.5" y="678" type="line"/>
      <point x="519.5" y="587" type="line"/>
      <point x="366.5" y="699" type="line"/>
      <point x="213.5" y="587" type="line"/>
    </contour>
  </outline>
</glyph>
<glyph name="odieresis" format="1">
  <advance width="734"/>
  <unicode hex="00F6"/>
  <outline>
    <contour>
      <point x="247.5" y="256" type="curve" smooth="yes"/>
      <point x="247.5" y="186"/>
      <point x="295.5" y="136"/>
      <point x="367.5" y="136" type="curve" smooth="yes"/>
      <point x="436.5" y="136"/>
      <point x="486.5" y="186"/>
      <point x="486.5" y="256" type="curve" smooth="yes"/>
      <point x="486.5" y="327"/>
      <point x="433.5" y="377"/>
      <point x="367.5" y="377" type="curve" smooth="yes"/>
      <point x="300.5" y="377"/>
      <point x="247.5" y="327"/>
    </contour>
    <contour>
      <point x="59.5" y="256" type="curve" smooth="yes"/>
      <point x="59.5" y="416"/>
      <point x="195.5" y="528"/>
      <point x="368.5" y="528" type="curve" smooth="yes"/>
      <point x="538.5" y="528"/>
      <point x="674.5" y="416"/>
      <point x="674.5" y="256" type="curve" smooth="yes"/>
      <point x="674.5" y="98"/>
      <point x="545.5" y="-15"/>
      <point x="368.5" y="-15" type="curve" smooth="yes"/>
      <point x="183.5" y="-15"/>
      <point x="59.5" y="98"/>
    </contour>
    <contour>
      <point x="485.5" y="791" type="curve" smooth="yes"/>
      <point x="536.5" y="791"/>
      <point x="577.5" y="750"/>
      <point x="577.5" y="699" type="curve" smooth="yes"/>
      <point x="577.5" y="648"/>
      <point x="536.5" y="607"/>
      <point x="485.5" y="607" type="curve" smooth="yes"/>
      <point x="434.5" y="607"/>
      <point x="393.5" y="648"/>
      <point x="393.5" y="699" type="curve" smooth="yes"/>
      <point x="393.5" y="750"/>
      <point x="434.5" y="791"/>
    </contour>
    <contour>
      <point x="248.5" y="791" type="curve" smooth="yes"/>
      <point x="299.5" y="791"/>
      <point x="340.5" y="750"/>
      <point x="340.5" y="699" type="curve" smooth="yes"/>
      <point x="340.5" y="648"/>
      <point x="299.5" y="607"/>
      <point x="248.5" y="607" type="curve" smooth="yes"/>
      <point x="197.5" y="607"/>
      <point x="156.5" y="648"/>
      <point x="156.5" y="699" type="curve" smooth="yes"/>
      <point x="156.5" y="750"/>
      <point x="197.5" y="791"/>
    </contour>
  </outline>
</glyph>
<glyph name="divide" format="1">
  <advance width="639"/>
  <unicode hex="00F7"/>
  <outline>
    <contour>
      <point x="318" y="271" type="curve" smooth="yes"/>
      <point x="364" y="271"/>
      <point x="400" y="235"/>
      <point x="400" y="189" type="curve" smooth="yes"/>
      <point x="400" y="145"/>
      <point x="364" y="109"/>
      <point x="318" y="109" type="curve" smooth="yes"/>
      <point x="274" y="109"/>
      <point x="238" y="145"/>
      <point x="238" y="189" type="curve" smooth="yes"/>
      <point x="238" y="235"/>
      <point x="274" y="271"/>
    </contour>
    <contour>
      <point x="63" y="491" type="line"/>
      <point x="576" y="491" type="line"/>
      <point x="576" y="338" type="line"/>
      <point x="63" y="338" type="line"/>
    </contour>
    <contour>
      <point x="318" y="720" type="curve" smooth="yes"/>
      <point x="364" y="720"/>
      <point x="400" y="684"/>
      <point x="400" y="638" type="curve" smooth="yes"/>
      <point x="400" y="594"/>
      <point x="364" y="558"/>
      <point x="318" y="558" type="curve" smooth="yes"/>
      <point x="274" y="558"/>
      <point x="238" y="594"/>
      <point x="238" y="638" type="curve" smooth="yes"/>
      <point x="238" y="684"/>
      <point x="274" y="720"/>
    </contour>
  </outline>
</glyph>
<glyph name="oslash" format="1">
  <advance width="775"/>
  <unicode hex="00F8"/>
  <outline>
    <contour>
      <point x="388" y="136" type="curve" smooth="yes"/>
      <point x="457" y="136"/>
      <point x="507" y="186"/>
      <point x="507" y="256" type="curve" smooth="yes"/>
      <point x="507" y="272"/>
      <point x="504" y="287"/>
      <point x="499" y="301" type="curve"/>
      <point x="319" y="155" type="line"/>
      <point x="338" y="143"/>
      <point x="361" y="136"/>
    </contour>
    <contour>
      <point x="268" y="256" type="curve" smooth="yes"/>
      <point x="268" y="239"/>
      <point x="270" y="224"/>
      <point x="275" y="210" type="curve"/>
      <point x="456" y="356" type="line"/>
      <point x="437" y="369"/>
      <point x="413" y="377"/>
      <point x="388" y="377" type="curve" smooth="yes"/>
      <point x="321" y="377"/>
      <point x="268" y="327"/>
    </contour>
    <contour>
      <point x="725" y="484" type="line"/>
      <point x="640" y="415" type="line"/>
      <point x="675" y="372"/>
      <point x="695" y="317"/>
      <point x="695" y="256" type="curve" smooth="yes"/>
      <point x="695" y="98"/>
      <point x="566" y="-15"/>
      <point x="389" y="-15" type="curve" smooth="yes"/>
      <point x="307" y="-15"/>
      <point x="236" y="7"/>
      <point x="184" y="46" type="curve"/>
      <point x="95" y="-26" type="line"/>
      <point x="50" y="28" type="line"/>
      <point x="133" y="95" type="line"/>
      <point x="99" y="139"/>
      <point x="80" y="194"/>
      <point x="80" y="256" type="curve" smooth="yes"/>
      <point x="80" y="416"/>
      <point x="216" y="528"/>
      <point x="389" y="528" type="curve" smooth="yes"/>
      <point x="466" y="528"/>
      <point x="536" y="505"/>
      <point x="590" y="465" type="curve"/>
      <point x="680" y="538" type="line"/>
    </contour>
  </outline>
</glyph>
<glyph name="uacute" format="1">
  <advance width="693"/>
  <unicode hex="00FA"/>
  <outline>
    <contour>
      <point x="68.5" y="513" type="line"/>
      <point x="245.5" y="513" type="line"/>
      <point x="245.5" y="269" type="line" smooth="yes"/>
      <point x="245.5" y="168"/>
      <point x="272.5" y="129"/>
      <point x="346.5" y="129" type="curve" smooth="yes"/>
      <point x="420.5" y="129"/>
      <point x="447.5" y="168"/>
      <point x="447.5" y="269" type="curve" smooth="yes"/>
      <point x="447.5" y="513" type="line"/>
      <point x="624.5" y="513" type="line"/>
      <point x="624.5" y="226" type="line" smooth="yes"/>
      <point x="624.5" y="54"/>
      <point x="538.5" y="-15"/>
      <point x="346.5" y="-15" type="curve" smooth="yes"/>
      <point x="154.5" y="-15"/>
      <point x="68.5" y="54"/>
      <point x="68.5" y="226" type="curve" smooth="yes"/>
    </contour>
    <contour>
      <point x="287.5" y="664" type="line"/>
      <point x="490.5" y="840" type="line"/>
      <point x="581.5" y="725" type="line"/>
      <point x="343.5" y="587" type="line"/>
    </contour>
  </outline>
</glyph>
<glyph name="ucircumflex" format="1">
  <advance width="692"/>
  <unicode hex="00FB"/>
  <outline>
    <contour>
      <point x="68" y="513" type="line"/>
      <point x="245" y="513" type="line"/>
      <point x="245" y="269" type="line" smooth="yes"/>
      <point x="245" y="168"/>
      <point x="272" y="129"/>
      <point x="346" y="129" type="curve" smooth="yes"/>
      <point x="420" y="129"/>
      <point x="447" y="168"/>
      <point x="447" y="269" type="curve" smooth="yes"/>
      <point x="447" y="513" type="line"/>
      <point x="624" y="513" type="line"/>
      <point x="624" y="226" type="line" smooth="yes"/>
      <point x="624" y="54"/>
      <point x="538" y="-15"/>
      <point x="346" y="-15" type="curve" smooth="yes"/>
      <point x="154" y="-15"/>
      <point x="68" y="54"/>
      <point x="68" y="226" type="curve" smooth="yes"/>
    </contour>
    <contour>
      <point x="125" y="678" type="line"/>
      <point x="346" y="840" type="line"/>
      <point x="567" y="678" type="line"/>
      <point x="499" y="587" type="line"/>
      <point x="346" y="699" type="line"/>
      <point x="193" y="587" type="line"/>
    </contour>
  </outline>
</glyph>
<glyph name="udieresis" format="1">
  <advance width="693"/>
  <unicode hex="00FC"/>
  <outline>
    <contour>
      <point x="68.5" y="513" type="line"/>
      <point x="245.5" y="513" type="line"/>
      <point x="245.5" y="269" type="line" smooth="yes"/>
      <point x="245.5" y="168"/>
      <point x="272.5" y="129"/>
      <point x="346.5" y="129" type="curve" smooth="yes"/>
      <point x="420.5" y="129"/>
      <point x="447.5" y="168"/>
      <point x="447.5" y="269" type="curve" smooth="yes"/>
      <point x="447.5" y="513" type="line"/>
      <point x="624.5" y="513" type="line"/>
      <point x="624.5" y="226" type="line" smooth="yes"/>
      <point x="624.5" y="54"/>
      <point x="538.5" y="-15"/>
      <point x="346.5" y="-15" type="curve" smooth="yes"/>
      <point x="154.5" y="-15"/>
      <point x="68.5" y="54"/>
      <point x="68.5" y="226" type="curve" smooth="yes"/>
    </contour>
    <contour>
      <point x="464.5" y="791" type="curve" smooth="yes"/>
      <point x="515.5" y="791"/>
      <point x="556.5" y="750"/>
      <point x="556.5" y="699" type="curve" smooth="yes"/>
      <point x="556.5" y="648"/>
      <point x="515.5" y="607"/>
      <point x="464.5" y="607" type="curve" smooth="yes"/>
      <point x="413.5" y="607"/>
      <point x="372.5" y="648"/>
      <point x="372.5" y="699" type="curve" smooth="yes"/>
      <point x="372.5" y="750"/>
      <point x="413.5" y="791"/>
    </contour>
    <contour>
      <point x="227.5" y="791" type="curve" smooth="yes"/>
      <point x="278.5" y="791"/>
      <point x="319.5" y="750"/>
      <point x="319.5" y="699" type="curve" smooth="yes"/>
      <point x="319.5" y="648"/>
      <point x="278.5" y="607"/>
      <point x="227.5" y="607" type="curve" smooth="yes"/>
      <point x="176.5" y="607"/>
      <point x="135.5" y="648"/>
      <point x="135.5" y="699" type="curve" smooth="yes"/>
      <point x="135.5" y="750"/>
      <point x="176.5" y="791"/>
    </contour>
  </outline>
</glyph>
<glyph name="yacute" format="1">
  <advance width="767"/>
  <unicode hex="00FD"/>
  <outline>
    <contour>
      <point x="516" y="513" type="line"/>
      <point x="720" y="513" type="line"/>
      <point x="317" y="-260" type="line"/>
      <point x="113" y="-260" type="line"/>
      <point x="290" y="80" type="line"/>
      <point x="47" y="513" type="line"/>
      <point x="251" y="513" type="line"/>
      <point x="394" y="250" type="line"/>
    </contour>
    <contour>
      <point x="286" y="664" type="line"/>
      <point x="489" y="840" type="line"/>
      <point x="580" y="725" type="line"/>
      <point x="342" y="587" type="line"/>
    </contour>
  </outline>
</glyph>
<glyph name="thorn" format="1">
  <advance width="736"/>
  <unicode hex="00FE"/>
  <outline>
    <contour>
      <point x="480" y="256" type="curve" smooth="yes"/>
      <point x="480" y="327"/>
      <point x="427" y="377"/>
      <point x="360" y="377" type="curve" smooth="yes"/>
      <point x="294" y="377"/>
      <point x="241" y="327"/>
      <point x="241" y="256" type="curve" smooth="yes"/>
      <point x="241" y="186"/>
      <point x="291" y="136"/>
      <point x="360" y="136" type="curve" smooth="yes"/>
      <point x="432" y="136"/>
      <point x="480" y="186"/>
    </contour>
    <contour>
      <point x="243" y="-260" type="line"/>
      <point x="68" y="-260" type="line"/>
      <point x="68" y="860" type="line"/>
      <point x="245" y="860" type="line"/>
      <point x="245" y="464" type="line"/>
      <point x="287" y="505"/>
      <point x="344" y="528"/>
      <point x="413" y="528" type="curve" smooth="yes"/>
      <point x="563" y="528"/>
      <point x="668" y="406"/>
      <point x="668" y="256" type="curve" smooth="yes"/>
      <point x="668" y="106"/>
      <point x="563" y="-15"/>
      <point x="413" y="-15" type="curve" smooth="yes"/>
      <point x="343" y="-15"/>
      <point x="281" y="16"/>
      <point x="243" y="58" type="curve"/>
    </contour>
  </outline>
</glyph>
<glyph name="ydieresis" format="1">
  <advance width="766"/>
  <unicode hex="00FF"/>
  <outline>
    <contour>
      <point x="515.5" y="513" type="line"/>
      <point x="719.5" y="513" type="line"/>
      <point x="316.5" y="-260" type="line"/>
      <point x="112.5" y="-260" type="line"/>
      <point x="289.5" y="80" type="line"/>
      <point x="46.5" y="513" type="line"/>
      <point x="250.5" y="513" type="line"/>
      <point x="393.5" y="250" type="line"/>
    </contour>
    <contour>
      <point x="501.5" y="791" type="curve" smooth="yes"/>
      <point x="552.5" y="791"/>
      <point x="593.5" y="750"/>
      <point x="593.5" y="699" type="curve" smooth="yes"/>
      <point x="593.5" y="648"/>
      <point x="552.5" y="607"/>
      <point x="501.5" y="607" type="curve" smooth="yes"/>
      <point x="450.5" y="607"/>
      <point x="409.5" y="648"/>
      <point x="409.5" y="699" type="curve" smooth="yes"/>
      <point x="409.5" y="750"/>
      <point x="450.5" y="791"/>
    </contour>
    <contour>
      <point x="264.5" y="791" type="curve" smooth="yes"/>
      <point x="315.5" y="791"/>
      <point x="356.5" y="750"/>
      <point x="356.5" y="699" type="curve" smooth="yes"/>
      <point x="356.5" y="648"/>
      <point x="315.5" y="607"/>
      <point x="264.5" y="607" type="curve" smooth="yes"/>
      <point x="213.5" y="607"/>
      <point x="172.5" y="648"/>
      <point x="172.5" y="699" type="curve" smooth="yes"/>
      <point x="172.5" y="750"/>
      <point x="213.5" y="791"/>
    </contour>
  </outline>
</glyph>
<glyph name="Amacron" format="1">
  <advance width="931"/>
  <unicode hex="0100"/>
  <outline>
    <contour>
      <point x="258.5" y="1066" type="line"/>
      <point x="666.5" y="1066" type="line"/>
      <point x="666.5" y="946" type="line"/>
      <point x="258.5" y="946" type="line"/>
    </contour>
    <contour>
      <point x="551.5" y="825" type="line"/>
      <point x="885.5" y="0" type="line"/>
      <point x="683.5" y="0" type="line"/>
      <point x="621.5" y="165" type="line"/>
      <point x="307.5" y="165" type="line"/>
      <point x="247.5" y="0" type="line"/>
      <point x="45.5" y="0" type="line"/>
      <point x="377.5" y="825" type="line"/>
    </contour>
    <contour>
      <point x="557.5" y="330" type="line"/>
      <point x="463.5" y="570" type="line"/>
      <point x="371.5" y="330" type="line"/>
    </contour>
  </outline>
</glyph>
<glyph name="Abreve" format="1">
  <advance width="930"/>
  <unicode hex="0102"/>
  <outline>
    <contour>
      <point x="570" y="1152" type="curve"/>
      <point x="696" y="1121" type="line"/>
      <point x="684" y="1014"/>
      <point x="594" y="940"/>
      <point x="465" y="940" type="curve" smooth="yes"/>
      <point x="336" y="940"/>
      <point x="246" y="1014"/>
      <point x="234" y="1121" type="curve"/>
      <point x="360" y="1152" type="line"/>
      <point x="360" y="1152"/>
      <point x="371" y="1049"/>
      <point x="465" y="1049" type="curve" smooth="yes"/>
      <point x="559" y="1049"/>
      <point x="570" y="1152"/>
    </contour>
    <contour>
      <point x="551" y="825" type="line"/>
      <point x="885" y="0" type="line"/>
      <point x="683" y="0" type="line"/>
      <point x="621" y="165" type="line"/>
      <point x="307" y="165" type="line"/>
      <point x="247" y="0" type="line"/>
      <point x="45" y="0" type="line"/>
      <point x="377" y="825" type="line"/>
    </contour>
    <contour>
      <point x="557" y="330" type="line"/>
      <point x="463" y="570" type="line"/>
      <point x="371" y="330" type="line"/>
    </contour>
  </outline>
</glyph>
<glyph name="Aogonek" format="1">
  <advance width="932"/>
  <unicode hex="0104"/>
  <outline>
    <contour>
      <point x="558" y="330" type="line"/>
      <point x="464" y="570" type="line"/>
      <point x="372" y="330" type="line"/>
    </contour>
    <contour>
      <point x="552" y="825" type="line"/>
      <point x="886" y="0" type="line"/>
      <point x="766" y="0" type="line"/>
      <point x="766" y="0"/>
      <point x="707" y="-70"/>
      <point x="707" y="-140" type="curve" smooth="yes"/>
      <point x="707" y="-165"/>
      <point x="727" y="-179"/>
      <point x="744" y="-179" type="curve" smooth="yes"/>
      <point x="775" y="-179"/>
      <point x="795" y="-149"/>
      <point x="795" y="-149" type="curve"/>
      <point x="867" y="-203" type="line"/>
      <point x="867" y="-203"/>
      <point x="822" y="-275"/>
      <point x="730" y="-275" type="curve" smooth="yes"/>
      <point x="678" y="-275"/>
      <point x="604" y="-245"/>
      <point x="604" y="-158" type="curve" smooth="yes"/>
      <point x="604" y="-101"/>
      <point x="654" y="-35"/>
      <point x="684" y="0" type="curve"/>
      <point x="622" y="165" type="line"/>
      <point x="308" y="165" type="line"/>
      <point x="248" y="0" type="line"/>
      <point x="46" y="0" type="line"/>
      <point x="378" y="825" type="line"/>
    </contour>
  </outline>
</glyph>
<glyph name="aogonek" format="1">
  <advance width="735"/>
  <unicode hex="0105"/>
  <outline>
    <contour>
      <point x="492.5" y="0" type="curve"/>
      <point x="492.5" y="58" type="line"/>
      <point x="454.5" y="16"/>
      <point x="392.5" y="-15"/>
      <point x="322.5" y="-15" type="curve" smooth="yes"/>
      <point x="172.5" y="-15"/>
      <point x="67.5" y="106"/>
      <point x="67.5" y="256" type="curve" smooth="yes"/>
      <point x="67.5" y="406"/>
      <point x="172.5" y="528"/>
      <point x="322.5" y="528" type="curve" smooth="yes"/>
      <point x="391.5" y="528"/>
      <point x="667" y="541"/>
      <point x="667.5" y="454" type="curve" smooth="yes"/>
      <point x="667.5" y="0" type="line"/>
      <point x="571.5" y="0" type="line"/>
      <point x="571.5" y="0"/>
      <point x="511.5" y="-70"/>
      <point x="511.5" y="-140" type="curve" smooth="yes"/>
      <point x="511.5" y="-165"/>
      <point x="531.5" y="-179"/>
      <point x="548.5" y="-179" type="curve" smooth="yes"/>
      <point x="579.5" y="-179"/>
      <point x="599.5" y="-149"/>
      <point x="599.5" y="-149" type="curve"/>
      <point x="671.5" y="-203" type="line"/>
      <point x="671.5" y="-203"/>
      <point x="626.5" y="-275"/>
      <point x="534.5" y="-275" type="curve" smooth="yes"/>
      <point x="482.5" y="-275"/>
      <point x="408.5" y="-245"/>
      <point x="408.5" y="-158" type="curve" smooth="yes"/>
      <point x="408.5" y="-101"/>
      <point x="462.5" y="-35"/>
    </contour>
    <contour>
      <point x="255.5" y="256" type="curve" smooth="yes"/>
      <point x="255.5" y="186"/>
      <point x="303.5" y="136"/>
      <point x="375.5" y="136" type="curve" smooth="yes"/>
      <point x="444.5" y="136"/>
      <point x="494.5" y="186"/>
      <point x="494.5" y="256" type="curve" smooth="yes"/>
      <point x="494.5" y="327"/>
      <point x="441.5" y="377"/>
      <point x="375.5" y="377" type="curve" smooth="yes"/>
      <point x="308.5" y="377"/>
      <point x="255.5" y="327"/>
    </contour>
  </outline>
</glyph>
<glyph name="Cacute" format="1">
  <advance width="826"/>
  <unicode hex="0106"/>
  <outline>
    <contour>
      <point x="739" y="25" type="line"/>
      <point x="739" y="25"/>
      <point x="680" y="-15"/>
      <point x="501" y="-15" type="curve" smooth="yes"/>
      <point x="268" y="-15"/>
      <point x="54" y="175"/>
      <point x="54" y="411" type="curve" smooth="yes"/>
      <point x="54" y="648"/>
      <point x="267" y="840"/>
      <point x="501" y="840" type="curve" smooth="yes"/>
      <point x="680" y="840"/>
      <point x="739" y="800"/>
      <point x="739" y="800" type="curve"/>
      <point x="699" y="615" type="line"/>
      <point x="699" y="615"/>
      <point x="626" y="655"/>
      <point x="530" y="655" type="curve" smooth="yes"/>
      <point x="341" y="655"/>
      <point x="258" y="523"/>
      <point x="258" y="413" type="curve" smooth="yes"/>
      <point x="258" y="302"/>
      <point x="341" y="170"/>
      <point x="530" y="170" type="curve" smooth="yes"/>
      <point x="626" y="170"/>
      <point x="699" y="210"/>
      <point x="699" y="210" type="curve"/>
    </contour>
    <contour>
      <point x="302" y="976" type="line"/>
      <point x="505" y="1152" type="line"/>
      <point x="596" y="1037" type="line"/>
      <point x="358" y="899" type="line"/>
    </contour>
  </outline>
</glyph>
<glyph name="Ccircumflex" format="1">
  <advance width="826"/>
  <unicode hex="0108"/>
  <outline>
    <contour>
      <point x="739" y="25" type="line"/>
      <point x="739" y="25"/>
      <point x="680" y="-15"/>
      <point x="501" y="-15" type="curve" smooth="yes"/>
      <point x="268" y="-15"/>
      <point x="54" y="175"/>
      <point x="54" y="411" type="curve" smooth="yes"/>
      <point x="54" y="648"/>
      <point x="267" y="840"/>
      <point x="501" y="840" type="curve" smooth="yes"/>
      <point x="680" y="840"/>
      <point x="739" y="800"/>
      <point x="739" y="800" type="curve"/>
      <point x="699" y="615" type="line"/>
      <point x="699" y="615"/>
      <point x="626" y="655"/>
      <point x="530" y="655" type="curve" smooth="yes"/>
      <point x="341" y="655"/>
      <point x="258" y="523"/>
      <point x="258" y="413" type="curve" smooth="yes"/>
      <point x="258" y="302"/>
      <point x="341" y="170"/>
      <point x="530" y="170" type="curve" smooth="yes"/>
      <point x="626" y="170"/>
      <point x="699" y="210"/>
      <point x="699" y="210" type="curve"/>
    </contour>
    <contour>
      <point x="231" y="976" type="line"/>
      <point x="452" y="1138" type="line"/>
      <point x="673" y="976" type="line"/>
      <point x="605" y="885" type="line"/>
      <point x="452" y="997" type="line"/>
      <point x="299" y="885" type="line"/>
    </contour>
  </outline>
</glyph>
<glyph name="ccircumflex" format="1">
  <advance width="571"/>
  <unicode hex="0109"/>
  <outline>
    <contour>
      <point x="510" y="31" type="line"/>
      <point x="510" y="31"/>
      <point x="452" y="-15"/>
      <point x="338" y="-15" type="curve" smooth="yes"/>
      <point x="190" y="-15"/>
      <point x="54" y="105"/>
      <point x="54" y="255" type="curve" smooth="yes"/>
      <point x="54" y="406"/>
      <point x="189" y="528"/>
      <point x="338" y="528" type="curve" smooth="yes"/>
      <point x="452" y="528"/>
      <point x="510" y="480"/>
      <point x="510" y="480" type="curve"/>
      <point x="450" y="359" type="line"/>
      <point x="450" y="359"/>
      <point x="417" y="383"/>
      <point x="364" y="383" type="curve" smooth="yes"/>
      <point x="297" y="383"/>
      <point x="242" y="327"/>
      <point x="242" y="257" type="curve" smooth="yes"/>
      <point x="242" y="186"/>
      <point x="297" y="130"/>
      <point x="364" y="130" type="curve" smooth="yes"/>
      <point x="417" y="130"/>
      <point x="450" y="154"/>
      <point x="450" y="154" type="curve"/>
    </contour>
    <contour>
      <point x="75" y="658" type="line"/>
      <point x="296" y="820" type="line"/>
      <point x="517" y="658" type="line"/>
      <point x="449" y="567" type="line"/>
      <point x="296" y="679" type="line"/>
      <point x="143" y="567" type="line"/>
    </contour>
  </outline>
</glyph>
<glyph name="Cdotaccent" format="1">
  <advance width="826"/>
  <unicode hex="010A"/>
  <outline>
    <contour>
      <point x="739" y="25" type="line"/>
      <point x="739" y="25"/>
      <point x="680" y="-15"/>
      <point x="501" y="-15" type="curve" smooth="yes"/>
      <point x="268" y="-15"/>
      <point x="54" y="175"/>
      <point x="54" y="411" type="curve" smooth="yes"/>
      <point x="54" y="648"/>
      <point x="267" y="840"/>
      <point x="501" y="840" type="curve" smooth="yes"/>
      <point x="680" y="840"/>
      <point x="739" y="800"/>
      <point x="739" y="800" type="curve"/>
      <point x="699" y="615" type="line"/>
      <point x="699" y="615"/>
      <point x="626" y="655"/>
      <point x="530" y="655" type="curve" smooth="yes"/>
      <point x="341" y="655"/>
      <point x="258" y="523"/>
      <point x="258" y="413" type="curve" smooth="yes"/>
      <point x="258" y="302"/>
      <point x="341" y="170"/>
      <point x="530" y="170" type="curve" smooth="yes"/>
      <point x="626" y="170"/>
      <point x="699" y="210"/>
      <point x="699" y="210" type="curve"/>
    </contour>
    <contour>
      <point x="449" y="1103" type="curve" smooth="yes"/>
      <point x="500" y="1103"/>
      <point x="541" y="1062"/>
      <point x="541" y="1011" type="curve" smooth="yes"/>
      <point x="541" y="960"/>
      <point x="500" y="919"/>
      <point x="449" y="919" type="curve" smooth="yes"/>
      <point x="398" y="919"/>
      <point x="357" y="960"/>
      <point x="357" y="1011" type="curve" smooth="yes"/>
      <point x="357" y="1062"/>
      <point x="398" y="1103"/>
    </contour>
  </outline>
</glyph>
<glyph name="cdotaccent" format="1">
  <advance width="567"/>
  <unicode hex="010B"/>
  <outline>
    <contour>
      <point x="510" y="31" type="line"/>
      <point x="510" y="31"/>
      <point x="452" y="-15"/>
      <point x="338" y="-15" type="curve" smooth="yes"/>
      <point x="190" y="-15"/>
      <point x="54" y="105"/>
      <point x="54" y="255" type="curve" smooth="yes"/>
      <point x="54" y="406"/>
      <point x="189" y="528"/>
      <point x="338" y="528" type="curve" smooth="yes"/>
      <point x="452" y="528"/>
      <point x="510" y="480"/>
      <point x="510" y="480" type="curve"/>
      <point x="450" y="359" type="line"/>
      <point x="450" y="359"/>
      <point x="417" y="383"/>
      <point x="364" y="383" type="curve" smooth="yes"/>
      <point x="297" y="383"/>
      <point x="242" y="327"/>
      <point x="242" y="257" type="curve" smooth="yes"/>
      <point x="242" y="186"/>
      <point x="297" y="130"/>
      <point x="364" y="130" type="curve" smooth="yes"/>
      <point x="417" y="130"/>
      <point x="450" y="154"/>
      <point x="450" y="154" type="curve"/>
    </contour>
    <contour>
      <point x="297.5" y="781" type="curve" smooth="yes"/>
      <point x="348.5" y="781"/>
      <point x="389.5" y="740"/>
      <point x="389.5" y="689" type="curve" smooth="yes"/>
      <point x="389.5" y="638"/>
      <point x="348.5" y="597"/>
      <point x="297.5" y="597" type="curve" smooth="yes"/>
      <point x="246.5" y="597"/>
      <point x="205.5" y="638"/>
      <point x="205.5" y="689" type="curve" smooth="yes"/>
      <point x="205.5" y="740"/>
      <point x="246.5" y="781"/>
    </contour>
  </outline>
</glyph>
<glyph name="ccaron" format="1">
  <advance width="568"/>
  <unicode hex="010D"/>
  <outline>
    <contour>
      <point x="510" y="31" type="line"/>
      <point x="510" y="31"/>
      <point x="452" y="-15"/>
      <point x="338" y="-15" type="curve" smooth="yes"/>
      <point x="190" y="-15"/>
      <point x="54" y="105"/>
      <point x="54" y="255" type="curve" smooth="yes"/>
      <point x="54" y="406"/>
      <point x="189" y="528"/>
      <point x="338" y="528" type="curve" smooth="yes"/>
      <point x="452" y="528"/>
      <point x="510" y="480"/>
      <point x="510" y="480" type="curve"/>
      <point x="450" y="359" type="line"/>
      <point x="450" y="359"/>
      <point x="417" y="383"/>
      <point x="364" y="383" type="curve" smooth="yes"/>
      <point x="297" y="383"/>
      <point x="242" y="327"/>
      <point x="242" y="257" type="curve" smooth="yes"/>
      <point x="242" y="186"/>
      <point x="297" y="130"/>
      <point x="364" y="130" type="curve" smooth="yes"/>
      <point x="417" y="130"/>
      <point x="450" y="154"/>
      <point x="450" y="154" type="curve"/>
    </contour>
    <contour>
      <point x="137" y="840" type="line"/>
      <point x="290" y="728" type="line"/>
      <point x="443" y="840" type="line"/>
      <point x="511" y="749" type="line"/>
      <point x="290" y="587" type="line"/>
      <point x="69" y="749" type="line"/>
    </contour>
  </outline>
</glyph>
<glyph name="Dcaron" format="1">
  <advance width="791"/>
  <unicode hex="010E"/>
  <outline>
    <contour>
      <point x="522" y="412" type="curve" smooth="yes"/>
      <point x="522" y="556"/>
      <point x="459" y="657"/>
      <point x="256" y="657" type="curve"/>
      <point x="256" y="168" type="line"/>
      <point x="459" y="168"/>
      <point x="522" y="268"/>
    </contour>
    <contour>
      <point x="68" y="825" type="line"/>
      <point x="307" y="825" type="line" smooth="yes"/>
      <point x="533" y="825"/>
      <point x="723" y="653"/>
      <point x="723" y="413" type="curve" smooth="yes"/>
      <point x="723" y="172"/>
      <point x="534" y="0"/>
      <point x="307" y="0" type="curve" smooth="yes"/>
      <point x="68" y="0" type="line"/>
    </contour>
    <contour>
      <point x="215" y="1152" type="line"/>
      <point x="368" y="1040" type="line"/>
      <point x="521" y="1152" type="line"/>
      <point x="589" y="1061" type="line"/>
      <point x="368" y="899" type="line"/>
      <point x="147" y="1061" type="line"/>
    </contour>
  </outline>
</glyph>
<glyph name="dcaron" format="1">
  <advance width="931"/>
  <unicode hex="010F"/>
  <outline>
    <contour>
      <point x="242" y="256" type="curve" smooth="yes"/>
      <point x="242" y="186"/>
      <point x="290" y="136"/>
      <point x="362" y="136" type="curve" smooth="yes"/>
      <point x="422.416" y="136"/>
      <point x="468.265" y="174.333"/>
      <point x="478.738" y="230.86" type="curve"/>
      <point x="478.598" y="281.562" type="line"/>
      <point x="467.559" y="338.709"/>
      <point x="419.757" y="377"/>
      <point x="362" y="377" type="curve" smooth="yes"/>
      <point x="295" y="377"/>
      <point x="242" y="327"/>
    </contour>
    <contour>
      <point x="654" y="0" type="line"/>
      <point x="479" y="0" type="line"/>
      <point x="479" y="58" type="line"/>
      <point x="441" y="16"/>
      <point x="379" y="-15"/>
      <point x="309" y="-15" type="curve" smooth="yes"/>
      <point x="159" y="-15"/>
      <point x="54" y="106"/>
      <point x="54" y="256" type="curve" smooth="yes"/>
      <point x="54" y="406"/>
      <point x="159" y="528"/>
      <point x="309" y="528" type="curve" smooth="yes"/>
      <point x="339.203" y="528"/>
      <point x="408.971" y="530.491"/>
      <point x="477.923" y="525.995" type="curve"/>
      <point x="477" y="860" type="line"/>
      <point x="654" y="860" type="line"/>
    </contour>
    <contour>
      <point x="787" y="824" type="curve" smooth="yes"/>
      <point x="837" y="824"/>
      <point x="877" y="784"/>
      <point x="877" y="734" type="curve" smooth="yes"/>
      <point x="877" y="641"/>
      <point x="810" y="565"/>
      <point x="747" y="513" type="curve"/>
      <point x="707" y="544" type="line"/>
      <point x="707" y="544"/>
      <point x="754" y="589"/>
      <point x="766" y="654" type="curve"/>
      <point x="728" y="663"/>
      <point x="699" y="694"/>
      <point x="699" y="734" type="curve" smooth="yes"/>
      <point x="699" y="784"/>
      <point x="739" y="824"/>
    </contour>
  </outline>
</glyph>
<glyph name="Dcroat" format="1">
  <advance width="851"/>
  <unicode hex="0110"/>
  <outline>
    <contour>
      <point x="593" y="412" type="curve" smooth="yes"/>
      <point x="593" y="556"/>
      <point x="530" y="657"/>
      <point x="327" y="657" type="curve"/>
      <point x="327" y="489" type="line"/>
      <point x="441.707" y="461.194" type="line"/>
      <point x="441.707" y="371.572" type="line"/>
      <point x="327" y="336" type="line"/>
      <point x="327" y="168" type="line"/>
      <point x="530" y="168"/>
      <point x="593" y="268"/>
    </contour>
    <contour>
      <point x="139" y="489" type="line"/>
      <point x="139" y="825" type="line"/>
      <point x="378" y="825" type="line" smooth="yes"/>
      <point x="604" y="825"/>
      <point x="794" y="653"/>
      <point x="794" y="413" type="curve" smooth="yes"/>
      <point x="794" y="172"/>
      <point x="605" y="0"/>
      <point x="378" y="0" type="curve" smooth="yes"/>
      <point x="139" y="0" type="line"/>
      <point x="139" y="336" type="line"/>
      <point x="57" y="371.572" type="line"/>
      <point x="57" y="461.194" type="line"/>
    </contour>
  </outline>
</glyph>
<glyph name="dcroat" format="1">
  <advance width="774"/>
  <unicode hex="0111"/>
  <outline>
    <contour>
      <point x="650" y="0" type="line"/>
      <point x="475" y="0" type="line"/>
      <point x="475" y="58" type="line"/>
      <point x="437" y="16"/>
      <point x="375" y="-15"/>
      <point x="305" y="-15" type="curve" smooth="yes"/>
      <point x="155" y="-15"/>
      <point x="50" y="106"/>
      <point x="50" y="256" type="curve" smooth="yes"/>
      <point x="50" y="406"/>
      <point x="155" y="528"/>
      <point x="305" y="528" type="curve" smooth="yes"/>
      <point x="335.203" y="528"/>
      <point x="404.971" y="530.491"/>
      <point x="473.923" y="525.995" type="curve"/>
      <point x="473.641" y="628" type="line"/>
      <point x="348.5" y="628" type="line"/>
      <point x="348.5" y="742" type="line"/>
      <point x="473.326" y="742" type="line"/>
      <point x="473" y="860" type="line"/>
      <point x="650" y="860" type="line"/>
      <point x="650" y="742" type="line"/>
      <point x="723.5" y="742" type="line"/>
      <point x="723.5" y="628" type="line"/>
      <point x="650" y="628" type="line"/>
    </contour>
    <contour>
      <point x="238" y="256" type="curve" smooth="yes"/>
      <point x="238" y="186"/>
      <point x="286" y="136"/>
      <point x="358" y="136" type="curve" smooth="yes"/>
      <point x="418.416" y="136"/>
      <point x="464.265" y="174.333"/>
      <point x="474.738" y="230.86" type="curve"/>
      <point x="474.598" y="281.562" type="line"/>
      <point x="463.559" y="338.709"/>
      <point x="415.757" y="377"/>
      <point x="358" y="377" type="curve" smooth="yes"/>
      <point x="291" y="377"/>
      <point x="238" y="327"/>
    </contour>
  </outline>
</glyph>
<glyph name="Emacron" format="1">
  <advance width="613"/>
  <unicode hex="0112"/>
  <outline>
    <contour>
      <point x="542.5" y="825" type="line"/>
      <point x="542.5" y="660" type="line"/>
      <point x="258.5" y="660" type="line"/>
      <point x="258.5" y="496" type="line"/>
      <point x="530.5" y="496" type="line"/>
      <point x="530.5" y="331" type="line"/>
      <point x="258.5" y="331" type="line"/>
      <point x="258.5" y="165" type="line"/>
      <point x="542.5" y="165" type="line"/>
      <point x="542.5" y="0" type="line"/>
      <point x="70.5" y="0" type="line"/>
      <point x="70.5" y="825" type="line"/>
    </contour>
    <contour>
      <point x="96.5" y="1066" type="line"/>
      <point x="504.5" y="1066" type="line"/>
      <point x="504.5" y="946" type="line"/>
      <point x="96.5" y="946" type="line"/>
    </contour>
  </outline>
</glyph>
<glyph name="Ebreve" format="1">
  <advance width="612"/>
  <unicode hex="0114"/>
  <outline>
    <contour>
      <point x="541.5" y="825" type="line"/>
      <point x="541.5" y="660" type="line"/>
      <point x="257.5" y="660" type="line"/>
      <point x="257.5" y="496" type="line"/>
      <point x="529.5" y="496" type="line"/>
      <point x="529.5" y="331" type="line"/>
      <point x="257.5" y="331" type="line"/>
      <point x="257.5" y="165" type="line"/>
      <point x="541.5" y="165" type="line"/>
      <point x="541.5" y="0" type="line"/>
      <point x="69.5" y="0" type="line"/>
      <point x="69.5" y="825" type="line"/>
    </contour>
    <contour>
      <point x="416.5" y="1125" type="curve"/>
      <point x="542.5" y="1094" type="line"/>
      <point x="530.5" y="987"/>
      <point x="440.5" y="913"/>
      <point x="311.5" y="913" type="curve" smooth="yes"/>
      <point x="182.5" y="913"/>
      <point x="92.5" y="987"/>
      <point x="80.5" y="1094" type="curve"/>
      <point x="206.5" y="1125" type="line"/>
      <point x="206.5" y="1125"/>
      <point x="217.5" y="1022"/>
      <point x="311.5" y="1022" type="curve" smooth="yes"/>
      <point x="405.5" y="1022"/>
      <point x="416.5" y="1125"/>
    </contour>
  </outline>
</glyph>
<glyph name="Edotaccent" format="1">
  <advance width="613"/>
  <unicode hex="0116"/>
  <outline>
    <contour>
      <point x="542.5" y="825" type="line"/>
      <point x="542.5" y="660" type="line"/>
      <point x="258.5" y="660" type="line"/>
      <point x="258.5" y="496" type="line"/>
      <point x="530.5" y="496" type="line"/>
      <point x="530.5" y="331" type="line"/>
      <point x="258.5" y="331" type="line"/>
      <point x="258.5" y="165" type="line"/>
      <point x="542.5" y="165" type="line"/>
      <point x="542.5" y="0" type="line"/>
      <point x="70.5" y="0" type="line"/>
      <point x="70.5" y="825" type="line"/>
    </contour>
    <contour>
      <point x="300.5" y="1103" type="curve" smooth="yes"/>
      <point x="351.5" y="1103"/>
      <point x="392.5" y="1062"/>
      <point x="392.5" y="1011" type="curve" smooth="yes"/>
      <point x="392.5" y="960"/>
      <point x="351.5" y="919"/>
      <point x="300.5" y="919" type="curve" smooth="yes"/>
      <point x="249.5" y="919"/>
      <point x="208.5" y="960"/>
      <point x="208.5" y="1011" type="curve" smooth="yes"/>
      <point x="208.5" y="1062"/>
      <point x="249.5" y="1103"/>
    </contour>
  </outline>
</glyph>
<glyph name="edotaccent" format="1">
  <advance width="676"/>
  <unicode hex="0117"/>
  <outline>
    <contour>
      <point x="248.5" y="317" type="curve"/>
      <point x="443.5" y="317" type="line"/>
      <point x="435.5" y="371"/>
      <point x="398.5" y="413"/>
      <point x="346.5" y="413" type="curve" smooth="yes"/>
      <point x="285.5" y="413"/>
      <point x="251.5" y="364"/>
    </contour>
    <contour>
      <point x="479.5" y="173" type="curve"/>
      <point x="607.5" y="119" type="line"/>
      <point x="549.5" y="22"/>
      <point x="455.5" y="-15"/>
      <point x="341.5" y="-15" type="curve" smooth="yes"/>
      <point x="186.5" y="-15"/>
      <point x="59.5" y="107"/>
      <point x="59.5" y="256" type="curve" smooth="yes"/>
      <point x="59.5" y="406"/>
      <point x="186.5" y="528"/>
      <point x="341.5" y="528" type="curve" smooth="yes"/>
      <point x="497.5" y="528"/>
      <point x="616.5" y="418"/>
      <point x="616.5" y="227" type="curve"/>
      <point x="243.5" y="227" type="line"/>
      <point x="243.5" y="141"/>
      <point x="366.5" y="60"/>
    </contour>
    <contour>
      <point x="337.5" y="791" type="curve" smooth="yes"/>
      <point x="388.5" y="791"/>
      <point x="429.5" y="750"/>
      <point x="429.5" y="699" type="curve" smooth="yes"/>
      <point x="429.5" y="648"/>
      <point x="388.5" y="607"/>
      <point x="337.5" y="607" type="curve" smooth="yes"/>
      <point x="286.5" y="607"/>
      <point x="245.5" y="648"/>
      <point x="245.5" y="699" type="curve" smooth="yes"/>
      <point x="245.5" y="750"/>
      <point x="286.5" y="791"/>
    </contour>
  </outline>
</glyph>
<glyph name="Eogonek" format="1">
  <advance width="612"/>
  <unicode hex="0118"/>
  <outline>
    <contour>
      <point x="540" y="825" type="line"/>
      <point x="540" y="660" type="line"/>
      <point x="256" y="660" type="line"/>
      <point x="256" y="496" type="line"/>
      <point x="528" y="496" type="line"/>
      <point x="528" y="331" type="line"/>
      <point x="256" y="331" type="line"/>
      <point x="256" y="165" type="line"/>
      <point x="540" y="165" type="line"/>
      <point x="540" y="0" type="line"/>
      <point x="443" y="0" type="line"/>
      <point x="443" y="0"/>
      <point x="384" y="-70"/>
      <point x="384" y="-140" type="curve" smooth="yes"/>
      <point x="384" y="-165"/>
      <point x="404" y="-179"/>
      <point x="421" y="-179" type="curve" smooth="yes"/>
      <point x="452" y="-179"/>
      <point x="472" y="-149"/>
      <point x="472" y="-149" type="curve"/>
      <point x="544" y="-203" type="line"/>
      <point x="544" y="-203"/>
      <point x="499" y="-275"/>
      <point x="407" y="-275" type="curve" smooth="yes"/>
      <point x="355" y="-275"/>
      <point x="281" y="-245"/>
      <point x="281" y="-158" type="curve" smooth="yes"/>
      <point x="281" y="-103"/>
      <point x="331" y="-36"/>
      <point x="361" y="0" type="curve"/>
      <point x="68" y="0" type="line"/>
      <point x="68" y="825" type="line"/>
    </contour>
  </outline>
</glyph>
<glyph name="eogonek" format="1">
  <advance width="679"/>
  <unicode hex="0119"/>
  <outline>
    <contour>
      <point x="456" y="0" type="curve"/>
      <point x="456" y="0"/>
      <point x="397" y="-70"/>
      <point x="397" y="-140" type="curve" smooth="yes"/>
      <point x="397" y="-165"/>
      <point x="417" y="-179"/>
      <point x="434" y="-179" type="curve" smooth="yes"/>
      <point x="465" y="-179"/>
      <point x="485" y="-149"/>
      <point x="485" y="-149" type="curve"/>
      <point x="557" y="-203" type="line"/>
      <point x="557" y="-203"/>
      <point x="512" y="-275"/>
      <point x="420" y="-275" type="curve" smooth="yes"/>
      <point x="368" y="-275"/>
      <point x="294" y="-245"/>
      <point x="294" y="-158" type="curve" smooth="yes"/>
      <point x="294" y="-110.255"/>
      <point x="331.598" y="-52.6152"/>
      <point x="361.521" y="-14.6064" type="curve"/>
      <point x="354.92" y="-14.8701"/>
      <point x="348.245" y="-15"/>
      <point x="341.5" y="-15" type="curve" smooth="yes"/>
      <point x="186.5" y="-15"/>
      <point x="59.5" y="107"/>
      <point x="59.5" y="256" type="curve" smooth="yes"/>
      <point x="59.5" y="406"/>
      <point x="186.5" y="528"/>
      <point x="341.5" y="528" type="curve" smooth="yes"/>
      <point x="497.5" y="528"/>
      <point x="616.5" y="418"/>
      <point x="616.5" y="227" type="curve"/>
      <point x="243.5" y="227" type="line"/>
      <point x="243.5" y="141"/>
      <point x="366.5" y="60"/>
      <point x="479.5" y="173" type="curve"/>
      <point x="607.5" y="119" type="line"/>
      <point x="570.36" y="56.8877"/>
      <point x="518.46" y="18.9473"/>
    </contour>
    <contour>
      <point x="248.5" y="317" type="curve"/>
      <point x="443.5" y="317" type="line"/>
      <point x="435.5" y="371"/>
      <point x="398.5" y="413"/>
      <point x="346.5" y="413" type="curve" smooth="yes"/>
      <point x="285.5" y="413"/>
      <point x="251.5" y="364"/>
    </contour>
  </outline>
</glyph>
<glyph name="ecaron" format="1">
  <advance width="675"/>
  <unicode hex="011B"/>
  <outline>
    <contour>
      <point x="248.5" y="317" type="curve"/>
      <point x="443.5" y="317" type="line"/>
      <point x="435.5" y="371"/>
      <point x="398.5" y="413"/>
      <point x="346.5" y="413" type="curve" smooth="yes"/>
      <point x="285.5" y="413"/>
      <point x="251.5" y="364"/>
    </contour>
    <contour>
      <point x="479.5" y="173" type="curve"/>
      <point x="607.5" y="119" type="line"/>
      <point x="549.5" y="22"/>
      <point x="455.5" y="-15"/>
      <point x="341.5" y="-15" type="curve" smooth="yes"/>
      <point x="186.5" y="-15"/>
      <point x="59.5" y="107"/>
      <point x="59.5" y="256" type="curve" smooth="yes"/>
      <point x="59.5" y="406"/>
      <point x="186.5" y="528"/>
      <point x="341.5" y="528" type="curve" smooth="yes"/>
      <point x="497.5" y="528"/>
      <point x="616.5" y="418"/>
      <point x="616.5" y="227" type="curve"/>
      <point x="243.5" y="227" type="line"/>
      <point x="243.5" y="141"/>
      <point x="366.5" y="60"/>
    </contour>
    <contour>
      <point x="184" y="840" type="line"/>
      <point x="337" y="728" type="line"/>
      <point x="490" y="840" type="line"/>
      <point x="558" y="749" type="line"/>
      <point x="337" y="587" type="line"/>
      <point x="116" y="749" type="line"/>
    </contour>
  </outline>
</glyph>
<glyph name="gcircumflex" format="1">
  <advance width="732"/>
  <unicode hex="011D"/>
  <outline>
    <contour>
      <point x="666" y="256" type="curve" smooth="yes"/>
      <point x="666" y="-14" type="line" smooth="yes"/>
      <point x="666" y="-186"/>
      <point x="539" y="-275"/>
      <point x="364" y="-275" type="curve" smooth="yes"/>
      <point x="257" y="-275"/>
      <point x="134" y="-251"/>
      <point x="80" y="-126" type="curve"/>
      <point x="225" y="-55" type="line"/>
      <point x="244" y="-86"/>
      <point x="287" y="-121"/>
      <point x="364" y="-121" type="curve" smooth="yes"/>
      <point x="413" y="-121"/>
      <point x="489" y="-92"/>
      <point x="489" y="-1" type="curve" smooth="yes"/>
      <point x="489" y="37" type="line"/>
      <point x="451" y="-5"/>
      <point x="391" y="-15"/>
      <point x="321" y="-15" type="curve" smooth="yes"/>
      <point x="171" y="-15"/>
      <point x="66" y="106"/>
      <point x="66" y="256" type="curve" smooth="yes"/>
      <point x="66" y="406"/>
      <point x="171" y="528"/>
      <point x="321" y="528" type="curve" smooth="yes"/>
      <point x="612.65" y="528"/>
      <point x="666" y="528"/>
    </contour>
    <contour>
      <point x="254" y="256" type="curve" smooth="yes"/>
      <point x="254" y="186"/>
      <point x="302" y="136"/>
      <point x="374" y="136" type="curve" smooth="yes"/>
      <point x="443" y="136"/>
      <point x="493" y="186"/>
      <point x="493" y="256" type="curve" smooth="yes"/>
      <point x="493" y="263.943"/>
      <point x="493" y="310.623"/>
      <point x="492.833" y="318" type="curve" smooth="yes"/>
      <point x="491.511" y="364.562"/>
      <point x="479.688" y="377"/>
      <point x="374" y="377" type="curve" smooth="yes"/>
      <point x="307" y="377"/>
      <point x="254" y="327"/>
    </contour>
    <contour>
      <point x="179.5" y="688" type="line"/>
      <point x="400.5" y="850" type="line"/>
      <point x="621.5" y="688" type="line"/>
      <point x="553.5" y="597" type="line"/>
      <point x="400.5" y="709" type="line"/>
      <point x="247.5" y="597" type="line"/>
    </contour>
  </outline>
</glyph>
<glyph name="gbreve" format="1">
  <advance width="732"/>
  <unicode hex="011F"/>
  <outline>
    <contour>
      <point x="666.5" y="256" type="curve" smooth="yes"/>
      <point x="666.5" y="-14" type="line" smooth="yes"/>
      <point x="666.5" y="-186"/>
      <point x="539.5" y="-275"/>
      <point x="364.5" y="-275" type="curve" smooth="yes"/>
      <point x="257.5" y="-275"/>
      <point x="134.5" y="-251"/>
      <point x="80.5" y="-126" type="curve"/>
      <point x="225.5" y="-55" type="line"/>
      <point x="244.5" y="-86"/>
      <point x="287.5" y="-121"/>
      <point x="364.5" y="-121" type="curve" smooth="yes"/>
      <point x="413.5" y="-121"/>
      <point x="489.5" y="-92"/>
      <point x="489.5" y="-1" type="curve" smooth="yes"/>
      <point x="489.5" y="37" type="line"/>
      <point x="451.5" y="-5"/>
      <point x="391.5" y="-15"/>
      <point x="321.5" y="-15" type="curve" smooth="yes"/>
      <point x="171.5" y="-15"/>
      <point x="66.5" y="106"/>
      <point x="66.5" y="256" type="curve" smooth="yes"/>
      <point x="66.5" y="406"/>
      <point x="171.5" y="528"/>
      <point x="321.5" y="528" type="curve" smooth="yes"/>
      <point x="613.15" y="528"/>
      <point x="666.5" y="528"/>
    </contour>
    <contour>
      <point x="254.5" y="256" type="curve" smooth="yes"/>
      <point x="254.5" y="186"/>
      <point x="302.5" y="136"/>
      <point x="374.5" y="136" type="curve" smooth="yes"/>
      <point x="443.5" y="136"/>
      <point x="493.5" y="186"/>
      <point x="493.5" y="256" type="curve" smooth="yes"/>
      <point x="493.5" y="263.943"/>
      <point x="493.5" y="310.623"/>
      <point x="493.333" y="318" type="curve" smooth="yes"/>
      <point x="492.011" y="364.562"/>
      <point x="480.188" y="377"/>
      <point x="374.5" y="377" type="curve" smooth="yes"/>
      <point x="307.5" y="377"/>
      <point x="254.5" y="327"/>
    </contour>
    <contour>
      <point x="474.5" y="810" type="curve"/>
      <point x="600.5" y="779" type="line"/>
      <point x="588.5" y="672"/>
      <point x="498.5" y="598"/>
      <point x="369.5" y="598" type="curve" smooth="yes"/>
      <point x="240.5" y="598"/>
      <point x="150.5" y="672"/>
      <point x="138.5" y="779" type="curve"/>
      <point x="264.5" y="810" type="line"/>
      <point x="264.5" y="810"/>
      <point x="275.5" y="707"/>
      <point x="369.5" y="707" type="curve" smooth="yes"/>
      <point x="463.5" y="707"/>
      <point x="474.5" y="810"/>
    </contour>
  </outline>
</glyph>
<glyph name="uni0122" format="1">
  <advance width="908"/>
  <unicode hex="0122"/>
  <outline>
    <contour>
      <point x="843" y="462" type="line"/>
      <point x="843" y="0" type="line"/>
      <point x="746" y="34" type="line"/>
      <point x="750.507" y="93.8164" type="line"/>
      <point x="681.976" y="18.2783"/>
      <point x="581.521" y="-15"/>
      <point x="462" y="-15" type="curve" smooth="yes"/>
      <point x="240" y="-15"/>
      <point x="60" y="176"/>
      <point x="60" y="412" type="curve" smooth="yes"/>
      <point x="60" y="649"/>
      <point x="230" y="840"/>
      <point x="462" y="840" type="curve" smooth="yes"/>
      <point x="607" y="840"/>
      <point x="708" y="786"/>
      <point x="780" y="699" type="curve"/>
      <point x="657" y="564" type="line"/>
      <point x="609" y="641"/>
      <point x="546" y="670"/>
      <point x="473" y="670" type="curve" smooth="yes"/>
      <point x="357" y="670"/>
      <point x="263" y="555"/>
      <point x="263" y="412" type="curve" smooth="yes"/>
      <point x="263" y="272"/>
      <point x="357" y="158"/>
      <point x="473" y="158" type="curve" smooth="yes"/>
      <point x="563" y="158"/>
      <point x="652" y="216"/>
      <point x="652" y="317" type="curve"/>
      <point x="482" y="317" type="line"/>
      <point x="448" y="462" type="line"/>
    </contour>
    <contour>
      <point x="462" y="-40" type="curve" smooth="yes"/>
      <point x="512" y="-40"/>
      <point x="552" y="-80"/>
      <point x="552" y="-130" type="curve" smooth="yes"/>
      <point x="552" y="-223"/>
      <point x="485" y="-299"/>
      <point x="422" y="-351" type="curve"/>
      <point x="382" y="-320" type="line"/>
      <point x="382" y="-320"/>
      <point x="429" y="-275"/>
      <point x="441" y="-210" type="curve"/>
      <point x="403" y="-201"/>
      <point x="374" y="-170"/>
      <point x="374" y="-130" type="curve" smooth="yes"/>
      <point x="374" y="-80"/>
      <point x="414" y="-40"/>
    </contour>
  </outline>
</glyph>
<glyph name="uni0123" format="1">
  <advance width="733"/>
  <unicode hex="0123"/>
  <outline>
    <contour>
      <point x="666.5" y="256" type="curve" smooth="yes"/>
      <point x="666.5" y="-14" type="line" smooth="yes"/>
      <point x="666.5" y="-186"/>
      <point x="539.5" y="-275"/>
      <point x="364.5" y="-275" type="curve" smooth="yes"/>
      <point x="257.5" y="-275"/>
      <point x="134.5" y="-251"/>
      <point x="80.5" y="-126" type="curve"/>
      <point x="225.5" y="-55" type="line"/>
      <point x="244.5" y="-86"/>
      <point x="287.5" y="-121"/>
      <point x="364.5" y="-121" type="curve" smooth="yes"/>
      <point x="413.5" y="-121"/>
      <point x="489.5" y="-92"/>
      <point x="489.5" y="-1" type="curve" smooth="yes"/>
      <point x="489.5" y="37" type="line"/>
      <point x="451.5" y="-5"/>
      <point x="391.5" y="-15"/>
      <point x="321.5" y="-15" type="curve" smooth="yes"/>
      <point x="171.5" y="-15"/>
      <point x="66.5" y="106"/>
      <point x="66.5" y="256" type="curve" smooth="yes"/>
      <point x="66.5" y="406"/>
      <point x="171.5" y="528"/>
      <point x="321.5" y="528" type="curve" smooth="yes"/>
      <point x="613.15" y="528"/>
      <point x="666.5" y="528"/>
    </contour>
    <contour>
      <point x="254.5" y="256" type="curve" smooth="yes"/>
      <point x="254.5" y="186"/>
      <point x="302.5" y="136"/>
      <point x="374.5" y="136" type="curve" smooth="yes"/>
      <point x="443.5" y="136"/>
      <point x="493.5" y="186"/>
      <point x="493.5" y="256" type="curve" smooth="yes"/>
      <point x="493.5" y="263.943"/>
      <point x="493.5" y="310.623"/>
      <point x="493.333" y="318" type="curve" smooth="yes"/>
      <point x="492.011" y="364.562"/>
      <point x="480.188" y="377"/>
      <point x="374.5" y="377" type="curve" smooth="yes"/>
      <point x="307.5" y="377"/>
      <point x="254.5" y="327"/>
    </contour>
    <contour>
      <point x="385.5" y="607" type="curve" smooth="yes"/>
      <point x="335.5" y="607"/>
      <point x="295.5" y="647"/>
      <point x="295.5" y="697" type="curve" smooth="yes"/>
      <point x="295.5" y="790"/>
      <point x="362.5" y="866"/>
      <point x="425.5" y="918" type="curve"/>
      <point x="465.5" y="887" type="line"/>
      <point x="465.5" y="887"/>
      <point x="418.5" y="842"/>
      <point x="406.5" y="777" type="curve"/>
      <point x="444.5" y="768"/>
      <point x="473.5" y="737"/>
      <point x="473.5" y="697" type="curve" smooth="yes"/>
      <point x="473.5" y="647"/>
      <point x="433.5" y="607"/>
    </contour>
  </outline>
</glyph>
<glyph name="Hcircumflex" format="1">
  <advance width="792"/>
  <unicode hex="0124"/>
  <outline>
    <contour>
      <point x="263" y="331" type="line"/>
      <point x="263" y="0" type="line"/>
      <point x="75" y="0" type="line"/>
      <point x="75" y="825" type="line"/>
      <point x="263" y="825" type="line"/>
      <point x="263" y="496" type="line"/>
      <point x="529" y="496" type="line"/>
      <point x="529" y="825" type="line"/>
      <point x="717" y="825" type="line"/>
      <point x="717" y="0" type="line"/>
      <point x="529" y="0" type="line"/>
      <point x="529" y="331" type="line"/>
    </contour>
    <contour>
      <point x="178.5" y="976" type="line"/>
      <point x="399.5" y="1138" type="line"/>
      <point x="620.5" y="976" type="line"/>
      <point x="552.5" y="885" type="line"/>
      <point x="399.5" y="997" type="line"/>
      <point x="246.5" y="885" type="line"/>
    </contour>
  </outline>
</glyph>
<glyph name="Hbar" format="1">
  <advance width="960"/>
  <unicode hex="0126"/>
  <outline>
    <contour>
      <point x="355.5" y="310" type="line"/>
      <point x="355.5" y="0" type="line"/>
      <point x="167.5" y="0" type="line"/>
      <point x="167.5" y="541.5" type="line"/>
      <point x="50" y="541.5" type="line"/>
      <point x="50" y="718.5" type="line"/>
      <point x="167.5" y="718.5" type="line"/>
      <point x="167.5" y="825" type="line"/>
      <point x="355.5" y="825" type="line"/>
      <point x="355.5" y="718.5" type="line"/>
      <point x="621.5" y="718.5" type="line"/>
      <point x="621.5" y="825" type="line"/>
      <point x="809.5" y="825" type="line"/>
      <point x="809.5" y="718.5" type="line"/>
      <point x="910" y="718.5" type="line"/>
      <point x="910" y="541.5" type="line"/>
      <point x="809.5" y="541.5" type="line"/>
      <point x="809.5" y="0" type="line"/>
      <point x="621.5" y="0" type="line"/>
      <point x="621.5" y="310" type="line"/>
    </contour>
    <contour>
      <point x="355.5" y="541.5" type="line"/>
      <point x="355.5" y="475" type="line"/>
      <point x="621.5" y="475" type="line"/>
      <point x="621.5" y="541.5" type="line"/>
    </contour>
  </outline>
</glyph>
<glyph name="hbar" format="1">
  <advance width="785"/>
  <unicode hex="0127"/>
  <outline>
    <contour>
      <point x="351.25" y="608.5" type="line"/>
      <point x="351.25" y="459" type="line"/>
      <point x="391.25" y="499"/>
      <point x="444.25" y="528"/>
      <point x="500.25" y="528" type="curve" smooth="yes"/>
      <point x="594.25" y="528"/>
      <point x="725.25" y="481"/>
      <point x="725.25" y="338" type="curve" smooth="yes"/>
      <point x="725.25" y="0" type="line"/>
      <point x="548.25" y="0" type="line"/>
      <point x="548.25" y="290" type="line" smooth="yes"/>
      <point x="548.25" y="341"/>
      <point x="513.25" y="390"/>
      <point x="456.25" y="390" type="curve" smooth="yes"/>
      <point x="403.25" y="390"/>
      <point x="351.25" y="341"/>
      <point x="351.25" y="290" type="curve" smooth="yes"/>
      <point x="351.25" y="0" type="line"/>
      <point x="174.25" y="0" type="line"/>
      <point x="174.25" y="608.5" type="line"/>
      <point x="59.75" y="608.5" type="line"/>
      <point x="59.75" y="747.5" type="line"/>
      <point x="174.25" y="747.5" type="line"/>
      <point x="174.25" y="860" type="line"/>
      <point x="351.25" y="860" type="line"/>
      <point x="351.25" y="747.5" type="line"/>
      <point x="660.75" y="747.5" type="line"/>
      <point x="660.75" y="608.5" type="line"/>
    </contour>
  </outline>
</glyph>
<glyph name="Itilde" format="1">
  <advance width="538"/>
  <unicode hex="0128"/>
  <outline>
    <contour>
      <point x="184" y="931" type="curve" smooth="yes"/>
      <point x="152" y="931"/>
      <point x="139" y="885"/>
      <point x="139" y="885" type="curve"/>
      <point x="38" y="885" type="line"/>
      <point x="38" y="885"/>
      <point x="64" y="1057"/>
      <point x="174" y="1057" type="curve" smooth="yes"/>
      <point x="213" y="1057"/>
      <point x="313" y="1011"/>
      <point x="354" y="1011" type="curve" smooth="yes"/>
      <point x="386" y="1011"/>
      <point x="399" y="1057"/>
      <point x="399" y="1057" type="curve"/>
      <point x="500" y="1057" type="line"/>
      <point x="500" y="1057"/>
      <point x="474" y="885"/>
      <point x="364" y="885" type="curve" smooth="yes"/>
      <point x="325" y="885"/>
      <point x="248.203" y="931"/>
    </contour>
    <contour>
      <point x="362" y="825" type="line"/>
      <point x="362" y="0" type="line"/>
      <point x="174" y="0" type="line"/>
      <point x="174" y="825" type="line"/>
    </contour>
  </outline>
</glyph>
